<?xml version="1.0" encoding="UTF-8" standalone="no"?>
<!DOCTYPE svg PUBLIC "-//W3C//DTD SVG 1.1//EN" "http://www.w3.org/Graphics/SVG/1.1/DTD/svg11.dtd">
<svg xmlns="http://www.w3.org/2000/svg" version="1.1" viewBox="0.00 0.00 200.00 195.00">
<g stroke-width="2.00" fill="none" stroke-linecap="butt">
<path stroke="#8095c6" vector-effect="non-scaling-stroke" d="
  M 188.67 95.07
  A 89.76 89.76 0.0 0 0 98.91 5.31
  A 89.76 89.76 0.0 0 0 9.15 95.07
  A 89.76 89.76 0.0 0 0 98.91 184.83
  A 89.76 89.76 0.0 0 0 188.67 95.07"
/>
<path stroke="#8095c6" vector-effect="non-scaling-stroke" d="
  M 187.71 95.06
  A 88.78 88.78 0.0 0 0 98.93 6.28
  A 88.78 88.78 0.0 0 0 10.15 95.06
  A 88.78 88.78 0.0 0 0 98.93 183.84
  A 88.78 88.78 0.0 0 0 187.71 95.06"
/>
<path stroke="#8095c6" vector-effect="non-scaling-stroke" d="
  M 185.48 95.08
  A 86.54 86.54 0.0 0 0 98.94 8.54
  A 86.54 86.54 0.0 0 0 12.40 95.08
  A 86.54 86.54 0.0 0 0 98.94 181.62
  A 86.54 86.54 0.0 0 0 185.48 95.08"
/>
<path stroke="#8095c6" vector-effect="non-scaling-stroke" d="
  M 93.33 18.31
  L 97.31 13.99
  Q 98.29 12.92 96.87 12.63
  Q 95.84 12.42 95.67 13.53
  Q 95.56 14.29 95.02 14.85
  Q 93.23 16.73 91.49 18.84
  Q 89.80 20.88 92.39 20.28
  Q 93.25 20.08 94.22 20.16
  Q 94.85 20.21 94.98 20.84
  Q 95.12 21.53 94.96 22.27
  Q 94.83 22.89 94.24 22.69
  Q 93.91 22.58 93.74 22.29
  Q 93.44 21.74 92.91 22.06
  Q 91.34 23.01 91.80 25.20
  A 0.40 0.40 0.0 0 0 92.41 25.45
  Q 93.04 25.06 93.47 24.47
  Q 93.80 24.00 94.38 24.01
  Q 94.52 24.01 94.63 24.09
  Q 95.12 24.48 95.13 25.13
  Q 95.13 25.89 95.73 26.13
  Q 97.06 26.66 96.68 25.28
  Q 96.00 22.83 97.05 21.22
  Q 97.28 20.88 96.98 20.60
  Q 96.22 19.91 97.16 19.40
  A 0.99 0.99 0.0 0 0 97.63 18.83
  Q 97.90 17.98 97.29 17.70
  Q 96.51 17.34 96.06 18.07
  Q 95.18 19.48 93.60 19.16
  Q 92.72 18.98 93.33 18.31"
/>
<path stroke="#8095c6" vector-effect="non-scaling-stroke" d="
  M 100.69 22.39
  A 0.54 0.54 0.0 0 1 101.51 22.90
  Q 101.21 26.06 101.51 28.77
  Q 101.62 29.79 101.95 28.81
  Q 103.06 25.45 103.68 22.18
  Q 103.78 21.66 104.21 21.36
  L 104.78 20.96
  Q 105.35 20.57 104.97 19.99
  C 103.81 18.21 104.29 16.52 104.29 14.52
  Q 104.29 13.97 103.91 13.58
  Q 103.54 13.21 103.02 13.32
  Q 102.47 13.45 102.17 13.92
  Q 101.50 14.96 100.32 14.64
  Q 99.89 14.52 99.75 14.94
  Q 99.64 15.25 99.82 15.52
  Q 100.14 16.02 99.87 16.54
  Q 99.26 17.72 99.57 19.00
  Q 99.70 19.52 99.35 19.93
  Q 98.45 20.97 98.21 22.20
  Q 97.84 24.13 99.52 23.10
  L 100.69 22.39"
/>
<path stroke="#8095c6" vector-effect="non-scaling-stroke" d="
  M 143.05 24.00
  A 0.37 0.36 -8.4 0 0 142.52 23.61
  C 141.53 24.13 140.02 25.53 140.59 26.79
  A 1.05 1.04 -51.8 0 0 142.57 26.55
  L 143.05 24.00"
/>
<path stroke="#8095c6" vector-effect="non-scaling-stroke" d="
  M 55.60 38.54
  Q 55.97 38.33 56.18 37.96
  Q 56.96 36.58 57.07 38.16
  Q 57.16 39.34 56.48 40.26
  Q 56.18 40.67 56.66 40.83
  C 60.12 42.03 62.89 40.54 65.34 38.23
  A 1.22 1.21 -40.6 0 0 65.47 36.60
  Q 62.30 32.45 59.61 28.06
  C 58.08 25.54 55.51 23.40 52.88 26.36
  Q 49.73 29.93 50.48 34.81
  Q 50.50 34.97 50.45 35.11
  Q 50.39 35.31 50.22 35.43
  Q 49.85 35.70 50.07 36.10
  L 54.47 44.19
  Q 54.80 44.80 55.42 44.49
  L 55.72 44.35
  Q 56.15 44.13 55.98 43.67
  Q 55.20 41.57 55.20 39.22
  A 0.78 0.77 75.7 0 1 55.60 38.54"
/>
<path stroke="#8095c6" vector-effect="non-scaling-stroke" d="
  M 147.44 30.00
  Q 142.51 30.07 138.35 28.54
  Q 137.79 28.33 137.44 28.82
  L 135.54 31.48
  A 0.44 0.43 13.4 0 0 135.96 32.16
  Q 137.29 31.97 138.36 31.19
  C 139.95 30.05 142.14 30.22 143.81 31.08
  Q 144.23 31.30 144.34 31.75
  Q 144.82 33.77 142.68 34.80
  Q 142.31 34.98 142.65 35.22
  L 143.09 35.53
  A 0.21 0.21 0.0 0 0 143.30 35.55
  Q 145.83 34.42 145.69 31.56
  Q 145.66 30.97 146.24 30.98
  Q 147.43 31.01 148.50 31.45
  A 0.64 0.64 0.0 0 0 149.37 30.97
  L 149.58 29.81
  Q 149.70 29.21 149.10 29.07
  Q 147.03 28.61 145.80 26.63
  A 0.54 0.54 0.0 0 0 144.91 26.58
  Q 144.49 27.14 144.49 27.80
  Q 144.49 28.63 145.32 28.68
  L 147.38 28.82
  Q 147.65 28.84 147.85 29.04
  Q 148.00 29.20 148.01 29.41
  Q 148.02 29.99 147.44 30.00"
/>
<path stroke="#8095c6" vector-effect="non-scaling-stroke" d="
  M 137.12 37.82
  Q 134.63 36.82 133.36 34.84
  Q 132.80 33.97 132.11 34.82
  A 0.71 0.70 37.5 0 0 132.25 35.84
  L 136.14 38.61
  Q 136.52 38.88 136.45 39.34
  Q 136.41 39.62 136.16 39.82
  Q 135.70 40.20 135.12 40.01
  Q 133.44 39.46 132.16 37.78
  Q 132.10 37.71 132.00 37.73
  Q 131.87 37.77 131.74 37.85
  Q 131.55 37.97 131.66 38.16
  Q 134.06 42.43 137.19 40.05
  Q 137.60 39.74 138.06 39.97
  L 139.85 40.90
  Q 140.97 41.47 140.38 40.36
  Q 140.06 39.75 139.43 39.39
  A 1.61 1.61 0.0 0 1 138.93 37.04
  Q 139.78 35.90 140.98 35.28
  A 0.80 0.79 62.9 0 0 141.32 34.22
  Q 140.41 32.38 138.29 32.39
  Q 137.57 32.39 137.88 33.05
  Q 138.17 33.65 138.81 33.97
  A 0.79 0.79 0.0 0 1 138.82 35.38
  Q 137.54 36.03 137.69 37.39
  Q 137.76 38.07 137.12 37.82"
/>
<path stroke="#8095c6" vector-effect="non-scaling-stroke" d="
  M 160.80 95.84
  A 62.64 62.64 0.0 0 0 98.16 33.20
  A 62.64 62.64 0.0 0 0 35.52 95.84
  A 62.64 62.64 0.0 0 0 98.16 158.48
  A 62.64 62.64 0.0 0 0 160.80 95.84"
/>
<path stroke="#8095c6" vector-effect="non-scaling-stroke" d="
  M 164.62 57.39
  Q 164.30 56.99 164.27 56.49
  A 1.08 1.08 0.0 0 0 162.95 55.50
  L 157.52 56.78
  Q 156.34 57.06 155.96 58.21
  L 155.42 59.87
  Q 154.98 61.21 156.36 60.87
  L 160.54 59.83
  Q 161.09 59.69 161.52 59.31
  L 162.88 58.13
  Q 163.69 57.42 163.71 58.49
  L 163.72 59.08
  Q 163.74 59.74 164.40 59.72
  C 166.88 59.64 166.52 56.96 168.82 56.41
  Q 169.37 56.27 169.26 55.71
  Q 169.01 54.53 168.15 53.90
  Q 166.53 52.70 166.74 54.71
  Q 166.93 56.55 165.29 57.52
  A 0.53 0.53 0.0 0 1 164.62 57.39"
/>
<path stroke="#8095c6" vector-effect="non-scaling-stroke" d="
  M 24.77 61.71
  L 24.38 61.48
  Q 23.87 61.18 23.33 61.43
  Q 22.37 61.89 21.78 62.56
  Q 20.31 64.25 22.55 64.24
  C 26.45 64.23 26.40 67.58 27.41 70.22
  Q 27.79 71.22 26.73 71.05
  L 25.00 70.77
  A 0.35 0.35 0.0 0 0 24.60 71.04
  L 24.54 71.33
  A 0.64 0.64 0.0 0 0 24.95 72.06
  Q 27.30 72.93 29.17 72.60
  Q 30.19 72.42 30.05 71.35
  Q 29.97 70.79 29.49 70.51
  Q 27.88 69.57 28.34 67.52
  Q 28.44 67.10 28.85 67.24
  L 30.08 67.66
  Q 30.73 67.88 30.54 68.54
  L 30.28 69.48
  Q 30.07 70.20 30.78 69.97
  Q 31.47 69.75 31.77 69.08
  A 0.71 0.70 -63.9 0 1 32.75 68.74
  Q 34.82 69.82 36.87 70.15
  Q 37.88 70.31 37.08 69.67
  Q 34.74 67.79 32.48 65.84
  C 31.40 64.91 31.53 63.84 31.63 62.58
  Q 31.66 62.25 31.48 61.99
  Q 31.39 61.87 31.17 61.90
  Q 30.88 61.93 30.71 62.19
  Q 30.37 62.72 29.73 62.63
  Q 29.20 62.56 29.12 62.03
  L 28.57 58.51
  A 0.65 0.65 0.0 0 0 27.54 58.08
  Q 26.29 58.99 26.22 60.92
  Q 26.16 62.53 24.77 61.71"
/>
<path stroke="#8095c6" vector-effect="non-scaling-stroke" d="
  M 173.71 62.34
  A 0.57 0.57 0.0 0 0 174.46 61.74
  L 174.25 59.81
  Q 174.17 59.10 173.61 59.54
  L 172.41 60.47
  A 0.70 0.70 0.0 0 0 172.38 61.55
  Q 172.97 62.08 173.71 62.34"
/>
<path stroke="#8095c6" vector-effect="non-scaling-stroke" d="
  M 171.55 65.49
  C 169.90 65.62 168.35 63.96 167.22 62.94
  A 0.51 0.51 0.0 0 0 166.67 62.86
  L 166.16 63.10
  Q 165.72 63.30 166.07 63.63
  C 167.40 64.89 170.88 67.63 172.78 66.27
  Q 174.09 65.33 172.98 64.16
  Q 171.69 62.80 170.01 61.93
  A 0.87 0.86 -66.0 0 1 169.61 60.87
  L 169.85 60.21
  Q 170.09 59.57 169.41 59.50
  Q 167.43 59.32 166.22 60.25
  Q 164.17 61.81 166.73 62.07
  Q 169.52 62.36 171.88 64.51
  A 0.57 0.56 63.7 0 1 171.55 65.49"
/>
<path stroke="#8095c6" vector-effect="non-scaling-stroke" d="
  M 162.61 66.24
  Q 163.21 66.61 162.53 66.83
  Q 160.88 67.35 160.26 68.66
  A 0.52 0.51 -58.8 0 0 160.41 69.29
  Q 162.02 70.54 162.58 72.51
  A 0.53 0.53 0.0 0 0 163.56 72.60
  L 164.48 70.75
  Q 164.78 70.14 164.11 70.25
  Q 162.78 70.48 162.06 69.14
  A 0.87 0.87 0.0 0 1 162.71 67.86
  Q 164.17 67.65 165.17 66.69
  Q 165.57 66.31 166.08 66.53
  L 167.06 66.95
  Q 167.59 67.18 167.81 66.66
  Q 167.92 66.40 167.72 66.19
  Q 166.90 65.30 165.86 64.82
  Q 165.26 64.55 165.46 63.92
  L 165.57 63.56
  Q 165.77 62.93 165.11 62.99
  Q 164.42 63.06 163.99 63.62
  Q 163.72 63.98 163.26 63.98
  L 161.07 63.97
  Q 160.48 63.96 160.47 64.56
  Q 160.47 65.19 161.08 65.45
  Q 161.90 65.79 162.61 66.24"
/>
<path stroke="#8095c6" vector-effect="non-scaling-stroke" d="
  M 165.38 120.04
  A 1.14 1.12 -88.5 0 1 166.03 119.41
  L 167.28 118.95
  Q 168.11 118.64 167.29 118.30
  Q 166.01 117.77 164.83 119.38
  A 1.92 1.90 -39.7 0 0 164.64 121.32
  Q 165.45 123.05 167.53 123.19
  C 169.19 123.30 170.13 122.05 171.54 121.42
  Q 172.93 120.80 173.61 122.17
  A 1.20 1.20 0.0 0 1 172.74 123.88
  L 171.11 124.16
  Q 170.19 124.32 171.05 124.67
  L 172.50 125.27
  Q 173.21 125.56 173.27 124.80
  Q 173.30 124.37 173.64 124.12
  C 175.32 122.83 174.04 120.52 172.43 119.89
  C 170.41 119.11 169.51 120.17 167.98 121.07
  Q 167.20 121.52 166.31 121.45
  Q 164.84 121.34 165.38 120.04"
/>
<path stroke="#8095c6" vector-effect="non-scaling-stroke" d="
  M 33.48 121.75
  Q 34.14 123.05 32.93 124.27
  Q 31.86 125.33 33.29 124.85
  L 33.95 124.62
  Q 34.42 124.46 34.48 123.96
  C 35.13 118.69 29.57 118.40 26.36 120.56
  C 23.71 122.35 23.89 125.52 26.90 126.93
  Q 26.95 126.96 26.98 126.90
  L 27.10 126.67
  Q 27.26 126.38 26.96 126.24
  Q 25.60 125.60 25.47 124.18
  A 1.46 1.46 0.0 0 1 26.00 122.92
  Q 28.63 120.76 32.36 121.01
  A 1.35 1.33 -11.0 0 1 33.48 121.75"
/>
<path stroke="#8095c6" vector-effect="non-scaling-stroke" d="
  M 169.54 131.87
  Q 169.57 131.93 169.60 131.99
  Q 169.84 132.69 170.20 132.04
  Q 171.29 130.00 172.15 127.96
  Q 172.38 127.42 171.96 127.02
  Q 171.42 126.51 170.68 126.46
  Q 169.92 126.41 170.48 126.93
  C 171.31 127.69 171.53 128.89 170.45 129.56
  Q 169.97 129.87 169.45 129.62
  L 163.67 126.92
  A 1.02 1.02 0.0 0 1 163.43 125.24
  Q 163.96 124.77 164.67 124.63
  Q 165.27 124.51 164.83 124.09
  Q 164.52 123.80 164.15 123.64
  Q 163.53 123.37 163.25 123.98
  L 161.67 127.47
  Q 161.44 127.97 161.95 128.16
  Q 165.53 129.47 169.17 131.53
  Q 169.39 131.65 169.54 131.87"
/>
<path stroke="#8095c6" vector-effect="non-scaling-stroke" d="
  M 32.20 129.65
  Q 32.35 129.66 32.43 129.53
  Q 33.77 127.59 35.96 127.60
  Q 36.58 127.60 36.30 127.05
  L 35.58 125.68
  Q 35.36 125.26 34.98 125.53
  Q 31.36 128.03 27.15 129.33
  Q 26.48 129.54 26.90 130.11
  Q 27.24 130.55 27.41 131.10
  Q 27.68 132.01 28.33 131.32
  Q 29.98 129.59 32.20 129.65"
/>
<path stroke="#8095c6" vector-effect="non-scaling-stroke" d="
  M 166.35 126.37
  A 0.36 0.36 0.0 0 0 165.90 126.88
  Q 166.51 127.99 167.85 127.76
  Q 169.15 127.53 167.93 127.02
  L 166.35 126.37"
/>
<path stroke="#8095c6" vector-effect="non-scaling-stroke" d="
  M 33.17 130.89
  Q 32.66 130.61 32.53 131.20
  Q 32.41 131.76 31.87 131.97
  L 28.87 133.14
  Q 28.48 133.29 28.65 133.68
  L 29.08 134.65
  Q 29.34 135.25 29.91 134.91
  Q 33.71 132.59 37.74 131.16
  Q 38.26 130.98 37.98 130.50
  L 37.32 129.37
  Q 37.03 128.87 36.61 129.28
  Q 35.44 130.40 33.67 130.94
  A 0.65 0.65 0.0 0 1 33.17 130.89"
/>
<path stroke="#8095c6" vector-effect="non-scaling-stroke" d="
  M 167.28 135.94
  A 1.87 1.86 24.3 0 1 165.30 136.68
  C 163.53 136.23 158.74 133.74 160.23 131.23
  A 1.13 1.10 12.6 0 1 161.09 130.70
  L 162.51 130.60
  Q 163.50 130.52 162.58 130.02
  Q 162.20 129.81 162.02 129.42
  Q 161.77 128.88 161.35 129.30
  L 159.68 130.95
  A 2.70 2.69 57.3 0 0 159.06 133.82
  C 160.12 136.61 164.14 139.76 167.10 137.51
  Q 169.03 136.05 168.11 133.07
  Q 168.10 133.05 168.07 133.05
  L 167.83 133.13
  Q 167.50 133.23 167.61 133.55
  Q 168.05 134.84 167.28 135.94"
/>
<path stroke="#8095c6" vector-effect="non-scaling-stroke" d="
  M 32.09 139.10
  L 39.90 134.16
  A 0.29 0.29 0.0 0 0 39.99 133.76
  L 39.45 132.91
  A 0.60 0.21 57.7 0 0 38.96 132.52
  L 31.01 137.54
  A 0.60 0.21 57.7 0 0 31.15 138.16
  L 31.69 139.01
  A 0.29 0.29 0.0 0 0 32.09 139.10"
/>
<path stroke="#8095c6" vector-effect="non-scaling-stroke" d="
  M 39.75 142.12
  Q 40.61 139.92 41.72 137.74
  Q 42.21 136.77 41.49 135.95
  L 41.21 135.64
  Q 40.39 134.71 40.03 135.89
  Q 38.66 140.40 36.82 144.33
  Q 35.92 146.26 37.63 145.00
  Q 39.00 143.99 40.11 142.87
  Q 40.22 142.76 40.14 142.64
  Q 40.07 142.54 39.94 142.50
  Q 39.64 142.41 39.75 142.12"
/>
<path stroke="#8095c6" vector-effect="non-scaling-stroke" d="
  M 156.60 136.70
  C 157.63 136.86 159.01 137.98 159.84 138.57
  Q 159.99 138.67 160.09 138.53
  L 160.24 138.31
  Q 160.29 138.24 160.21 138.20
  Q 158.38 137.29 157.31 135.65
  Q 156.98 135.13 156.62 135.64
  L 156.32 136.05
  A 0.42 0.41 21.8 0 0 156.60 136.70"
/>
<path stroke="#8095c6" vector-effect="non-scaling-stroke" d="
  M 33.44 141.69
  L 33.71 141.92
  Q 33.78 141.98 33.85 141.92
  L 37.95 138.51
  Q 38.13 138.36 37.99 138.17
  L 37.84 137.97
  A 0.09 0.09 0.0 0 0 37.71 137.96
  Q 35.78 139.84 33.51 141.07
  Q 33.02 141.33 33.44 141.69"
/>
<path stroke="#8095c6" vector-effect="non-scaling-stroke" d="
  M 156.51 140.90
  L 163.57 141.74
  Q 164.60 141.86 163.84 141.15
  Q 162.82 140.20 161.62 139.46
  Q 161.20 139.21 160.72 139.25
  Q 157.76 139.53 155.07 138.83
  A 1.06 1.04 20.6 0 0 153.86 139.37
  L 153.52 140.05
  Q 153.21 140.67 153.90 140.71
  C 154.75 140.77 155.55 141.07 156.12 141.74
  Q 157.53 143.42 159.47 144.46
  Q 160.20 144.85 160.40 145.70
  Q 160.62 146.67 161.23 145.89
  Q 161.34 145.74 161.48 145.60
  Q 161.91 145.16 161.36 144.90
  Q 158.31 143.43 156.26 141.45
  Q 155.57 140.79 156.51 140.90"
/>
<path stroke="#8095c6" vector-effect="non-scaling-stroke" d="
  M 40.93 142.45
  Q 42.71 140.98 44.20 140.60
  Q 44.58 140.51 44.40 140.15
  L 43.97 139.33
  Q 43.62 138.67 43.37 139.37
  C 42.79 140.99 41.39 141.01 40.71 142.27
  Q 40.35 142.93 40.93 142.45"
/>
<path stroke="#8095c6" vector-effect="non-scaling-stroke" d="
  M 43.22 146.20
  L 42.97 148.11
  Q 42.92 148.55 43.24 148.25
  L 45.34 146.33
  Q 46.22 145.53 45.10 145.94
  Q 44.14 146.30 43.22 146.20"
/>
<path stroke="#8095c6" vector-effect="non-scaling-stroke" d="
  M 43.22 146.20
  L 45.82 143.64
  Q 46.37 143.10 46.81 143.72
  Q 47.56 144.76 47.03 145.92
  Q 46.72 146.60 47.41 146.30
  Q 48.39 145.86 48.50 144.99
  Q 48.57 144.47 48.16 144.13
  Q 46.61 142.87 45.45 141.38
  Q 44.80 140.54 44.81 141.61
  Q 44.81 142.02 44.52 142.33
  Q 41.53 145.55 38.61 147.56
  Q 38.17 147.86 38.54 148.25
  C 39.36 149.11 40.25 149.94 41.00 150.84
  Q 41.99 152.05 43.17 150.86
  Q 43.94 150.09 42.87 150.29
  Q 41.50 150.55 40.57 149.35
  Q 40.19 148.86 40.59 148.39
  Q 41.75 147.01 43.22 146.20"
/>
<path stroke="#8095c6" vector-effect="non-scaling-stroke" d="
  M 153.70 146.51
  Q 154.57 146.85 155.15 146.79
  Q 155.95 146.72 155.37 146.16
  L 154.07 144.89
  Q 153.61 144.44 153.64 145.08
  L 153.70 146.51"
/>
<path stroke="#8095c6" vector-effect="non-scaling-stroke" d="
  M 153.70 146.51
  Q 152.11 145.86 151.05 144.37
  Q 150.71 143.89 151.05 143.42
  Q 151.89 142.25 153.32 142.96
  Q 153.94 143.28 153.56 142.69
  L 152.84 141.61
  A 0.58 0.58 0.0 0 0 151.93 141.53
  L 149.07 144.63
  Q 148.69 145.05 149.16 145.37
  Q 152.92 147.82 155.53 151.35
  Q 155.83 151.75 156.17 151.38
  L 158.97 148.23
  Q 159.43 147.71 159.03 147.14
  Q 158.63 146.57 157.91 146.25
  Q 157.27 145.97 157.62 146.58
  Q 158.47 148.05 157.10 149.17
  Q 156.63 149.56 156.14 149.20
  Q 154.56 148.04 153.70 146.51"
/>
<path stroke="#8095c6" vector-effect="non-scaling-stroke" d="
  M 154.07 153.08
  Q 150.44 150.03 147.76 146.40
  Q 147.59 146.17 147.36 146.35
  L 146.28 147.21
  Q 146.14 147.33 146.26 147.46
  L 152.56 154.53
  Q 152.70 154.68 152.85 154.54
  L 154.08 153.34
  Q 154.22 153.20 154.07 153.08"
/>
<path stroke="#8095c6" vector-effect="non-scaling-stroke" d="
  M 50.83 147.61
  Q 51.50 147.85 51.46 148.57
  Q 51.42 149.32 51.11 150.00
  Q 50.82 150.65 51.47 150.37
  Q 53.36 149.59 52.16 147.94
  Q 50.51 145.66 48.38 147.36
  C 45.58 149.59 48.53 152.02 47.29 154.01
  Q 46.85 154.73 45.97 154.61
  A 1.10 1.09 -4.8 0 1 45.09 153.87
  Q 44.73 152.73 45.33 151.59
  Q 45.74 150.81 44.95 151.21
  Q 43.72 151.85 43.85 153.37
  A 1.91 1.91 0.0 0 0 45.11 155.00
  Q 47.90 156.00 49.17 153.72
  C 50.09 152.08 49.16 150.24 49.29 148.48
  Q 49.35 147.65 50.17 147.54
  Q 50.51 147.49 50.83 147.61"
/>
<path stroke="#8095c6" vector-effect="non-scaling-stroke" d="
  M 149.36 156.51
  A 1.89 1.89 0.0 0 1 146.76 157.17
  C 145.03 156.13 142.17 153.13 143.20 150.91
  Q 143.74 149.76 144.94 149.92
  A 1.78 1.72 -20.5 0 1 145.79 150.29
  Q 145.95 150.43 146.17 150.45
  Q 146.76 150.53 146.45 150.03
  L 145.81 148.98
  Q 145.52 148.49 145.07 148.84
  Q 144.33 149.42 143.42 149.65
  C 141.68 150.08 141.47 152.71 141.88 154.06
  C 142.58 156.41 145.42 159.56 148.20 158.39
  Q 150.15 157.58 150.44 155.39
  Q 150.47 155.23 150.31 155.20
  L 150.03 155.15
  Q 149.59 155.07 149.61 155.51
  Q 149.63 156.05 149.36 156.51"
/>
<path stroke="#8095c6" vector-effect="non-scaling-stroke" d="
  M 53.01 155.65
  L 52.99 156.45
  Q 52.97 157.45 53.58 156.65
  L 54.79 155.07
  Q 55.40 154.28 54.43 154.49
  Q 54.05 154.57 53.71 154.71
  Q 52.91 155.04 53.29 154.26
  Q 54.00 152.80 55.28 151.85
  A 0.62 0.61 -41.7 0 1 56.06 151.89
  Q 57.14 152.91 56.73 154.31
  Q 56.52 155.03 57.12 154.57
  Q 57.79 154.06 57.97 153.28
  Q 58.11 152.69 57.61 152.33
  L 54.65 150.21
  A 0.64 0.64 0.0 0 0 53.72 150.43
  Q 51.57 154.37 48.62 157.15
  Q 48.30 157.45 48.65 157.72
  L 52.03 160.34
  Q 52.39 160.62 52.80 160.40
  Q 53.43 160.07 53.80 159.31
  Q 54.11 158.66 53.45 158.95
  Q 52.22 159.48 51.08 158.79
  A 0.87 0.87 0.0 0 1 50.78 157.59
  Q 51.45 156.48 52.43 155.41
  Q 53.04 154.76 53.01 155.65"
/>
<path stroke="#8095c6" vector-effect="non-scaling-stroke" d="
  M 137.09 155.66
  Q 137.24 154.06 138.76 154.31
  Q 139.27 154.39 139.57 154.78
  Q 139.68 154.92 139.85 154.98
  Q 140.45 155.18 140.29 154.57
  Q 140.12 153.86 140.03 153.80
  A 2.39 2.39 0.0 0 0 136.31 155.29
  C 135.94 157.14 137.65 158.92 139.52 159.01
  Q 140.80 159.07 142.05 159.40
  A 1.33 1.33 0.0 0 1 142.75 161.51
  Q 142.21 162.19 141.27 162.05
  Q 140.84 161.99 140.53 161.69
  Q 140.15 161.32 139.66 161.11
  Q 138.91 160.79 139.34 161.48
  L 140.08 162.68
  Q 140.39 163.18 140.95 163.05
  C 142.96 162.58 144.81 161.09 143.47 158.94
  Q 141.80 156.27 138.24 156.76
  A 1.01 1.01 0.0 0 1 137.09 155.66"
/>
<path stroke="#8095c6" vector-effect="non-scaling-stroke" d="
  M 62.32 162.84
  Q 62.03 162.29 62.13 161.68
  Q 62.24 160.94 61.67 161.43
  L 58.77 163.98
  A 0.48 0.47 40.0 0 0 58.84 164.75
  Q 59.10 164.90 59.42 164.81
  Q 59.93 164.67 60.02 164.16
  Q 60.30 162.71 61.86 162.90
  A 1.36 1.34 73.9 0 1 62.73 163.39
  Q 63.65 164.54 62.71 165.59
  A 0.72 0.71 -55.5 0 0 62.91 166.70
  L 63.86 167.19
  Q 64.49 167.52 64.57 166.81
  Q 65.08 162.48 66.01 158.11
  Q 66.32 156.64 65.28 157.73
  Q 63.92 159.17 62.73 160.47
  Q 62.48 160.75 62.84 160.61
  Q 62.96 160.57 63.05 160.49
  A 0.30 0.30 0.0 0 1 63.52 160.61
  Q 63.94 161.70 63.30 162.85
  Q 62.80 163.74 62.32 162.84"
/>
<path stroke="#8095c6" vector-effect="non-scaling-stroke" d="
  M 130.28 163.80
  L 131.19 164.37
  Q 132.05 164.90 131.64 163.97
  L 130.77 162.00
  Q 130.48 161.35 130.27 162.02
  L 130.05 162.71
  Q 129.63 164.01 129.01 162.79
  L 128.10 160.99
  A 1.17 1.16 -12.9 0 1 129.16 159.30
  Q 130.31 159.32 130.90 160.17
  Q 131.22 160.61 131.18 160.07
  Q 131.13 159.21 130.69 158.51
  A 0.77 0.77 0.0 0 0 129.69 158.23
  L 126.20 160.00
  Q 125.70 160.25 126.00 160.73
  Q 128.27 164.37 129.45 168.56
  Q 129.58 169.03 130.06 168.93
  Q 130.76 168.77 131.28 168.28
  A 0.68 0.67 49.1 0 0 131.34 167.35
  Q 130.19 165.96 129.69 164.24
  Q 129.41 163.26 130.28 163.80"
/>
<path stroke="#8095c6" vector-effect="non-scaling-stroke" d="
  M 73.49 162.08
  L 73.65 163.32
  Q 73.75 164.11 74.22 163.47
  Q 74.70 162.82 74.74 162.06
  Q 74.76 161.56 74.35 161.26
  C 66.51 155.43 62.98 172.60 71.74 169.20
  A 0.08 0.08 0.0 0 0 71.78 169.10
  L 71.67 168.87
  Q 71.51 168.52 71.18 168.73
  C 69.63 169.75 67.93 168.30 68.16 166.55
  C 68.38 164.77 70.12 159.75 72.83 161.13
  Q 73.41 161.43 73.49 162.08"
/>
<path stroke="#8095c6" vector-effect="non-scaling-stroke" d="
  M 124.5031 171.2726
  A 5.12 3.69 71.4 0 0 126.3673 165.2430
  A 5.12 3.69 71.4 0 0 121.2369 161.5674
  A 5.12 3.69 71.4 0 0 119.3727 167.5970
  A 5.12 3.69 71.4 0 0 124.5031 171.2726"
/>
<path stroke="#8095c6" vector-effect="non-scaling-stroke" d="
  M 77.51 166.86
  Q 77.21 168.52 77.46 170.18
  Q 77.55 170.75 77.25 171.22
  Q 77.13 171.41 76.95 171.56
  A 0.25 0.24 33.7 0 0 77.04 171.98
  L 78.69 172.50
  Q 79.30 172.70 79.28 172.06
  L 79.00 163.04
  Q 78.97 162.08 78.43 162.87
  L 73.21 170.49
  Q 72.85 171.03 73.50 171.07
  Q 73.66 171.09 73.82 171.09
  Q 74.38 171.11 74.39 170.56
  Q 74.40 168.79 76.13 168.75
  Q 77.16 168.72 76.25 168.23
  L 75.99 168.09
  Q 75.40 167.78 75.76 167.22
  Q 76.16 166.60 76.87 166.32
  Q 77.67 166.02 77.51 166.86"
/>
<path stroke="#8095c6" vector-effect="non-scaling-stroke" d="
  M 83.11 163.80
  L 81.45 173.01
  A 0.24 0.24 0.0 0 0 81.64 173.29
  L 83.55 173.64
  A 4.25 3.94 -79.8 0 0 88.18 170.15
  L 88.42 168.83
  A 4.25 3.94 -79.8 0 0 85.30 163.95
  L 83.39 163.61
  A 0.24 0.24 0.0 0 0 83.11 163.80"
/>
<path stroke="#8095c6" vector-effect="non-scaling-stroke" d="
  M 111.35 168.21
  C 111.85 166.98 112.11 165.67 112.53 164.41
  Q 112.71 163.86 112.15 164.02
  L 111.58 164.19
  A 0.36 0.36 0.0 0 0 111.32 164.55
  Q 111.41 166.29 111.34 168.21
  Q 111.34 168.32 111.36 168.22
  Q 111.38 168.14 111.34 168.24
  Q 111.30 168.31 111.35 168.21"
/>
<path stroke="#8095c6" vector-effect="non-scaling-stroke" d="
  M 92.23 170.18
  L 92.77 170.83
  Q 93.27 171.43 93.35 170.65
  L 93.53 169.00
  Q 93.61 168.32 93.07 168.74
  L 92.74 169.00
  Q 91.69 169.82 91.80 168.49
  L 91.99 166.23
  Q 92.03 165.68 92.58 165.55
  Q 92.99 165.46 93.38 165.56
  Q 94.05 165.74 94.25 166.41
  Q 94.34 166.71 94.46 167.00
  Q 94.83 167.82 95.15 166.98
  Q 95.51 166.02 95.00 165.45
  Q 94.52 164.91 93.75 164.95
  Q 92.21 165.04 90.71 164.80
  Q 90.13 164.70 90.17 165.29
  Q 90.44 169.78 89.36 173.98
  Q 89.23 174.48 89.74 174.55
  L 93.73 175.04
  A 0.90 0.89 17.7 0 0 94.62 174.59
  Q 95.01 173.88 94.97 173.04
  Q 94.94 172.14 94.52 172.94
  Q 93.70 174.51 92.12 174.41
  Q 91.39 174.36 91.45 173.63
  L 91.73 170.34
  Q 91.79 169.65 92.23 170.18"
/>
<path stroke="#8095c6" vector-effect="non-scaling-stroke" d="
  M 110.12 168.69
  Q 108.70 167.05 108.46 165.17
  A 0.48 0.47 85.2 0 0 107.98 164.76
  L 106.52 164.80
  Q 105.76 164.82 106.16 165.48
  C 107.63 167.90 109.97 170.98 109.37 173.93
  Q 109.22 174.65 109.91 174.39
  Q 110.42 174.20 110.95 174.25
  Q 111.67 174.33 111.54 173.61
  L 110.75 169.30
  A 0.55 0.54 5.6 0 0 110.39 168.87
  Q 110.23 168.82 110.12 168.69"
/>
<path stroke="#8095c6" vector-effect="non-scaling-stroke" d="
  M 102.29 166.82
  Q 103.32 171.46 102.81 174.74
  Q 102.78 174.98 103.02 174.98
  L 104.79 174.97
  Q 105.06 174.97 105.03 174.71
  Q 104.42 169.90 104.66 165.43
  Q 104.68 164.95 104.21 165.02
  L 103.43 165.15
  A 1.40 1.39 -10.8 0 0 102.29 166.82"
/>
<path stroke="#8095c6" vector-effect="non-scaling-stroke" d="
  M 100.29 174.28
  A 0.33 0.33 0.0 0 0 100.92 174.21
  L 101.29 172.02
  A 0.33 0.33 0.0 0 0 101.27 171.85
  L 98.89 165.60
  A 0.33 0.33 0.0 0 0 98.62 165.39
  L 97.09 165.25
  A 0.33 0.33 0.0 0 0 96.76 165.70
  L 100.29 174.28"
/>
<path stroke="#8095c6" vector-effect="non-scaling-stroke" d="
  M 97.19 169.74
  Q 97.12 169.57 97.13 169.38
  Q 97.13 169.37 97.13 169.37
  Q 97.13 169.37 97.13 169.37
  Q 97.19 169.38 97.18 169.44
  Q 96.89 171.00 97.32 172.53
  Q 97.35 172.65 97.38 172.53
  Q 97.72 171.14 97.19 169.74"
/>
<path stroke="#8095c6" vector-effect="non-scaling-stroke" d="
  M 97.04 174.04
  L 96.68 174.44
  Q 95.95 175.22 97.01 175.09
  L 97.92 174.97
  A 0.33 0.33 0.0 0 0 98.09 174.40
  Q 97.96 174.30 97.91 174.15
  Q 97.66 173.38 97.04 174.04"
/>
<path stroke="#8095c6" vector-effect="non-scaling-stroke" d="
  M 100.63 20.01
  Q 100.34 20.10 100.19 20.36
  A 0.41 0.41 0.0 0 0 100.53 20.98
  Q 101.73 20.99 101.78 19.70
  A 0.23 0.23 0.0 0 0 101.49 19.47
  Q 101.27 19.54 101.12 19.70
  Q 100.91 19.92 100.63 20.01"
/>
<path stroke="#8095c6" vector-effect="non-scaling-stroke" d="
  M 57.83 34.09
  Q 58.31 32.47 59.48 32.04
  Q 60.50 31.67 60.11 32.68
  L 59.49 34.24
  Q 59.30 34.73 59.58 35.17
  L 60.55 36.72
  Q 61.03 37.47 60.33 38.04
  L 58.38 39.63
  Q 57.87 40.04 58.48 40.28
  C 60.38 41.01 62.83 38.77 63.91 37.47
  A 1.03 1.03 0.0 0 0 63.97 36.25
  Q 61.15 31.94 58.57 28.05
  Q 57.16 25.94 54.70 26.08
  A 1.21 1.18 13.4 0 0 53.75 26.65
  L 51.79 29.92
  A 0.80 0.80 0.0 0 0 52.59 31.13
  L 54.50 30.88
  A 0.45 0.44 81.4 0 1 55.00 31.25
  L 55.07 31.65
  Q 55.14 32.08 55.54 32.24
  Q 56.86 32.80 57.40 33.99
  Q 58.00 35.29 56.70 34.69
  L 55.48 34.12
  Q 54.79 33.80 55.25 34.41
  Q 56.05 35.47 57.50 35.64
  Q 58.02 35.70 58.06 35.18
  Q 58.08 34.98 57.96 34.83
  Q 57.71 34.49 57.83 34.09"
/>
<path stroke="#8095c6" vector-effect="non-scaling-stroke" d="
  M 53.38 37.77
  Q 54.10 38.10 54.63 38.74
  A 0.11 0.11 0.0 0 0 54.82 38.62
  Q 54.34 37.61 54.39 36.69
  Q 54.41 36.32 54.06 36.21
  Q 53.04 35.87 53.27 34.82
  Q 53.40 34.22 52.91 33.87
  Q 52.14 33.31 51.69 32.43
  A 0.16 0.16 0.0 0 0 51.40 32.56
  Q 52.16 34.37 51.35 35.68
  Q 51.13 36.05 51.26 36.47
  Q 52.26 39.46 53.97 41.60
  Q 54.61 42.39 54.45 41.39
  Q 54.20 39.83 52.89 38.46
  Q 51.34 36.84 53.38 37.77"
/>
<path stroke="#8095c6" vector-effect="non-scaling-stroke" d="
  M 59.22 37.15
  Q 59.44 36.78 59.02 36.78
  Q 58.35 36.79 57.86 37.17
  Q 57.29 37.61 58.00 37.74
  Q 58.78 37.88 59.22 37.15"
/>
<path stroke="#8095c6" vector-effect="non-scaling-stroke" d="
  M 57.3541 31.0857
  A 1.18 0.82 32.6 0 0 56.8018 29.7592
  A 1.18 0.82 32.6 0 0 55.3659 29.8143
  A 1.18 0.82 32.6 0 0 55.9182 31.1408
  A 1.18 0.82 32.6 0 0 57.3541 31.0857"
/>
<path stroke="#8095c6" vector-effect="non-scaling-stroke" d="
  M 158.68 95.85
  A 60.52 60.52 0.0 0 0 98.16 35.33
  A 60.52 60.52 0.0 0 0 37.64 95.85
  A 60.52 60.52 0.0 0 0 98.16 156.37
  A 60.52 60.52 0.0 0 0 158.68 95.85"
/>
<path stroke="#8095c6" vector-effect="non-scaling-stroke" d="
  M 157.70 95.86
  A 59.56 59.56 0.0 0 0 98.14 36.30
  A 59.56 59.56 0.0 0 0 38.58 95.86
  A 59.56 59.56 0.0 0 0 98.14 155.42
  A 59.56 59.56 0.0 0 0 157.70 95.86"
/>
<path stroke="#8095c6" vector-effect="non-scaling-stroke" d="
  M 57.78 126.19
  A 0.31 0.31 0.0 0 0 58.02 126.24
  L 83.89 121.27
  A 0.31 0.31 0.0 0 1 84.24 121.68
  L 79.00 136.79
  A 0.31 0.31 0.0 0 0 79.03 137.04
  L 87.67 152.98
  A 0.31 0.31 0.0 0 0 88.07 153.12
  L 104.72 145.92
  A 0.31 0.31 0.0 0 0 104.89 145.74
  L 113.33 121.22
  A 0.31 0.31 0.0 0 1 113.86 121.12
  L 124.30 133.23
  A 0.31 0.31 0.0 0 0 124.53 133.33
  L 142.66 133.79
  A 0.31 0.31 0.0 0 0 142.97 133.52
  L 145.00 115.44
  A 0.31 0.31 0.0 0 0 144.93 115.20
  L 127.76 95.42
  A 0.31 0.31 0.0 0 1 127.94 94.91
  L 143.98 91.84
  A 0.31 0.31 0.0 0 0 144.18 91.69
  L 153.60 76.26
  A 0.31 0.31 0.0 0 0 153.52 75.85
  L 139.03 65.06
  A 0.31 0.31 0.0 0 0 138.79 65.01
  L 112.83 69.95
  A 0.31 0.31 0.0 0 1 112.48 69.54
  L 117.84 54.24
  A 0.31 0.31 0.0 0 0 117.82 53.99
  L 109.20 38.05
  A 0.31 0.31 0.0 0 0 108.81 37.91
  L 92.13 45.10
  A 0.31 0.31 0.0 0 0 91.96 45.28
  L 83.35 70.16
  A 0.31 0.31 0.0 0 1 82.82 70.26
  L 72.37 58.15
  A 0.31 0.31 0.0 0 0 72.14 58.05
  L 53.96 57.42
  A 0.31 0.31 0.0 0 0 53.64 57.69
  L 51.54 75.83
  A 0.31 0.31 0.0 0 0 51.61 76.07
  L 68.82 95.87
  A 0.31 0.31 0.0 0 1 68.64 96.38
  L 52.88 99.33
  A 0.31 0.31 0.0 0 0 52.67 99.48
  L 43.16 114.97
  A 0.31 0.31 0.0 0 0 43.24 115.38
  L 57.78 126.19"
/>
<path stroke="#8095c6" vector-effect="non-scaling-stroke" d="
  M 99.43 76.06
  A 3.30 3.30 0.0 0 0 96.13 72.76
  A 3.30 3.30 0.0 0 0 92.83 76.06
  A 3.30 3.30 0.0 0 0 96.13 79.36
  A 3.30 3.30 0.0 0 0 99.43 76.06"
/>
<path stroke="#8095c6" vector-effect="non-scaling-stroke" d="
  M 118.15 83.92
  A 3.32 3.32 0.0 0 0 114.83 80.60
  A 3.32 3.32 0.0 0 0 111.51 83.92
  A 3.32 3.32 0.0 0 0 114.83 87.24
  A 3.32 3.32 0.0 0 0 118.15 83.92"
/>
<path stroke="#8095c6" vector-effect="non-scaling-stroke" d="
  M 87.70 97.71
  Q 86.96 97.54 86.18 97.61
  Q 85.28 97.68 86.01 98.21
  L 94.92 104.76
  Q 95.50 105.19 95.01 105.72
  Q 94.51 106.26 94.18 106.93
  Q 93.71 107.87 94.67 107.45
  L 104.45 103.14
  Q 104.90 102.95 105.29 103.23
  Q 105.93 103.69 106.11 104.56
  Q 106.16 104.76 106.35 104.83
  Q 106.51 104.88 106.65 104.82
  Q 106.84 104.75 106.85 104.55
  L 107.87 94.12
  A 0.67 0.67 0.0 0 1 108.67 93.53
  Q 109.63 93.71 110.62 93.62
  Q 111.63 93.53 110.80 92.94
  L 101.69 86.36
  A 0.50 0.50 0.0 0 1 101.61 85.61
  Q 101.96 85.22 102.28 84.81
  Q 103.89 82.80 101.53 83.83
  L 92.27 87.89
  Q 91.51 88.22 91.18 87.46
  L 90.79 86.54
  Q 89.95 84.60 89.73 86.70
  L 88.66 97.01
  Q 88.57 97.89 87.70 97.71"
/>
<path stroke="#8095c6" vector-effect="non-scaling-stroke" d="
  M 83.30 87.40
  A 3.31 3.31 0.0 0 0 79.99 84.09
  A 3.31 3.31 0.0 0 0 76.68 87.40
  A 3.31 3.31 0.0 0 0 79.99 90.71
  A 3.31 3.31 0.0 0 0 83.30 87.40"
/>
<path stroke="#8095c6" vector-effect="non-scaling-stroke" d="
  M 120.14 104.17
  A 3.32 3.32 0.0 0 0 116.82 100.85
  A 3.32 3.32 0.0 0 0 113.50 104.17
  A 3.32 3.32 0.0 0 0 116.82 107.49
  A 3.32 3.32 0.0 0 0 120.14 104.17"
/>
<path stroke="#8095c6" vector-effect="non-scaling-stroke" d="
  M 85.28 107.49
  A 3.31 3.31 0.0 0 0 81.97 104.18
  A 3.31 3.31 0.0 0 0 78.66 107.49
  A 3.31 3.31 0.0 0 0 81.97 110.80
  A 3.31 3.31 0.0 0 0 85.28 107.49"
/>
<path stroke="#8095c6" vector-effect="non-scaling-stroke" d="
  M 103.44 115.89
  A 3.32 3.32 0.0 0 0 100.12 112.57
  A 3.32 3.32 0.0 0 0 96.80 115.89
  A 3.32 3.32 0.0 0 0 100.12 119.21
  A 3.32 3.32 0.0 0 0 103.44 115.89"
/>
<path stroke="#8095c6" vector-effect="non-scaling-stroke" d="
  M 27.95 61.71
  Q 27.91 61.49 27.77 61.32
  A 0.39 0.39 0.0 0 0 27.13 61.38
  Q 26.42 62.71 27.88 63.24
  A 0.46 0.45 -78.1 0 0 28.49 62.84
  Q 28.52 62.45 28.19 62.15
  Q 27.99 61.97 27.95 61.71"
/>
<path stroke="#8095c6" vector-effect="non-scaling-stroke" d="
  M 104.10 95.69
  A 6.00 6.00 0.0 0 0 98.10 89.69
  A 6.00 6.00 0.0 0 0 92.10 95.69
  A 6.00 6.00 0.0 0 0 98.10 101.69
  A 6.00 6.00 0.0 0 0 104.10 95.69"
/>
<path stroke="#8095c6" vector-effect="non-scaling-stroke" d="
  M 124.3104 170.6999
  A 4.50 1.85 71.6 0 0 124.6454 165.8460
  A 4.50 1.85 71.6 0 0 121.4696 162.1601
  A 4.50 1.85 71.6 0 0 121.1346 167.0140
  A 4.50 1.85 71.6 0 0 124.3104 170.6999"
/>
<path stroke="#8095c6" vector-effect="non-scaling-stroke" d="
  M 84.81 164.81
  L 83.38 172.82
  A 0.15 0.15 0.0 0 0 83.51 172.99
  L 83.57 173.01
  A 3.35 2.14 -79.9 0 0 86.27 170.08
  L 86.57 168.37
  A 3.35 2.14 -79.9 0 0 85.05 164.70
  L 84.99 164.68
  A 0.15 0.15 0.0 0 0 84.81 164.81"
/>
</g>
<path fill="#ffffff" d="
  M 0.00 0.00
  L 200.00 0.00
  L 200.00 195.00
  L 0.00 195.00
  L 0.00 0.00
  Z
  M 188.67 95.07
  A 89.76 89.76 0.0 0 0 98.91 5.31
  A 89.76 89.76 0.0 0 0 9.15 95.07
  A 89.76 89.76 0.0 0 0 98.91 184.83
  A 89.76 89.76 0.0 0 0 188.67 95.07
  Z"
/>
<path fill="#002a8c" d="
  M 188.67 95.07
  A 89.76 89.76 0.0 0 1 98.91 184.83
  A 89.76 89.76 0.0 0 1 9.15 95.07
  A 89.76 89.76 0.0 0 1 98.91 5.31
  A 89.76 89.76 0.0 0 1 188.67 95.07
  Z
  M 187.71 95.06
  A 88.78 88.78 0.0 0 0 98.93 6.28
  A 88.78 88.78 0.0 0 0 10.15 95.06
  A 88.78 88.78 0.0 0 0 98.93 183.84
  A 88.78 88.78 0.0 0 0 187.71 95.06
  Z"
/>
<path fill="#ffffff" d="
  M 187.71 95.06
  A 88.78 88.78 0.0 0 1 98.93 183.84
  A 88.78 88.78 0.0 0 1 10.15 95.06
  A 88.78 88.78 0.0 0 1 98.93 6.28
  A 88.78 88.78 0.0 0 1 187.71 95.06
  Z
  M 185.48 95.08
  A 86.54 86.54 0.0 0 0 98.94 8.54
  A 86.54 86.54 0.0 0 0 12.40 95.08
  A 86.54 86.54 0.0 0 0 98.94 181.62
  A 86.54 86.54 0.0 0 0 185.48 95.08
  Z"
/>
<path fill="#002a8c" d="
  M 185.48 95.08
  A 86.54 86.54 0.0 0 1 98.94 181.62
  A 86.54 86.54 0.0 0 1 12.40 95.08
  A 86.54 86.54 0.0 0 1 98.94 8.54
  A 86.54 86.54 0.0 0 1 185.48 95.08
  Z
  M 93.33 18.31
  L 97.31 13.99
  Q 98.29 12.92 96.87 12.63
  Q 95.84 12.42 95.67 13.53
  Q 95.56 14.29 95.02 14.85
  Q 93.23 16.73 91.49 18.84
  Q 89.80 20.88 92.39 20.28
  Q 93.25 20.08 94.22 20.16
  Q 94.85 20.21 94.98 20.84
  Q 95.12 21.53 94.96 22.27
  Q 94.83 22.89 94.24 22.69
  Q 93.91 22.58 93.74 22.29
  Q 93.44 21.74 92.91 22.06
  Q 91.34 23.01 91.80 25.20
  A 0.40 0.40 0.0 0 0 92.41 25.45
  Q 93.04 25.06 93.47 24.47
  Q 93.80 24.00 94.38 24.01
  Q 94.52 24.01 94.63 24.09
  Q 95.12 24.48 95.13 25.13
  Q 95.13 25.89 95.73 26.13
  Q 97.06 26.66 96.68 25.28
  Q 96.00 22.83 97.05 21.22
  Q 97.28 20.88 96.98 20.60
  Q 96.22 19.91 97.16 19.40
  A 0.99 0.99 0.0 0 0 97.63 18.83
  Q 97.90 17.98 97.29 17.70
  Q 96.51 17.34 96.06 18.07
  Q 95.18 19.48 93.60 19.16
  Q 92.72 18.98 93.33 18.31
  Z
  M 100.69 22.39
  A 0.54 0.54 0.0 0 1 101.51 22.90
  Q 101.21 26.06 101.51 28.77
  Q 101.62 29.79 101.95 28.81
  Q 103.06 25.45 103.68 22.18
  Q 103.78 21.66 104.21 21.36
  L 104.78 20.96
  Q 105.35 20.57 104.97 19.99
  C 103.81 18.21 104.29 16.52 104.29 14.52
  Q 104.29 13.97 103.91 13.58
  Q 103.54 13.21 103.02 13.32
  Q 102.47 13.45 102.17 13.92
  Q 101.50 14.96 100.32 14.64
  Q 99.89 14.52 99.75 14.94
  Q 99.64 15.25 99.82 15.52
  Q 100.14 16.02 99.87 16.54
  Q 99.26 17.72 99.57 19.00
  Q 99.70 19.52 99.35 19.93
  Q 98.45 20.97 98.21 22.20
  Q 97.84 24.13 99.52 23.10
  L 100.69 22.39
  Z
  M 143.05 24.00
  A 0.37 0.36 -8.4 0 0 142.52 23.61
  C 141.53 24.13 140.02 25.53 140.59 26.79
  A 1.05 1.04 -51.8 0 0 142.57 26.55
  L 143.05 24.00
  Z
  M 55.60 38.54
  Q 55.97 38.33 56.18 37.96
  Q 56.96 36.58 57.07 38.16
  Q 57.16 39.34 56.48 40.26
  Q 56.18 40.67 56.66 40.83
  C 60.12 42.03 62.89 40.54 65.34 38.23
  A 1.22 1.21 -40.6 0 0 65.47 36.60
  Q 62.30 32.45 59.61 28.06
  C 58.08 25.54 55.51 23.40 52.88 26.36
  Q 49.73 29.93 50.48 34.81
  Q 50.50 34.97 50.45 35.11
  Q 50.39 35.31 50.22 35.43
  Q 49.85 35.70 50.07 36.10
  L 54.47 44.19
  Q 54.80 44.80 55.42 44.49
  L 55.72 44.35
  Q 56.15 44.13 55.98 43.67
  Q 55.20 41.57 55.20 39.22
  A 0.78 0.77 75.7 0 1 55.60 38.54
  Z
  M 147.44 30.00
  Q 142.51 30.07 138.35 28.54
  Q 137.79 28.33 137.44 28.82
  L 135.54 31.48
  A 0.44 0.43 13.4 0 0 135.96 32.16
  Q 137.29 31.97 138.36 31.19
  C 139.95 30.05 142.14 30.22 143.81 31.08
  Q 144.23 31.30 144.34 31.75
  Q 144.82 33.77 142.68 34.80
  Q 142.31 34.98 142.65 35.22
  L 143.09 35.53
  A 0.21 0.21 0.0 0 0 143.30 35.55
  Q 145.83 34.42 145.69 31.56
  Q 145.66 30.97 146.24 30.98
  Q 147.43 31.01 148.50 31.45
  A 0.64 0.64 0.0 0 0 149.37 30.97
  L 149.58 29.81
  Q 149.70 29.21 149.10 29.07
  Q 147.03 28.61 145.80 26.63
  A 0.54 0.54 0.0 0 0 144.91 26.58
  Q 144.49 27.14 144.49 27.80
  Q 144.49 28.63 145.32 28.68
  L 147.38 28.82
  Q 147.65 28.84 147.85 29.04
  Q 148.00 29.20 148.01 29.41
  Q 148.02 29.99 147.44 30.00
  Z
  M 137.12 37.82
  Q 134.63 36.82 133.36 34.84
  Q 132.80 33.97 132.11 34.82
  A 0.71 0.70 37.5 0 0 132.25 35.84
  L 136.14 38.61
  Q 136.52 38.88 136.45 39.34
  Q 136.41 39.62 136.16 39.82
  Q 135.70 40.20 135.12 40.01
  Q 133.44 39.46 132.16 37.78
  Q 132.10 37.71 132.00 37.73
  Q 131.87 37.77 131.74 37.85
  Q 131.55 37.97 131.66 38.16
  Q 134.06 42.43 137.19 40.05
  Q 137.60 39.74 138.06 39.97
  L 139.85 40.90
  Q 140.97 41.47 140.38 40.36
  Q 140.06 39.75 139.43 39.39
  A 1.61 1.61 0.0 0 1 138.93 37.04
  Q 139.78 35.90 140.98 35.28
  A 0.80 0.79 62.9 0 0 141.32 34.22
  Q 140.41 32.38 138.29 32.39
  Q 137.57 32.39 137.88 33.05
  Q 138.17 33.65 138.81 33.97
  A 0.79 0.79 0.0 0 1 138.82 35.38
  Q 137.54 36.03 137.69 37.39
  Q 137.76 38.07 137.12 37.82
  Z
  M 160.80 95.84
  A 62.64 62.64 0.0 0 0 98.16 33.20
  A 62.64 62.64 0.0 0 0 35.52 95.84
  A 62.64 62.64 0.0 0 0 98.16 158.48
  A 62.64 62.64 0.0 0 0 160.80 95.84
  Z
  M 164.62 57.39
  Q 164.30 56.99 164.27 56.49
  A 1.08 1.08 0.0 0 0 162.95 55.50
  L 157.52 56.78
  Q 156.34 57.06 155.96 58.21
  L 155.42 59.87
  Q 154.98 61.21 156.36 60.87
  L 160.54 59.83
  Q 161.09 59.69 161.52 59.31
  L 162.88 58.13
  Q 163.69 57.42 163.71 58.49
  L 163.72 59.08
  Q 163.74 59.74 164.40 59.72
  C 166.88 59.64 166.52 56.96 168.82 56.41
  Q 169.37 56.27 169.26 55.71
  Q 169.01 54.53 168.15 53.90
  Q 166.53 52.70 166.74 54.71
  Q 166.93 56.55 165.29 57.52
  A 0.53 0.53 0.0 0 1 164.62 57.39
  Z
  M 24.77 61.71
  L 24.38 61.48
  Q 23.87 61.18 23.33 61.43
  Q 22.37 61.89 21.78 62.56
  Q 20.31 64.25 22.55 64.24
  C 26.45 64.23 26.40 67.58 27.41 70.22
  Q 27.79 71.22 26.73 71.05
  L 25.00 70.77
  A 0.35 0.35 0.0 0 0 24.60 71.04
  L 24.54 71.33
  A 0.64 0.64 0.0 0 0 24.95 72.06
  Q 27.30 72.93 29.17 72.60
  Q 30.19 72.42 30.05 71.35
  Q 29.97 70.79 29.49 70.51
  Q 27.88 69.57 28.34 67.52
  Q 28.44 67.10 28.85 67.24
  L 30.08 67.66
  Q 30.73 67.88 30.54 68.54
  L 30.28 69.48
  Q 30.07 70.20 30.78 69.97
  Q 31.47 69.75 31.77 69.08
  A 0.71 0.70 -63.9 0 1 32.75 68.74
  Q 34.82 69.82 36.87 70.15
  Q 37.88 70.31 37.08 69.67
  Q 34.74 67.79 32.48 65.84
  C 31.40 64.91 31.53 63.84 31.63 62.58
  Q 31.66 62.25 31.48 61.99
  Q 31.39 61.87 31.17 61.90
  Q 30.88 61.93 30.71 62.19
  Q 30.37 62.72 29.73 62.63
  Q 29.20 62.56 29.12 62.03
  L 28.57 58.51
  A 0.65 0.65 0.0 0 0 27.54 58.08
  Q 26.29 58.99 26.22 60.92
  Q 26.16 62.53 24.77 61.71
  Z
  M 173.71 62.34
  A 0.57 0.57 0.0 0 0 174.46 61.74
  L 174.25 59.81
  Q 174.17 59.10 173.61 59.54
  L 172.41 60.47
  A 0.70 0.70 0.0 0 0 172.38 61.55
  Q 172.97 62.08 173.71 62.34
  Z
  M 171.55 65.49
  C 169.90 65.62 168.35 63.96 167.22 62.94
  A 0.51 0.51 0.0 0 0 166.67 62.86
  L 166.16 63.10
  Q 165.72 63.30 166.07 63.63
  C 167.40 64.89 170.88 67.63 172.78 66.27
  Q 174.09 65.33 172.98 64.16
  Q 171.69 62.80 170.01 61.93
  A 0.87 0.86 -66.0 0 1 169.61 60.87
  L 169.85 60.21
  Q 170.09 59.57 169.41 59.50
  Q 167.43 59.32 166.22 60.25
  Q 164.17 61.81 166.73 62.07
  Q 169.52 62.36 171.88 64.51
  A 0.57 0.56 63.7 0 1 171.55 65.49
  Z
  M 162.61 66.24
  Q 163.21 66.61 162.53 66.83
  Q 160.88 67.35 160.26 68.66
  A 0.52 0.51 -58.8 0 0 160.41 69.29
  Q 162.02 70.54 162.58 72.51
  A 0.53 0.53 0.0 0 0 163.56 72.60
  L 164.48 70.75
  Q 164.78 70.14 164.11 70.25
  Q 162.78 70.48 162.06 69.14
  A 0.87 0.87 0.0 0 1 162.71 67.86
  Q 164.17 67.65 165.17 66.69
  Q 165.57 66.31 166.08 66.53
  L 167.06 66.95
  Q 167.59 67.18 167.81 66.66
  Q 167.92 66.40 167.72 66.19
  Q 166.90 65.30 165.86 64.82
  Q 165.26 64.55 165.46 63.92
  L 165.57 63.56
  Q 165.77 62.93 165.11 62.99
  Q 164.42 63.06 163.99 63.62
  Q 163.72 63.98 163.26 63.98
  L 161.07 63.97
  Q 160.48 63.96 160.47 64.56
  Q 160.47 65.19 161.08 65.45
  Q 161.90 65.79 162.61 66.24
  Z
  M 165.38 120.04
  A 1.14 1.12 -88.5 0 1 166.03 119.41
  L 167.28 118.95
  Q 168.11 118.64 167.29 118.30
  Q 166.01 117.77 164.83 119.38
  A 1.92 1.90 -39.7 0 0 164.64 121.32
  Q 165.45 123.05 167.53 123.19
  C 169.19 123.30 170.13 122.05 171.54 121.42
  Q 172.93 120.80 173.61 122.17
  A 1.20 1.20 0.0 0 1 172.74 123.88
  L 171.11 124.16
  Q 170.19 124.32 171.05 124.67
  L 172.50 125.27
  Q 173.21 125.56 173.27 124.80
  Q 173.30 124.37 173.64 124.12
  C 175.32 122.83 174.04 120.52 172.43 119.89
  C 170.41 119.11 169.51 120.17 167.98 121.07
  Q 167.20 121.52 166.31 121.45
  Q 164.84 121.34 165.38 120.04
  Z
  M 33.48 121.75
  Q 34.14 123.05 32.93 124.27
  Q 31.86 125.33 33.29 124.85
  L 33.95 124.62
  Q 34.42 124.46 34.48 123.96
  C 35.13 118.69 29.57 118.40 26.36 120.56
  C 23.71 122.35 23.89 125.52 26.90 126.93
  Q 26.95 126.96 26.98 126.90
  L 27.10 126.67
  Q 27.26 126.38 26.96 126.24
  Q 25.60 125.60 25.47 124.18
  A 1.46 1.46 0.0 0 1 26.00 122.92
  Q 28.63 120.76 32.36 121.01
  A 1.35 1.33 -11.0 0 1 33.48 121.75
  Z
  M 169.54 131.87
  Q 169.57 131.93 169.60 131.99
  Q 169.84 132.69 170.20 132.04
  Q 171.29 130.00 172.15 127.96
  Q 172.38 127.42 171.96 127.02
  Q 171.42 126.51 170.68 126.46
  Q 169.92 126.41 170.48 126.93
  C 171.31 127.69 171.53 128.89 170.45 129.56
  Q 169.97 129.87 169.45 129.62
  L 163.67 126.92
  A 1.02 1.02 0.0 0 1 163.43 125.24
  Q 163.96 124.77 164.67 124.63
  Q 165.27 124.51 164.83 124.09
  Q 164.52 123.80 164.15 123.64
  Q 163.53 123.37 163.25 123.98
  L 161.67 127.47
  Q 161.44 127.97 161.95 128.16
  Q 165.53 129.47 169.17 131.53
  Q 169.39 131.65 169.54 131.87
  Z
  M 32.20 129.65
  Q 32.35 129.66 32.43 129.53
  Q 33.77 127.59 35.96 127.60
  Q 36.58 127.60 36.30 127.05
  L 35.58 125.68
  Q 35.36 125.26 34.98 125.53
  Q 31.36 128.03 27.15 129.33
  Q 26.48 129.54 26.90 130.11
  Q 27.24 130.55 27.41 131.10
  Q 27.68 132.01 28.33 131.32
  Q 29.98 129.59 32.20 129.65
  Z
  M 166.35 126.37
  A 0.36 0.36 0.0 0 0 165.90 126.88
  Q 166.51 127.99 167.85 127.76
  Q 169.15 127.53 167.93 127.02
  L 166.35 126.37
  Z
  M 33.17 130.89
  Q 32.66 130.61 32.53 131.20
  Q 32.41 131.76 31.87 131.97
  L 28.87 133.14
  Q 28.48 133.29 28.65 133.68
  L 29.08 134.65
  Q 29.34 135.25 29.91 134.91
  Q 33.71 132.59 37.74 131.16
  Q 38.26 130.98 37.98 130.50
  L 37.32 129.37
  Q 37.03 128.87 36.61 129.28
  Q 35.44 130.40 33.67 130.94
  A 0.65 0.65 0.0 0 1 33.17 130.89
  Z
  M 167.28 135.94
  A 1.87 1.86 24.3 0 1 165.30 136.68
  C 163.53 136.23 158.74 133.74 160.23 131.23
  A 1.13 1.10 12.6 0 1 161.09 130.70
  L 162.51 130.60
  Q 163.50 130.52 162.58 130.02
  Q 162.20 129.81 162.02 129.42
  Q 161.77 128.88 161.35 129.30
  L 159.68 130.95
  A 2.70 2.69 57.3 0 0 159.06 133.82
  C 160.12 136.61 164.14 139.76 167.10 137.51
  Q 169.03 136.05 168.11 133.07
  Q 168.10 133.05 168.07 133.05
  L 167.83 133.13
  Q 167.50 133.23 167.61 133.55
  Q 168.05 134.84 167.28 135.94
  Z
  M 32.09 139.10
  L 39.90 134.16
  A 0.29 0.29 0.0 0 0 39.99 133.76
  L 39.45 132.91
  A 0.60 0.21 57.7 0 0 38.96 132.52
  L 31.01 137.54
  A 0.60 0.21 57.7 0 0 31.15 138.16
  L 31.69 139.01
  A 0.29 0.29 0.0 0 0 32.09 139.10
  Z
  M 39.75 142.12
  Q 40.61 139.92 41.72 137.74
  Q 42.21 136.77 41.49 135.95
  L 41.21 135.64
  Q 40.39 134.71 40.03 135.89
  Q 38.66 140.40 36.82 144.33
  Q 35.92 146.26 37.63 145.00
  Q 39.00 143.99 40.11 142.87
  Q 40.22 142.76 40.14 142.64
  Q 40.07 142.54 39.94 142.50
  Q 39.64 142.41 39.75 142.12
  Z
  M 156.60 136.70
  C 157.63 136.86 159.01 137.98 159.84 138.57
  Q 159.99 138.67 160.09 138.53
  L 160.24 138.31
  Q 160.29 138.24 160.21 138.20
  Q 158.38 137.29 157.31 135.65
  Q 156.98 135.13 156.62 135.64
  L 156.32 136.05
  A 0.42 0.41 21.8 0 0 156.60 136.70
  Z
  M 33.44 141.69
  L 33.71 141.92
  Q 33.78 141.98 33.85 141.92
  L 37.95 138.51
  Q 38.13 138.36 37.99 138.17
  L 37.84 137.97
  A 0.09 0.09 0.0 0 0 37.71 137.96
  Q 35.78 139.84 33.51 141.07
  Q 33.02 141.33 33.44 141.69
  Z
  M 156.51 140.90
  L 163.57 141.74
  Q 164.60 141.86 163.84 141.15
  Q 162.82 140.20 161.62 139.46
  Q 161.20 139.21 160.72 139.25
  Q 157.76 139.53 155.07 138.83
  A 1.06 1.04 20.6 0 0 153.86 139.37
  L 153.52 140.05
  Q 153.21 140.67 153.90 140.71
  C 154.75 140.77 155.55 141.07 156.12 141.74
  Q 157.53 143.42 159.47 144.46
  Q 160.20 144.85 160.40 145.70
  Q 160.62 146.67 161.23 145.89
  Q 161.34 145.74 161.48 145.60
  Q 161.91 145.16 161.36 144.90
  Q 158.31 143.43 156.26 141.45
  Q 155.57 140.79 156.51 140.90
  Z
  M 40.93 142.45
  Q 42.71 140.98 44.20 140.60
  Q 44.58 140.51 44.40 140.15
  L 43.97 139.33
  Q 43.62 138.67 43.37 139.37
  C 42.79 140.99 41.39 141.01 40.71 142.27
  Q 40.35 142.93 40.93 142.45
  Z
  M 43.22 146.20
  L 42.97 148.11
  Q 42.92 148.55 43.24 148.25
  L 45.34 146.33
  Q 46.22 145.53 45.10 145.94
  Q 44.14 146.30 43.22 146.20
  L 45.82 143.64
  Q 46.37 143.10 46.81 143.72
  Q 47.56 144.76 47.03 145.92
  Q 46.72 146.60 47.41 146.30
  Q 48.39 145.86 48.50 144.99
  Q 48.57 144.47 48.16 144.13
  Q 46.61 142.87 45.45 141.38
  Q 44.80 140.54 44.81 141.61
  Q 44.81 142.02 44.52 142.33
  Q 41.53 145.55 38.61 147.56
  Q 38.17 147.86 38.54 148.25
  C 39.36 149.11 40.25 149.94 41.00 150.84
  Q 41.99 152.05 43.17 150.86
  Q 43.94 150.09 42.87 150.29
  Q 41.50 150.55 40.57 149.35
  Q 40.19 148.86 40.59 148.39
  Q 41.75 147.01 43.22 146.20
  Z
  M 153.70 146.51
  Q 154.57 146.85 155.15 146.79
  Q 155.95 146.72 155.37 146.16
  L 154.07 144.89
  Q 153.61 144.44 153.64 145.08
  L 153.70 146.51
  Q 152.11 145.86 151.05 144.37
  Q 150.71 143.89 151.05 143.42
  Q 151.89 142.25 153.32 142.96
  Q 153.94 143.28 153.56 142.69
  L 152.84 141.61
  A 0.58 0.58 0.0 0 0 151.93 141.53
  L 149.07 144.63
  Q 148.69 145.05 149.16 145.37
  Q 152.92 147.82 155.53 151.35
  Q 155.83 151.75 156.17 151.38
  L 158.97 148.23
  Q 159.43 147.71 159.03 147.14
  Q 158.63 146.57 157.91 146.25
  Q 157.27 145.97 157.62 146.58
  Q 158.47 148.05 157.10 149.17
  Q 156.63 149.56 156.14 149.20
  Q 154.56 148.04 153.70 146.51
  Z
  M 154.07 153.08
  Q 150.44 150.03 147.76 146.40
  Q 147.59 146.17 147.36 146.35
  L 146.28 147.21
  Q 146.14 147.33 146.26 147.46
  L 152.56 154.53
  Q 152.70 154.68 152.85 154.54
  L 154.08 153.34
  Q 154.22 153.20 154.07 153.08
  Z
  M 50.83 147.61
  Q 51.50 147.85 51.46 148.57
  Q 51.42 149.32 51.11 150.00
  Q 50.82 150.65 51.47 150.37
  Q 53.36 149.59 52.16 147.94
  Q 50.51 145.66 48.38 147.36
  C 45.58 149.59 48.53 152.02 47.29 154.01
  Q 46.85 154.73 45.97 154.61
  A 1.10 1.09 -4.8 0 1 45.09 153.87
  Q 44.73 152.73 45.33 151.59
  Q 45.74 150.81 44.95 151.21
  Q 43.72 151.85 43.85 153.37
  A 1.91 1.91 0.0 0 0 45.11 155.00
  Q 47.90 156.00 49.17 153.72
  C 50.09 152.08 49.16 150.24 49.29 148.48
  Q 49.35 147.65 50.17 147.54
  Q 50.51 147.49 50.83 147.61
  Z
  M 149.36 156.51
  A 1.89 1.89 0.0 0 1 146.76 157.17
  C 145.03 156.13 142.17 153.13 143.20 150.91
  Q 143.74 149.76 144.94 149.92
  A 1.78 1.72 -20.5 0 1 145.79 150.29
  Q 145.95 150.43 146.17 150.45
  Q 146.76 150.53 146.45 150.03
  L 145.81 148.98
  Q 145.52 148.49 145.07 148.84
  Q 144.33 149.42 143.42 149.65
  C 141.68 150.08 141.47 152.71 141.88 154.06
  C 142.58 156.41 145.42 159.56 148.20 158.39
  Q 150.15 157.58 150.44 155.39
  Q 150.47 155.23 150.31 155.20
  L 150.03 155.15
  Q 149.59 155.07 149.61 155.51
  Q 149.63 156.05 149.36 156.51
  Z
  M 53.01 155.65
  L 52.99 156.45
  Q 52.97 157.45 53.58 156.65
  L 54.79 155.07
  Q 55.40 154.28 54.43 154.49
  Q 54.05 154.57 53.71 154.71
  Q 52.91 155.04 53.29 154.26
  Q 54.00 152.80 55.28 151.85
  A 0.62 0.61 -41.7 0 1 56.06 151.89
  Q 57.14 152.91 56.73 154.31
  Q 56.52 155.03 57.12 154.57
  Q 57.79 154.06 57.97 153.28
  Q 58.11 152.69 57.61 152.33
  L 54.65 150.21
  A 0.64 0.64 0.0 0 0 53.72 150.43
  Q 51.57 154.37 48.62 157.15
  Q 48.30 157.45 48.65 157.72
  L 52.03 160.34
  Q 52.39 160.62 52.80 160.40
  Q 53.43 160.07 53.80 159.31
  Q 54.11 158.66 53.45 158.95
  Q 52.22 159.48 51.08 158.79
  A 0.87 0.87 0.0 0 1 50.78 157.59
  Q 51.45 156.48 52.43 155.41
  Q 53.04 154.76 53.01 155.65
  Z
  M 137.09 155.66
  Q 137.24 154.06 138.76 154.31
  Q 139.27 154.39 139.57 154.78
  Q 139.68 154.92 139.85 154.98
  Q 140.45 155.18 140.29 154.57
  Q 140.12 153.86 140.03 153.80
  A 2.39 2.39 0.0 0 0 136.31 155.29
  C 135.94 157.14 137.65 158.92 139.52 159.01
  Q 140.80 159.07 142.05 159.40
  A 1.33 1.33 0.0 0 1 142.75 161.51
  Q 142.21 162.19 141.27 162.05
  Q 140.84 161.99 140.53 161.69
  Q 140.15 161.32 139.66 161.11
  Q 138.91 160.79 139.34 161.48
  L 140.08 162.68
  Q 140.39 163.18 140.95 163.05
  C 142.96 162.58 144.81 161.09 143.47 158.94
  Q 141.80 156.27 138.24 156.76
  A 1.01 1.01 0.0 0 1 137.09 155.66
  Z
  M 62.32 162.84
  Q 62.03 162.29 62.13 161.68
  Q 62.24 160.94 61.67 161.43
  L 58.77 163.98
  A 0.48 0.47 40.0 0 0 58.84 164.75
  Q 59.10 164.90 59.42 164.81
  Q 59.93 164.67 60.02 164.16
  Q 60.30 162.71 61.86 162.90
  A 1.36 1.34 73.9 0 1 62.73 163.39
  Q 63.65 164.54 62.71 165.59
  A 0.72 0.71 -55.5 0 0 62.91 166.70
  L 63.86 167.19
  Q 64.49 167.52 64.57 166.81
  Q 65.08 162.48 66.01 158.11
  Q 66.32 156.64 65.28 157.73
  Q 63.92 159.17 62.73 160.47
  Q 62.48 160.75 62.84 160.61
  Q 62.96 160.57 63.05 160.49
  A 0.30 0.30 0.0 0 1 63.52 160.61
  Q 63.94 161.70 63.30 162.85
  Q 62.80 163.74 62.32 162.84
  Z
  M 130.28 163.80
  L 131.19 164.37
  Q 132.05 164.90 131.64 163.97
  L 130.77 162.00
  Q 130.48 161.35 130.27 162.02
  L 130.05 162.71
  Q 129.63 164.01 129.01 162.79
  L 128.10 160.99
  A 1.17 1.16 -12.9 0 1 129.16 159.30
  Q 130.31 159.32 130.90 160.17
  Q 131.22 160.61 131.18 160.07
  Q 131.13 159.21 130.69 158.51
  A 0.77 0.77 0.0 0 0 129.69 158.23
  L 126.20 160.00
  Q 125.70 160.25 126.00 160.73
  Q 128.27 164.37 129.45 168.56
  Q 129.58 169.03 130.06 168.93
  Q 130.76 168.77 131.28 168.28
  A 0.68 0.67 49.1 0 0 131.34 167.35
  Q 130.19 165.96 129.69 164.24
  Q 129.41 163.26 130.28 163.80
  Z
  M 73.49 162.08
  L 73.65 163.32
  Q 73.75 164.11 74.22 163.47
  Q 74.70 162.82 74.74 162.06
  Q 74.76 161.56 74.35 161.26
  C 66.51 155.43 62.98 172.60 71.74 169.20
  A 0.08 0.08 0.0 0 0 71.78 169.10
  L 71.67 168.87
  Q 71.51 168.52 71.18 168.73
  C 69.63 169.75 67.93 168.30 68.16 166.55
  C 68.38 164.77 70.12 159.75 72.83 161.13
  Q 73.41 161.43 73.49 162.08
  Z
  M 124.5031 171.2726
  A 5.12 3.69 71.4 0 0 126.3673 165.2430
  A 5.12 3.69 71.4 0 0 121.2369 161.5674
  A 5.12 3.69 71.4 0 0 119.3727 167.5970
  A 5.12 3.69 71.4 0 0 124.5031 171.2726
  Z
  M 77.51 166.86
  Q 77.21 168.52 77.46 170.18
  Q 77.55 170.75 77.25 171.22
  Q 77.13 171.41 76.95 171.56
  A 0.25 0.24 33.7 0 0 77.04 171.98
  L 78.69 172.50
  Q 79.30 172.70 79.28 172.06
  L 79.00 163.04
  Q 78.97 162.08 78.43 162.87
  L 73.21 170.49
  Q 72.85 171.03 73.50 171.07
  Q 73.66 171.09 73.82 171.09
  Q 74.38 171.11 74.39 170.56
  Q 74.40 168.79 76.13 168.75
  Q 77.16 168.72 76.25 168.23
  L 75.99 168.09
  Q 75.40 167.78 75.76 167.22
  Q 76.16 166.60 76.87 166.32
  Q 77.67 166.02 77.51 166.86
  Z
  M 83.11 163.80
  L 81.45 173.01
  A 0.24 0.24 0.0 0 0 81.64 173.29
  L 83.55 173.64
  A 4.25 3.94 -79.8 0 0 88.18 170.15
  L 88.42 168.83
  A 4.25 3.94 -79.8 0 0 85.30 163.95
  L 83.39 163.61
  A 0.24 0.24 0.0 0 0 83.11 163.80
  Z
  M 111.35 168.21
  C 111.85 166.98 112.11 165.67 112.53 164.41
  Q 112.71 163.86 112.15 164.02
  L 111.58 164.19
  A 0.36 0.36 0.0 0 0 111.32 164.55
  Q 111.41 166.29 111.34 168.21
  Q 111.34 168.32 111.36 168.22
  Q 111.38 168.14 111.34 168.24
  Q 111.30 168.31 111.35 168.21
  Z
  M 92.23 170.18
  L 92.77 170.83
  Q 93.27 171.43 93.35 170.65
  L 93.53 169.00
  Q 93.61 168.32 93.07 168.74
  L 92.74 169.00
  Q 91.69 169.82 91.80 168.49
  L 91.99 166.23
  Q 92.03 165.68 92.58 165.55
  Q 92.99 165.46 93.38 165.56
  Q 94.05 165.74 94.25 166.41
  Q 94.34 166.71 94.46 167.00
  Q 94.83 167.82 95.15 166.98
  Q 95.51 166.02 95.00 165.45
  Q 94.52 164.91 93.75 164.95
  Q 92.21 165.04 90.71 164.80
  Q 90.13 164.70 90.17 165.29
  Q 90.44 169.78 89.36 173.98
  Q 89.23 174.48 89.74 174.55
  L 93.73 175.04
  A 0.90 0.89 17.7 0 0 94.62 174.59
  Q 95.01 173.88 94.97 173.04
  Q 94.94 172.14 94.52 172.94
  Q 93.70 174.51 92.12 174.41
  Q 91.39 174.36 91.45 173.63
  L 91.73 170.34
  Q 91.79 169.65 92.23 170.18
  Z
  M 110.12 168.69
  Q 108.70 167.05 108.46 165.17
  A 0.48 0.47 85.2 0 0 107.98 164.76
  L 106.52 164.80
  Q 105.76 164.82 106.16 165.48
  C 107.63 167.90 109.97 170.98 109.37 173.93
  Q 109.22 174.65 109.91 174.39
  Q 110.42 174.20 110.95 174.25
  Q 111.67 174.33 111.54 173.61
  L 110.75 169.30
  A 0.55 0.54 5.6 0 0 110.39 168.87
  Q 110.23 168.82 110.12 168.69
  Z
  M 102.29 166.82
  Q 103.32 171.46 102.81 174.74
  Q 102.78 174.98 103.02 174.98
  L 104.79 174.97
  Q 105.06 174.97 105.03 174.71
  Q 104.42 169.90 104.66 165.43
  Q 104.68 164.95 104.21 165.02
  L 103.43 165.15
  A 1.40 1.39 -10.8 0 0 102.29 166.82
  Z
  M 100.29 174.28
  A 0.33 0.33 0.0 0 0 100.92 174.21
  L 101.29 172.02
  A 0.33 0.33 0.0 0 0 101.27 171.85
  L 98.89 165.60
  A 0.33 0.33 0.0 0 0 98.62 165.39
  L 97.09 165.25
  A 0.33 0.33 0.0 0 0 96.76 165.70
  L 100.29 174.28
  Z
  M 97.19 169.74
  Q 97.12 169.57 97.13 169.38
  Q 97.13 169.37 97.13 169.37
  Q 97.13 169.37 97.13 169.37
  Q 97.19 169.38 97.18 169.44
  Q 96.89 171.00 97.32 172.53
  Q 97.35 172.65 97.38 172.53
  Q 97.72 171.14 97.19 169.74
  Z
  M 97.04 174.04
  L 96.68 174.44
  Q 95.95 175.22 97.01 175.09
  L 97.92 174.97
  A 0.33 0.33 0.0 0 0 98.09 174.40
  Q 97.96 174.30 97.91 174.15
  Q 97.66 173.38 97.04 174.04
  Z"
/>
<path fill="#ffffff" d="
  M 93.60 19.16
  Q 95.18 19.48 96.06 18.07
  Q 96.51 17.34 97.29 17.70
  Q 97.90 17.98 97.63 18.83
  A 0.99 0.99 0.0 0 1 97.16 19.40
  Q 96.22 19.91 96.98 20.60
  Q 97.28 20.88 97.05 21.22
  Q 96.00 22.83 96.68 25.28
  Q 97.06 26.66 95.73 26.13
  Q 95.13 25.89 95.13 25.13
  Q 95.12 24.48 94.63 24.09
  Q 94.52 24.01 94.38 24.01
  Q 93.80 24.00 93.47 24.47
  Q 93.04 25.06 92.41 25.45
  A 0.40 0.40 0.0 0 1 91.80 25.20
  Q 91.34 23.01 92.91 22.06
  Q 93.44 21.74 93.74 22.29
  Q 93.91 22.58 94.24 22.69
  Q 94.83 22.89 94.96 22.27
  Q 95.12 21.53 94.98 20.84
  Q 94.85 20.21 94.22 20.16
  Q 93.25 20.08 92.39 20.28
  Q 89.80 20.88 91.49 18.84
  Q 93.23 16.73 95.02 14.85
  Q 95.56 14.29 95.67 13.53
  Q 95.84 12.42 96.87 12.63
  Q 98.29 12.92 97.31 13.99
  L 93.33 18.31
  Q 92.72 18.98 93.60 19.16
  Z"
/>
<path fill="#ffffff" d="
  M 100.69 22.39
  L 99.52 23.10
  Q 97.84 24.13 98.21 22.20
  Q 98.45 20.97 99.35 19.93
  Q 99.70 19.52 99.57 19.00
  Q 99.26 17.72 99.87 16.54
  Q 100.14 16.02 99.82 15.52
  Q 99.64 15.25 99.75 14.94
  Q 99.89 14.52 100.32 14.64
  Q 101.50 14.96 102.17 13.92
  Q 102.47 13.45 103.02 13.32
  Q 103.54 13.21 103.91 13.58
  Q 104.29 13.97 104.29 14.52
  C 104.29 16.52 103.81 18.21 104.97 19.99
  Q 105.35 20.57 104.78 20.96
  L 104.21 21.36
  Q 103.78 21.66 103.68 22.18
  Q 103.06 25.45 101.95 28.81
  Q 101.62 29.79 101.51 28.77
  Q 101.21 26.06 101.51 22.90
  A 0.54 0.54 0.0 0 0 100.69 22.39
  Z
  M 100.63 20.01
  Q 100.34 20.10 100.19 20.36
  A 0.41 0.41 0.0 0 0 100.53 20.98
  Q 101.73 20.99 101.78 19.70
  A 0.23 0.23 0.0 0 0 101.49 19.47
  Q 101.27 19.54 101.12 19.70
  Q 100.91 19.92 100.63 20.01
  Z"
/>
<path fill="#002a8c" d="
  M 101.12 19.70
  Q 101.27 19.54 101.49 19.47
  A 0.23 0.23 0.0 0 1 101.78 19.70
  Q 101.73 20.99 100.53 20.98
  A 0.41 0.41 0.0 0 1 100.19 20.36
  Q 100.34 20.10 100.63 20.01
  Q 100.91 19.92 101.12 19.70
  Z"
/>
<path fill="#ffffff" d="
  M 143.05 24.00
  L 142.57 26.55
  A 1.05 1.04 -51.8 0 1 140.59 26.79
  C 140.02 25.53 141.53 24.13 142.52 23.61
  A 0.37 0.36 -8.4 0 1 143.05 24.00
  Z"
/>
<path fill="#ffffff" d="
  M 55.20 39.22
  Q 55.20 41.57 55.98 43.67
  Q 56.15 44.13 55.72 44.35
  L 55.42 44.49
  Q 54.80 44.80 54.47 44.19
  L 50.07 36.10
  Q 49.85 35.70 50.22 35.43
  Q 50.39 35.31 50.45 35.11
  Q 50.50 34.97 50.48 34.81
  Q 49.73 29.93 52.88 26.36
  C 55.51 23.40 58.08 25.54 59.61 28.06
  Q 62.30 32.45 65.47 36.60
  A 1.22 1.21 -40.6 0 1 65.34 38.23
  C 62.89 40.54 60.12 42.03 56.66 40.83
  Q 56.18 40.67 56.48 40.26
  Q 57.16 39.34 57.07 38.16
  Q 56.96 36.58 56.18 37.96
  Q 55.97 38.33 55.60 38.54
  A 0.78 0.77 75.7 0 0 55.20 39.22
  Z
  M 57.83 34.09
  Q 58.31 32.47 59.48 32.04
  Q 60.50 31.67 60.11 32.68
  L 59.49 34.24
  Q 59.30 34.73 59.58 35.17
  L 60.55 36.72
  Q 61.03 37.47 60.33 38.04
  L 58.38 39.63
  Q 57.87 40.04 58.48 40.28
  C 60.38 41.01 62.83 38.77 63.91 37.47
  A 1.03 1.03 0.0 0 0 63.97 36.25
  Q 61.15 31.94 58.57 28.05
  Q 57.16 25.94 54.70 26.08
  A 1.21 1.18 13.4 0 0 53.75 26.65
  L 51.79 29.92
  A 0.80 0.80 0.0 0 0 52.59 31.13
  L 54.50 30.88
  A 0.45 0.44 81.4 0 1 55.00 31.25
  L 55.07 31.65
  Q 55.14 32.08 55.54 32.24
  Q 56.86 32.80 57.40 33.99
  Q 58.00 35.29 56.70 34.69
  L 55.48 34.12
  Q 54.79 33.80 55.25 34.41
  Q 56.05 35.47 57.50 35.64
  Q 58.02 35.70 58.06 35.18
  Q 58.08 34.98 57.96 34.83
  Q 57.71 34.49 57.83 34.09
  Z
  M 53.38 37.77
  Q 54.10 38.10 54.63 38.74
  A 0.11 0.11 0.0 0 0 54.82 38.62
  Q 54.34 37.61 54.39 36.69
  Q 54.41 36.32 54.06 36.21
  Q 53.04 35.87 53.27 34.82
  Q 53.40 34.22 52.91 33.87
  Q 52.14 33.31 51.69 32.43
  A 0.16 0.16 0.0 0 0 51.40 32.56
  Q 52.16 34.37 51.35 35.68
  Q 51.13 36.05 51.26 36.47
  Q 52.26 39.46 53.97 41.60
  Q 54.61 42.39 54.45 41.39
  Q 54.20 39.83 52.89 38.46
  Q 51.34 36.84 53.38 37.77
  Z
  M 59.22 37.15
  Q 59.44 36.78 59.02 36.78
  Q 58.35 36.79 57.86 37.17
  Q 57.29 37.61 58.00 37.74
  Q 58.78 37.88 59.22 37.15
  Z"
/>
<path fill="#002a8c" d="
  M 57.96 34.83
  Q 58.08 34.98 58.06 35.18
  Q 58.02 35.70 57.50 35.64
  Q 56.05 35.47 55.25 34.41
  Q 54.79 33.80 55.48 34.12
  L 56.70 34.69
  Q 58.00 35.29 57.40 33.99
  Q 56.86 32.80 55.54 32.24
  Q 55.14 32.08 55.07 31.65
  L 55.00 31.25
  A 0.45 0.44 81.4 0 0 54.50 30.88
  L 52.59 31.13
  A 0.80 0.80 0.0 0 1 51.79 29.92
  L 53.75 26.65
  A 1.21 1.18 13.4 0 1 54.70 26.08
  Q 57.16 25.94 58.57 28.05
  Q 61.15 31.94 63.97 36.25
  A 1.03 1.03 0.0 0 1 63.91 37.47
  C 62.83 38.77 60.38 41.01 58.48 40.28
  Q 57.87 40.04 58.38 39.63
  L 60.33 38.04
  Q 61.03 37.47 60.55 36.72
  L 59.58 35.17
  Q 59.30 34.73 59.49 34.24
  L 60.11 32.68
  Q 60.50 31.67 59.48 32.04
  Q 58.31 32.47 57.83 34.09
  Q 57.71 34.49 57.96 34.83
  Z
  M 57.3541 31.0857
  A 1.18 0.82 32.6 0 0 56.8018 29.7592
  A 1.18 0.82 32.6 0 0 55.3659 29.8143
  A 1.18 0.82 32.6 0 0 55.9182 31.1408
  A 1.18 0.82 32.6 0 0 57.3541 31.0857
  Z"
/>
<path fill="#ffffff" d="
  M 148.01 29.41
  Q 148.00 29.20 147.85 29.04
  Q 147.65 28.84 147.38 28.82
  L 145.32 28.68
  Q 144.49 28.63 144.49 27.80
  Q 144.49 27.14 144.91 26.58
  A 0.54 0.54 0.0 0 1 145.80 26.63
  Q 147.03 28.61 149.10 29.07
  Q 149.70 29.21 149.58 29.81
  L 149.37 30.97
  A 0.64 0.64 0.0 0 1 148.50 31.45
  Q 147.43 31.01 146.24 30.98
  Q 145.66 30.97 145.69 31.56
  Q 145.83 34.42 143.30 35.55
  A 0.21 0.21 0.0 0 1 143.09 35.53
  L 142.65 35.22
  Q 142.31 34.98 142.68 34.80
  Q 144.82 33.77 144.34 31.75
  Q 144.23 31.30 143.81 31.08
  C 142.14 30.22 139.95 30.05 138.36 31.19
  Q 137.29 31.97 135.96 32.16
  A 0.44 0.43 13.4 0 1 135.54 31.48
  L 137.44 28.82
  Q 137.79 28.33 138.35 28.54
  Q 142.51 30.07 147.44 30.00
  Q 148.02 29.99 148.01 29.41
  Z"
/>
<ellipse fill="#ffffff" cx="0.00" cy="0.00" transform="translate(56.36,30.45) rotate(32.6)" rx="1.18" ry="0.82"/>
<path fill="#002a8c" d="
  M 53.38 37.77
  Q 51.34 36.84 52.89 38.46
  Q 54.20 39.83 54.45 41.39
  Q 54.61 42.39 53.97 41.60
  Q 52.26 39.46 51.26 36.47
  Q 51.13 36.05 51.35 35.68
  Q 52.16 34.37 51.40 32.56
  A 0.16 0.16 0.0 0 1 51.69 32.43
  Q 52.14 33.31 52.91 33.87
  Q 53.40 34.22 53.27 34.82
  Q 53.04 35.87 54.06 36.21
  Q 54.41 36.32 54.39 36.69
  Q 54.34 37.61 54.82 38.62
  A 0.11 0.11 0.0 0 1 54.63 38.74
  Q 54.10 38.10 53.38 37.77
  Z"
/>
<path fill="#ffffff" d="
  M 137.69 37.39
  Q 137.54 36.03 138.82 35.38
  A 0.79 0.79 0.0 0 0 138.81 33.97
  Q 138.17 33.65 137.88 33.05
  Q 137.57 32.39 138.29 32.39
  Q 140.41 32.38 141.32 34.22
  A 0.80 0.79 62.9 0 1 140.98 35.28
  Q 139.78 35.90 138.93 37.04
  A 1.61 1.61 0.0 0 0 139.43 39.39
  Q 140.06 39.75 140.38 40.36
  Q 140.97 41.47 139.85 40.90
  L 138.06 39.97
  Q 137.60 39.74 137.19 40.05
  Q 134.06 42.43 131.66 38.16
  Q 131.55 37.97 131.74 37.85
  Q 131.87 37.77 132.00 37.73
  Q 132.10 37.71 132.16 37.78
  Q 133.44 39.46 135.12 40.01
  Q 135.70 40.20 136.16 39.82
  Q 136.41 39.62 136.45 39.34
  Q 136.52 38.88 136.14 38.61
  L 132.25 35.84
  A 0.71 0.70 37.5 0 1 132.11 34.82
  Q 132.80 33.97 133.36 34.84
  Q 134.63 36.82 137.12 37.82
  Q 137.76 38.07 137.69 37.39
  Z"
/>
<path fill="#ffffff" d="
  M 160.80 95.84
  A 62.64 62.64 0.0 0 1 98.16 158.48
  A 62.64 62.64 0.0 0 1 35.52 95.84
  A 62.64 62.64 0.0 0 1 98.16 33.20
  A 62.64 62.64 0.0 0 1 160.80 95.84
  Z
  M 158.68 95.85
  A 60.52 60.52 0.0 0 0 98.16 35.33
  A 60.52 60.52 0.0 0 0 37.64 95.85
  A 60.52 60.52 0.0 0 0 98.16 156.37
  A 60.52 60.52 0.0 0 0 158.68 95.85
  Z"
/>
<path fill="#002a8c" d="
  M 158.68 95.85
  A 60.52 60.52 0.0 0 1 98.16 156.37
  A 60.52 60.52 0.0 0 1 37.64 95.85
  A 60.52 60.52 0.0 0 1 98.16 35.33
  A 60.52 60.52 0.0 0 1 158.68 95.85
  Z
  M 157.70 95.86
  A 59.56 59.56 0.0 0 0 98.14 36.30
  A 59.56 59.56 0.0 0 0 38.58 95.86
  A 59.56 59.56 0.0 0 0 98.14 155.42
  A 59.56 59.56 0.0 0 0 157.70 95.86
  Z"
/>
<path fill="#ffffff" d="
  M 157.70 95.86
  A 59.56 59.56 0.0 0 1 98.14 155.42
  A 59.56 59.56 0.0 0 1 38.58 95.86
  A 59.56 59.56 0.0 0 1 98.14 36.30
  A 59.56 59.56 0.0 0 1 157.70 95.86
  Z
  M 57.78 126.19
  A 0.31 0.31 0.0 0 0 58.02 126.24
  L 83.89 121.27
  A 0.31 0.31 0.0 0 1 84.24 121.68
  L 79.00 136.79
  A 0.31 0.31 0.0 0 0 79.03 137.04
  L 87.67 152.98
  A 0.31 0.31 0.0 0 0 88.07 153.12
  L 104.72 145.92
  A 0.31 0.31 0.0 0 0 104.89 145.74
  L 113.33 121.22
  A 0.31 0.31 0.0 0 1 113.86 121.12
  L 124.30 133.23
  A 0.31 0.31 0.0 0 0 124.53 133.33
  L 142.66 133.79
  A 0.31 0.31 0.0 0 0 142.97 133.52
  L 145.00 115.44
  A 0.31 0.31 0.0 0 0 144.93 115.20
  L 127.76 95.42
  A 0.31 0.31 0.0 0 1 127.94 94.91
  L 143.98 91.84
  A 0.31 0.31 0.0 0 0 144.18 91.69
  L 153.60 76.26
  A 0.31 0.31 0.0 0 0 153.52 75.85
  L 139.03 65.06
  A 0.31 0.31 0.0 0 0 138.79 65.01
  L 112.83 69.95
  A 0.31 0.31 0.0 0 1 112.48 69.54
  L 117.84 54.24
  A 0.31 0.31 0.0 0 0 117.82 53.99
  L 109.20 38.05
  A 0.31 0.31 0.0 0 0 108.81 37.91
  L 92.13 45.10
  A 0.31 0.31 0.0 0 0 91.96 45.28
  L 83.35 70.16
  A 0.31 0.31 0.0 0 1 82.82 70.26
  L 72.37 58.15
  A 0.31 0.31 0.0 0 0 72.14 58.05
  L 53.96 57.42
  A 0.31 0.31 0.0 0 0 53.64 57.69
  L 51.54 75.83
  A 0.31 0.31 0.0 0 0 51.61 76.07
  L 68.82 95.87
  A 0.31 0.31 0.0 0 1 68.64 96.38
  L 52.88 99.33
  A 0.31 0.31 0.0 0 0 52.67 99.48
  L 43.16 114.97
  A 0.31 0.31 0.0 0 0 43.24 115.38
  L 57.78 126.19
  Z"
/>
<path fill="#002a8c" d="
  M 59.22 37.15
  Q 58.78 37.88 58.00 37.74
  Q 57.29 37.61 57.86 37.17
  Q 58.35 36.79 59.02 36.78
  Q 59.44 36.78 59.22 37.15
  Z"
/>
<path fill="#002a8c" d="
  M 57.78 126.19
  L 43.24 115.38
  A 0.31 0.31 0.0 0 1 43.16 114.97
  L 52.67 99.48
  A 0.31 0.31 0.0 0 1 52.88 99.33
  L 68.64 96.38
  A 0.31 0.31 0.0 0 0 68.82 95.87
  L 51.61 76.07
  A 0.31 0.31 0.0 0 1 51.54 75.83
  L 53.64 57.69
  A 0.31 0.31 0.0 0 1 53.96 57.42
  L 72.14 58.05
  A 0.31 0.31 0.0 0 1 72.37 58.15
  L 82.82 70.26
  A 0.31 0.31 0.0 0 0 83.35 70.16
  L 91.96 45.28
  A 0.31 0.31 0.0 0 1 92.13 45.10
  L 108.81 37.91
  A 0.31 0.31 0.0 0 1 109.20 38.05
  L 117.82 53.99
  A 0.31 0.31 0.0 0 1 117.84 54.24
  L 112.48 69.54
  A 0.31 0.31 0.0 0 0 112.83 69.95
  L 138.79 65.01
  A 0.31 0.31 0.0 0 1 139.03 65.06
  L 153.52 75.85
  A 0.31 0.31 0.0 0 1 153.60 76.26
  L 144.18 91.69
  A 0.31 0.31 0.0 0 1 143.98 91.84
  L 127.94 94.91
  A 0.31 0.31 0.0 0 0 127.76 95.42
  L 144.93 115.20
  A 0.31 0.31 0.0 0 1 145.00 115.44
  L 142.97 133.52
  A 0.31 0.31 0.0 0 1 142.66 133.79
  L 124.53 133.33
  A 0.31 0.31 0.0 0 1 124.30 133.23
  L 113.86 121.12
  A 0.31 0.31 0.0 0 0 113.33 121.22
  L 104.89 145.74
  A 0.31 0.31 0.0 0 1 104.72 145.92
  L 88.07 153.12
  A 0.31 0.31 0.0 0 1 87.67 152.98
  L 79.03 137.04
  A 0.31 0.31 0.0 0 1 79.00 136.79
  L 84.24 121.68
  A 0.31 0.31 0.0 0 0 83.89 121.27
  L 58.02 126.24
  A 0.31 0.31 0.0 0 1 57.78 126.19
  Z
  M 99.43 76.06
  A 3.30 3.30 0.0 0 0 96.13 72.76
  A 3.30 3.30 0.0 0 0 92.83 76.06
  A 3.30 3.30 0.0 0 0 96.13 79.36
  A 3.30 3.30 0.0 0 0 99.43 76.06
  Z
  M 118.15 83.92
  A 3.32 3.32 0.0 0 0 114.83 80.60
  A 3.32 3.32 0.0 0 0 111.51 83.92
  A 3.32 3.32 0.0 0 0 114.83 87.24
  A 3.32 3.32 0.0 0 0 118.15 83.92
  Z
  M 87.70 97.71
  Q 86.96 97.54 86.18 97.61
  Q 85.28 97.68 86.01 98.21
  L 94.92 104.76
  Q 95.50 105.19 95.01 105.72
  Q 94.51 106.26 94.18 106.93
  Q 93.71 107.87 94.67 107.45
  L 104.45 103.14
  Q 104.90 102.95 105.29 103.23
  Q 105.93 103.69 106.11 104.56
  Q 106.16 104.76 106.35 104.83
  Q 106.51 104.88 106.65 104.82
  Q 106.84 104.75 106.85 104.55
  L 107.87 94.12
  A 0.67 0.67 0.0 0 1 108.67 93.53
  Q 109.63 93.71 110.62 93.62
  Q 111.63 93.53 110.80 92.94
  L 101.69 86.36
  A 0.50 0.50 0.0 0 1 101.61 85.61
  Q 101.96 85.22 102.28 84.81
  Q 103.89 82.80 101.53 83.83
  L 92.27 87.89
  Q 91.51 88.22 91.18 87.46
  L 90.79 86.54
  Q 89.95 84.60 89.73 86.70
  L 88.66 97.01
  Q 88.57 97.89 87.70 97.71
  Z
  M 83.30 87.40
  A 3.31 3.31 0.0 0 0 79.99 84.09
  A 3.31 3.31 0.0 0 0 76.68 87.40
  A 3.31 3.31 0.0 0 0 79.99 90.71
  A 3.31 3.31 0.0 0 0 83.30 87.40
  Z
  M 120.14 104.17
  A 3.32 3.32 0.0 0 0 116.82 100.85
  A 3.32 3.32 0.0 0 0 113.50 104.17
  A 3.32 3.32 0.0 0 0 116.82 107.49
  A 3.32 3.32 0.0 0 0 120.14 104.17
  Z
  M 85.28 107.49
  A 3.31 3.31 0.0 0 0 81.97 104.18
  A 3.31 3.31 0.0 0 0 78.66 107.49
  A 3.31 3.31 0.0 0 0 81.97 110.80
  A 3.31 3.31 0.0 0 0 85.28 107.49
  Z
  M 103.44 115.89
  A 3.32 3.32 0.0 0 0 100.12 112.57
  A 3.32 3.32 0.0 0 0 96.80 115.89
  A 3.32 3.32 0.0 0 0 100.12 119.21
  A 3.32 3.32 0.0 0 0 103.44 115.89
  Z"
/>
<path fill="#ffffff" d="
  M 165.29 57.52
  Q 166.93 56.55 166.74 54.71
  Q 166.53 52.70 168.15 53.90
  Q 169.01 54.53 169.26 55.71
  Q 169.37 56.27 168.82 56.41
  C 166.52 56.96 166.88 59.64 164.40 59.72
  Q 163.74 59.74 163.72 59.08
  L 163.71 58.49
  Q 163.69 57.42 162.88 58.13
  L 161.52 59.31
  Q 161.09 59.69 160.54 59.83
  L 156.36 60.87
  Q 154.98 61.21 155.42 59.87
  L 155.96 58.21
  Q 156.34 57.06 157.52 56.78
  L 162.95 55.50
  A 1.08 1.08 0.0 0 1 164.27 56.49
  Q 164.30 56.99 164.62 57.39
  A 0.53 0.53 0.0 0 0 165.29 57.52
  Z"
/>
<path fill="#ffffff" d="
  M 24.77 61.71
  Q 26.16 62.53 26.22 60.92
  Q 26.29 58.99 27.54 58.08
  A 0.65 0.65 0.0 0 1 28.57 58.51
  L 29.12 62.03
  Q 29.20 62.56 29.73 62.63
  Q 30.37 62.72 30.71 62.19
  Q 30.88 61.93 31.17 61.90
  Q 31.39 61.87 31.48 61.99
  Q 31.66 62.25 31.63 62.58
  C 31.53 63.84 31.40 64.91 32.48 65.84
  Q 34.74 67.79 37.08 69.67
  Q 37.88 70.31 36.87 70.15
  Q 34.82 69.82 32.75 68.74
  A 0.71 0.70 -63.9 0 0 31.77 69.08
  Q 31.47 69.75 30.78 69.97
  Q 30.07 70.20 30.28 69.48
  L 30.54 68.54
  Q 30.73 67.88 30.08 67.66
  L 28.85 67.24
  Q 28.44 67.10 28.34 67.52
  Q 27.88 69.57 29.49 70.51
  Q 29.97 70.79 30.05 71.35
  Q 30.19 72.42 29.17 72.60
  Q 27.30 72.93 24.95 72.06
  A 0.64 0.64 0.0 0 1 24.54 71.33
  L 24.60 71.04
  A 0.35 0.35 0.0 0 1 25.00 70.77
  L 26.73 71.05
  Q 27.79 71.22 27.41 70.22
  C 26.40 67.58 26.45 64.23 22.55 64.24
  Q 20.31 64.25 21.78 62.56
  Q 22.37 61.89 23.33 61.43
  Q 23.87 61.18 24.38 61.48
  L 24.77 61.71
  Z
  M 27.95 61.71
  Q 27.91 61.49 27.77 61.32
  A 0.39 0.39 0.0 0 0 27.13 61.38
  Q 26.42 62.71 27.88 63.24
  A 0.46 0.45 -78.1 0 0 28.49 62.84
  Q 28.52 62.45 28.19 62.15
  Q 27.99 61.97 27.95 61.71
  Z"
/>
<path fill="#ffffff" d="
  M 173.71 62.34
  Q 172.97 62.08 172.38 61.55
  A 0.70 0.70 0.0 0 1 172.41 60.47
  L 173.61 59.54
  Q 174.17 59.10 174.25 59.81
  L 174.46 61.74
  A 0.57 0.57 0.0 0 1 173.71 62.34
  Z"
/>
<path fill="#ffffff" d="
  M 171.55 65.49
  A 0.57 0.56 63.7 0 0 171.88 64.51
  Q 169.52 62.36 166.73 62.07
  Q 164.17 61.81 166.22 60.25
  Q 167.43 59.32 169.41 59.50
  Q 170.09 59.57 169.85 60.21
  L 169.61 60.87
  A 0.87 0.86 -66.0 0 0 170.01 61.93
  Q 171.69 62.80 172.98 64.16
  Q 174.09 65.33 172.78 66.27
  C 170.88 67.63 167.40 64.89 166.07 63.63
  Q 165.72 63.30 166.16 63.10
  L 166.67 62.86
  A 0.51 0.51 0.0 0 1 167.22 62.94
  C 168.35 63.96 169.90 65.62 171.55 65.49
  Z"
/>
<path fill="#002a8c" d="
  M 28.19 62.15
  Q 28.52 62.45 28.49 62.84
  A 0.46 0.45 -78.1 0 1 27.88 63.24
  Q 26.42 62.71 27.13 61.38
  A 0.39 0.39 0.0 0 1 27.77 61.32
  Q 27.91 61.49 27.95 61.71
  Q 27.99 61.97 28.19 62.15
  Z"
/>
<path fill="#ffffff" d="
  M 162.61 66.24
  Q 161.90 65.79 161.08 65.45
  Q 160.47 65.19 160.47 64.56
  Q 160.48 63.96 161.07 63.97
  L 163.26 63.98
  Q 163.72 63.98 163.99 63.62
  Q 164.42 63.06 165.11 62.99
  Q 165.77 62.93 165.57 63.56
  L 165.46 63.92
  Q 165.26 64.55 165.86 64.82
  Q 166.90 65.30 167.72 66.19
  Q 167.92 66.40 167.81 66.66
  Q 167.59 67.18 167.06 66.95
  L 166.08 66.53
  Q 165.57 66.31 165.17 66.69
  Q 164.17 67.65 162.71 67.86
  A 0.87 0.87 0.0 0 0 162.06 69.14
  Q 162.78 70.48 164.11 70.25
  Q 164.78 70.14 164.48 70.75
  L 163.56 72.60
  A 0.53 0.53 0.0 0 1 162.58 72.51
  Q 162.02 70.54 160.41 69.29
  A 0.52 0.51 -58.8 0 1 160.26 68.66
  Q 160.88 67.35 162.53 66.83
  Q 163.21 66.61 162.61 66.24
  Z"
/>
<circle fill="#ffffff" cx="96.13" cy="76.06" r="3.30"/>
<circle fill="#ffffff" cx="114.83" cy="83.92" r="3.32"/>
<path fill="#ffffff" d="
  M 88.66 97.01
  L 89.73 86.70
  Q 89.95 84.60 90.79 86.54
  L 91.18 87.46
  Q 91.51 88.22 92.27 87.89
  L 101.53 83.83
  Q 103.89 82.80 102.28 84.81
  Q 101.96 85.22 101.61 85.61
  A 0.50 0.50 0.0 0 0 101.69 86.36
  L 110.80 92.94
  Q 111.63 93.53 110.62 93.62
  Q 109.63 93.71 108.67 93.53
  A 0.67 0.67 0.0 0 0 107.87 94.12
  L 106.85 104.55
  Q 106.84 104.75 106.65 104.82
  Q 106.51 104.88 106.35 104.83
  Q 106.16 104.76 106.11 104.56
  Q 105.93 103.69 105.29 103.23
  Q 104.90 102.95 104.45 103.14
  L 94.67 107.45
  Q 93.71 107.87 94.18 106.93
  Q 94.51 106.26 95.01 105.72
  Q 95.50 105.19 94.92 104.76
  L 86.01 98.21
  Q 85.28 97.68 86.18 97.61
  Q 86.96 97.54 87.70 97.71
  Q 88.57 97.89 88.66 97.01
  Z
  M 104.10 95.69
  A 6.00 6.00 0.0 0 0 98.10 89.69
  A 6.00 6.00 0.0 0 0 92.10 95.69
  A 6.00 6.00 0.0 0 0 98.10 101.69
  A 6.00 6.00 0.0 0 0 104.10 95.69
  Z"
/>
<circle fill="#ffffff" cx="79.99" cy="87.40" r="3.31"/>
<circle fill="#002a8c" cx="98.10" cy="95.69" r="6.00"/>
<circle fill="#ffffff" cx="116.82" cy="104.17" r="3.32"/>
<circle fill="#ffffff" cx="81.97" cy="107.49" r="3.31"/>
<circle fill="#ffffff" cx="100.12" cy="115.89" r="3.32"/>
<path fill="#ffffff" d="
  M 165.38 120.04
  Q 164.84 121.34 166.31 121.45
  Q 167.20 121.52 167.98 121.07
  C 169.51 120.17 170.41 119.11 172.43 119.89
  C 174.04 120.52 175.32 122.83 173.64 124.12
  Q 173.30 124.37 173.27 124.80
  Q 173.21 125.56 172.50 125.27
  L 171.05 124.67
  Q 170.19 124.32 171.11 124.16
  L 172.74 123.88
  A 1.20 1.20 0.0 0 0 173.61 122.17
  Q 172.93 120.80 171.54 121.42
  C 170.13 122.05 169.19 123.30 167.53 123.19
  Q 165.45 123.05 164.64 121.32
  A 1.92 1.90 -39.7 0 1 164.83 119.38
  Q 166.01 117.77 167.29 118.30
  Q 168.11 118.64 167.28 118.95
  L 166.03 119.41
  A 1.14 1.12 -88.5 0 0 165.38 120.04
  Z"
/>
<path fill="#ffffff" d="
  M 33.48 121.75
  A 1.35 1.33 -11.0 0 0 32.36 121.01
  Q 28.63 120.76 26.00 122.92
  A 1.46 1.46 0.0 0 0 25.47 124.18
  Q 25.60 125.60 26.96 126.24
  Q 27.26 126.38 27.10 126.67
  L 26.98 126.90
  Q 26.95 126.96 26.90 126.93
  C 23.89 125.52 23.71 122.35 26.36 120.56
  C 29.57 118.40 35.13 118.69 34.48 123.96
  Q 34.42 124.46 33.95 124.62
  L 33.29 124.85
  Q 31.86 125.33 32.93 124.27
  Q 34.14 123.05 33.48 121.75
  Z"
/>
<path fill="#ffffff" d="
  M 169.17 131.53
  Q 165.53 129.47 161.95 128.16
  Q 161.44 127.97 161.67 127.47
  L 163.25 123.98
  Q 163.53 123.37 164.15 123.64
  Q 164.52 123.80 164.83 124.09
  Q 165.27 124.51 164.67 124.63
  Q 163.96 124.77 163.43 125.24
  A 1.02 1.02 0.0 0 0 163.67 126.92
  L 169.45 129.62
  Q 169.97 129.87 170.45 129.56
  C 171.53 128.89 171.31 127.69 170.48 126.93
  Q 169.92 126.41 170.68 126.46
  Q 171.42 126.51 171.96 127.02
  Q 172.38 127.42 172.15 127.96
  Q 171.29 130.00 170.20 132.04
  Q 169.84 132.69 169.60 131.99
  Q 169.57 131.93 169.54 131.87
  Q 169.39 131.65 169.17 131.53
  Z"
/>
<path fill="#ffffff" d="
  M 32.20 129.65
  Q 29.98 129.59 28.33 131.32
  Q 27.68 132.01 27.41 131.10
  Q 27.24 130.55 26.90 130.11
  Q 26.48 129.54 27.15 129.33
  Q 31.36 128.03 34.98 125.53
  Q 35.36 125.26 35.58 125.68
  L 36.30 127.05
  Q 36.58 127.60 35.96 127.60
  Q 33.77 127.59 32.43 129.53
  Q 32.35 129.66 32.20 129.65
  Z"
/>
<path fill="#ffffff" d="
  M 166.35 126.37
  L 167.93 127.02
  Q 169.15 127.53 167.85 127.76
  Q 166.51 127.99 165.90 126.88
  A 0.36 0.36 0.0 0 1 166.35 126.37
  Z"
/>
<path fill="#ffffff" d="
  M 33.67 130.94
  Q 35.44 130.40 36.61 129.28
  Q 37.03 128.87 37.32 129.37
  L 37.98 130.50
  Q 38.26 130.98 37.74 131.16
  Q 33.71 132.59 29.91 134.91
  Q 29.34 135.25 29.08 134.65
  L 28.65 133.68
  Q 28.48 133.29 28.87 133.14
  L 31.87 131.97
  Q 32.41 131.76 32.53 131.20
  Q 32.66 130.61 33.17 130.89
  A 0.65 0.65 0.0 0 0 33.67 130.94
  Z"
/>
<path fill="#ffffff" d="
  M 167.28 135.94
  Q 168.05 134.84 167.61 133.55
  Q 167.50 133.23 167.83 133.13
  L 168.07 133.05
  Q 168.10 133.05 168.11 133.07
  Q 169.03 136.05 167.10 137.51
  C 164.14 139.76 160.12 136.61 159.06 133.82
  A 2.70 2.69 57.3 0 1 159.68 130.95
  L 161.35 129.30
  Q 161.77 128.88 162.02 129.42
  Q 162.20 129.81 162.58 130.02
  Q 163.50 130.52 162.51 130.60
  L 161.09 130.70
  A 1.13 1.10 12.6 0 0 160.23 131.23
  C 158.74 133.74 163.53 136.23 165.30 136.68
  A 1.87 1.86 24.3 0 0 167.28 135.94
  Z"
/>
<path fill="#ffffff" d="
  M 32.09 139.10
  A 0.29 0.29 0.0 0 1 31.69 139.01
  L 31.15 138.16
  A 0.60 0.21 57.7 0 1 31.01 137.54
  L 38.96 132.52
  A 0.60 0.21 57.7 0 1 39.45 132.91
  L 39.99 133.76
  A 0.29 0.29 0.0 0 1 39.90 134.16
  L 32.09 139.10
  Z"
/>
<path fill="#ffffff" d="
  M 39.94 142.50
  Q 40.07 142.54 40.14 142.64
  Q 40.22 142.76 40.11 142.87
  Q 39.00 143.99 37.63 145.00
  Q 35.92 146.26 36.82 144.33
  Q 38.66 140.40 40.03 135.89
  Q 40.39 134.71 41.21 135.64
  L 41.49 135.95
  Q 42.21 136.77 41.72 137.74
  Q 40.61 139.92 39.75 142.12
  Q 39.64 142.41 39.94 142.50
  Z"
/>
<path fill="#ffffff" d="
  M 159.84 138.57
  C 159.01 137.98 157.63 136.86 156.60 136.70
  A 0.42 0.41 21.8 0 1 156.32 136.05
  L 156.62 135.64
  Q 156.98 135.13 157.31 135.65
  Q 158.38 137.29 160.21 138.20
  Q 160.29 138.24 160.24 138.31
  L 160.09 138.53
  Q 159.99 138.67 159.84 138.57
  Z"
/>
<path fill="#ffffff" d="
  M 33.51 141.07
  Q 35.78 139.84 37.71 137.96
  A 0.09 0.09 0.0 0 1 37.84 137.97
  L 37.99 138.17
  Q 38.13 138.36 37.95 138.51
  L 33.85 141.92
  Q 33.78 141.98 33.71 141.92
  L 33.44 141.69
  Q 33.02 141.33 33.51 141.07
  Z"
/>
<path fill="#ffffff" d="
  M 156.26 141.45
  Q 158.31 143.43 161.36 144.90
  Q 161.91 145.16 161.48 145.60
  Q 161.34 145.74 161.23 145.89
  Q 160.62 146.67 160.40 145.70
  Q 160.20 144.85 159.47 144.46
  Q 157.53 143.42 156.12 141.74
  C 155.55 141.07 154.75 140.77 153.90 140.71
  Q 153.21 140.67 153.52 140.05
  L 153.86 139.37
  A 1.06 1.04 20.6 0 1 155.07 138.83
  Q 157.76 139.53 160.72 139.25
  Q 161.20 139.21 161.62 139.46
  Q 162.82 140.20 163.84 141.15
  Q 164.60 141.86 163.57 141.74
  L 156.51 140.90
  Q 155.57 140.79 156.26 141.45
  Z"
/>
<path fill="#ffffff" d="
  M 40.93 142.45
  Q 40.35 142.93 40.71 142.27
  C 41.39 141.01 42.79 140.99 43.37 139.37
  Q 43.62 138.67 43.97 139.33
  L 44.40 140.15
  Q 44.58 140.51 44.20 140.60
  Q 42.71 140.98 40.93 142.45
  Z"
/>
<path fill="#ffffff" d="
  M 43.22 146.20
  Q 41.75 147.01 40.59 148.39
  Q 40.19 148.86 40.57 149.35
  Q 41.50 150.55 42.87 150.29
  Q 43.94 150.09 43.17 150.86
  Q 41.99 152.05 41.00 150.84
  C 40.25 149.94 39.36 149.11 38.54 148.25
  Q 38.17 147.86 38.61 147.56
  Q 41.53 145.55 44.52 142.33
  Q 44.81 142.02 44.81 141.61
  Q 44.80 140.54 45.45 141.38
  Q 46.61 142.87 48.16 144.13
  Q 48.57 144.47 48.50 144.99
  Q 48.39 145.86 47.41 146.30
  Q 46.72 146.60 47.03 145.92
  Q 47.56 144.76 46.81 143.72
  Q 46.37 143.10 45.82 143.64
  L 43.22 146.20
  Z"
/>
<path fill="#ffffff" d="
  M 153.70 146.51
  Q 154.56 148.04 156.14 149.20
  Q 156.63 149.56 157.10 149.17
  Q 158.47 148.05 157.62 146.58
  Q 157.27 145.97 157.91 146.25
  Q 158.63 146.57 159.03 147.14
  Q 159.43 147.71 158.97 148.23
  L 156.17 151.38
  Q 155.83 151.75 155.53 151.35
  Q 152.92 147.82 149.16 145.37
  Q 148.69 145.05 149.07 144.63
  L 151.93 141.53
  A 0.58 0.58 0.0 0 1 152.84 141.61
  L 153.56 142.69
  Q 153.94 143.28 153.32 142.96
  Q 151.89 142.25 151.05 143.42
  Q 150.71 143.89 151.05 144.37
  Q 152.11 145.86 153.70 146.51
  Z"
/>
<path fill="#ffffff" d="
  M 153.70 146.51
  L 153.64 145.08
  Q 153.61 144.44 154.07 144.89
  L 155.37 146.16
  Q 155.95 146.72 155.15 146.79
  Q 154.57 146.85 153.70 146.51
  Z"
/>
<path fill="#ffffff" d="
  M 43.22 146.20
  Q 44.14 146.30 45.10 145.94
  Q 46.22 145.53 45.34 146.33
  L 43.24 148.25
  Q 42.92 148.55 42.97 148.11
  L 43.22 146.20
  Z"
/>
<path fill="#ffffff" d="
  M 154.07 153.08
  Q 154.22 153.20 154.08 153.34
  L 152.85 154.54
  Q 152.70 154.68 152.56 154.53
  L 146.26 147.46
  Q 146.14 147.33 146.28 147.21
  L 147.36 146.35
  Q 147.59 146.17 147.76 146.40
  Q 150.44 150.03 154.07 153.08
  Z"
/>
<path fill="#ffffff" d="
  M 49.29 148.48
  C 49.16 150.24 50.09 152.08 49.17 153.72
  Q 47.90 156.00 45.11 155.00
  A 1.91 1.91 0.0 0 1 43.85 153.37
  Q 43.72 151.85 44.95 151.21
  Q 45.74 150.81 45.33 151.59
  Q 44.73 152.73 45.09 153.87
  A 1.10 1.09 -4.8 0 0 45.97 154.61
  Q 46.85 154.73 47.29 154.01
  C 48.53 152.02 45.58 149.59 48.38 147.36
  Q 50.51 145.66 52.16 147.94
  Q 53.36 149.59 51.47 150.37
  Q 50.82 150.65 51.11 150.00
  Q 51.42 149.32 51.46 148.57
  Q 51.50 147.85 50.83 147.61
  Q 50.51 147.49 50.17 147.54
  Q 49.35 147.65 49.29 148.48
  Z"
/>
<path fill="#ffffff" d="
  M 149.36 156.51
  Q 149.63 156.05 149.61 155.51
  Q 149.59 155.07 150.03 155.15
  L 150.31 155.20
  Q 150.47 155.23 150.44 155.39
  Q 150.15 157.58 148.20 158.39
  C 145.42 159.56 142.58 156.41 141.88 154.06
  C 141.47 152.71 141.68 150.08 143.42 149.65
  Q 144.33 149.42 145.07 148.84
  Q 145.52 148.49 145.81 148.98
  L 146.45 150.03
  Q 146.76 150.53 146.17 150.45
  Q 145.95 150.43 145.79 150.29
  A 1.78 1.72 -20.5 0 0 144.94 149.92
  Q 143.74 149.76 143.20 150.91
  C 142.17 153.13 145.03 156.13 146.76 157.17
  A 1.89 1.89 0.0 0 0 149.36 156.51
  Z"
/>
<path fill="#ffffff" d="
  M 52.43 155.41
  Q 51.45 156.48 50.78 157.59
  A 0.87 0.87 0.0 0 0 51.08 158.79
  Q 52.22 159.48 53.45 158.95
  Q 54.11 158.66 53.80 159.31
  Q 53.43 160.07 52.80 160.40
  Q 52.39 160.62 52.03 160.34
  L 48.65 157.72
  Q 48.30 157.45 48.62 157.15
  Q 51.57 154.37 53.72 150.43
  A 0.64 0.64 0.0 0 1 54.65 150.21
  L 57.61 152.33
  Q 58.11 152.69 57.97 153.28
  Q 57.79 154.06 57.12 154.57
  Q 56.52 155.03 56.73 154.31
  Q 57.14 152.91 56.06 151.89
  A 0.62 0.61 -41.7 0 0 55.28 151.85
  Q 54.00 152.80 53.29 154.26
  Q 52.91 155.04 53.71 154.71
  Q 54.05 154.57 54.43 154.49
  Q 55.40 154.28 54.79 155.07
  L 53.58 156.65
  Q 52.97 157.45 52.99 156.45
  L 53.01 155.65
  Q 53.04 154.76 52.43 155.41
  Z"
/>
<path fill="#ffffff" d="
  M 137.09 155.66
  A 1.01 1.01 0.0 0 0 138.24 156.76
  Q 141.80 156.27 143.47 158.94
  C 144.81 161.09 142.96 162.58 140.95 163.05
  Q 140.39 163.18 140.08 162.68
  L 139.34 161.48
  Q 138.91 160.79 139.66 161.11
  Q 140.15 161.32 140.53 161.69
  Q 140.84 161.99 141.27 162.05
  Q 142.21 162.19 142.75 161.51
  A 1.33 1.33 0.0 0 0 142.05 159.40
  Q 140.80 159.07 139.52 159.01
  C 137.65 158.92 135.94 157.14 136.31 155.29
  A 2.39 2.39 0.0 0 1 140.03 153.80
  Q 140.12 153.86 140.29 154.57
  Q 140.45 155.18 139.85 154.98
  Q 139.68 154.92 139.57 154.78
  Q 139.27 154.39 138.76 154.31
  Q 137.24 154.06 137.09 155.66
  Z"
/>
<path fill="#ffffff" d="
  M 63.30 162.85
  Q 63.94 161.70 63.52 160.61
  A 0.30 0.30 0.0 0 0 63.05 160.49
  Q 62.96 160.57 62.84 160.61
  Q 62.48 160.75 62.73 160.47
  Q 63.92 159.17 65.28 157.73
  Q 66.32 156.64 66.01 158.11
  Q 65.08 162.48 64.57 166.81
  Q 64.49 167.52 63.86 167.19
  L 62.91 166.70
  A 0.72 0.71 -55.5 0 1 62.71 165.59
  Q 63.65 164.54 62.73 163.39
  A 1.36 1.34 73.9 0 0 61.86 162.90
  Q 60.30 162.71 60.02 164.16
  Q 59.93 164.67 59.42 164.81
  Q 59.10 164.90 58.84 164.75
  A 0.48 0.47 40.0 0 1 58.77 163.98
  L 61.67 161.43
  Q 62.24 160.94 62.13 161.68
  Q 62.03 162.29 62.32 162.84
  Q 62.80 163.74 63.30 162.85
  Z"
/>
<path fill="#ffffff" d="
  M 129.69 164.24
  Q 130.19 165.96 131.34 167.35
  A 0.68 0.67 49.1 0 1 131.28 168.28
  Q 130.76 168.77 130.06 168.93
  Q 129.58 169.03 129.45 168.56
  Q 128.27 164.37 126.00 160.73
  Q 125.70 160.25 126.20 160.00
  L 129.69 158.23
  A 0.77 0.77 0.0 0 1 130.69 158.51
  Q 131.13 159.21 131.18 160.07
  Q 131.22 160.61 130.90 160.17
  Q 130.31 159.32 129.16 159.30
  A 1.17 1.16 -12.9 0 0 128.10 160.99
  L 129.01 162.79
  Q 129.63 164.01 130.05 162.71
  L 130.27 162.02
  Q 130.48 161.35 130.77 162.00
  L 131.64 163.97
  Q 132.05 164.90 131.19 164.37
  L 130.28 163.80
  Q 129.41 163.26 129.69 164.24
  Z"
/>
<path fill="#ffffff" d="
  M 72.83 161.13
  C 70.12 159.75 68.38 164.77 68.16 166.55
  C 67.93 168.30 69.63 169.75 71.18 168.73
  Q 71.51 168.52 71.67 168.87
  L 71.78 169.10
  A 0.08 0.08 0.0 0 1 71.74 169.20
  C 62.98 172.60 66.51 155.43 74.35 161.26
  Q 74.76 161.56 74.74 162.06
  Q 74.70 162.82 74.22 163.47
  Q 73.75 164.11 73.65 163.32
  L 73.49 162.08
  Q 73.41 161.43 72.83 161.13
  Z"
/>
<path fill="#ffffff" d="
  M 124.5031 171.2726
  A 5.12 3.69 71.4 0 1 119.3727 167.5970
  A 5.12 3.69 71.4 0 1 121.2369 161.5674
  A 5.12 3.69 71.4 0 1 126.3673 165.2430
  A 5.12 3.69 71.4 0 1 124.5031 171.2726
  Z
  M 124.3104 170.6999
  A 4.50 1.85 71.6 0 0 124.6454 165.8460
  A 4.50 1.85 71.6 0 0 121.4696 162.1601
  A 4.50 1.85 71.6 0 0 121.1346 167.0140
  A 4.50 1.85 71.6 0 0 124.3104 170.6999
  Z"
/>
<ellipse fill="#002a8c" cx="0.00" cy="0.00" transform="translate(122.89,166.43) rotate(71.6)" rx="4.50" ry="1.85"/>
<path fill="#ffffff" d="
  M 76.87 166.32
  Q 76.16 166.60 75.76 167.22
  Q 75.40 167.78 75.99 168.09
  L 76.25 168.23
  Q 77.16 168.72 76.13 168.75
  Q 74.40 168.79 74.39 170.56
  Q 74.38 171.11 73.82 171.09
  Q 73.66 171.09 73.50 171.07
  Q 72.85 171.03 73.21 170.49
  L 78.43 162.87
  Q 78.97 162.08 79.00 163.04
  L 79.28 172.06
  Q 79.30 172.70 78.69 172.50
  L 77.04 171.98
  A 0.25 0.24 33.7 0 1 76.95 171.56
  Q 77.13 171.41 77.25 171.22
  Q 77.55 170.75 77.46 170.18
  Q 77.21 168.52 77.51 166.86
  Q 77.67 166.02 76.87 166.32
  Z"
/>
<path fill="#ffffff" d="
  M 83.11 163.80
  A 0.24 0.24 0.0 0 1 83.39 163.61
  L 85.30 163.95
  A 4.25 3.94 -79.8 0 1 88.42 168.83
  L 88.18 170.15
  A 4.25 3.94 -79.8 0 1 83.55 173.64
  L 81.64 173.29
  A 0.24 0.24 0.0 0 1 81.45 173.01
  L 83.11 163.80
  Z
  M 84.81 164.81
  L 83.38 172.82
  A 0.15 0.15 0.0 0 0 83.51 172.99
  L 83.57 173.01
  A 3.35 2.14 -79.9 0 0 86.27 170.08
  L 86.57 168.37
  A 3.35 2.14 -79.9 0 0 85.05 164.70
  L 84.99 164.68
  A 0.15 0.15 0.0 0 0 84.81 164.81
  Z"
/>
<path fill="#ffffff" d="
  M 112.53 164.41
  C 112.11 165.67 111.85 166.98 111.35 168.21
  Q 111.30 168.31 111.34 168.24
  Q 111.38 168.14 111.36 168.22
  Q 111.34 168.32 111.34 168.21
  Q 111.41 166.29 111.32 164.55
  A 0.36 0.36 0.0 0 1 111.58 164.19
  L 112.15 164.02
  Q 112.71 163.86 112.53 164.41
  Z"
/>
<path fill="#002a8c" d="
  M 84.81 164.81
  A 0.15 0.15 0.0 0 1 84.99 164.68
  L 85.05 164.70
  A 3.35 2.14 -79.9 0 1 86.57 168.37
  L 86.27 170.08
  A 3.35 2.14 -79.9 0 1 83.57 173.01
  L 83.51 172.99
  A 0.15 0.15 0.0 0 1 83.38 172.82
  L 84.81 164.81
  Z"
/>
<path fill="#ffffff" d="
  M 91.73 170.34
  L 91.45 173.63
  Q 91.39 174.36 92.12 174.41
  Q 93.70 174.51 94.52 172.94
  Q 94.94 172.14 94.97 173.04
  Q 95.01 173.88 94.62 174.59
  A 0.90 0.89 17.7 0 1 93.73 175.04
  L 89.74 174.55
  Q 89.23 174.48 89.36 173.98
  Q 90.44 169.78 90.17 165.29
  Q 90.13 164.70 90.71 164.80
  Q 92.21 165.04 93.75 164.95
  Q 94.52 164.91 95.00 165.45
  Q 95.51 166.02 95.15 166.98
  Q 94.83 167.82 94.46 167.00
  Q 94.34 166.71 94.25 166.41
  Q 94.05 165.74 93.38 165.56
  Q 92.99 165.46 92.58 165.55
  Q 92.03 165.68 91.99 166.23
  L 91.80 168.49
  Q 91.69 169.82 92.74 169.00
  L 93.07 168.74
  Q 93.61 168.32 93.53 169.00
  L 93.35 170.65
  Q 93.27 171.43 92.77 170.83
  L 92.23 170.18
  Q 91.79 169.65 91.73 170.34
  Z"
/>
<path fill="#ffffff" d="
  M 110.12 168.69
  Q 110.23 168.82 110.39 168.87
  A 0.55 0.54 5.6 0 1 110.75 169.30
  L 111.54 173.61
  Q 111.67 174.33 110.95 174.25
  Q 110.42 174.20 109.91 174.39
  Q 109.22 174.65 109.37 173.93
  C 109.97 170.98 107.63 167.90 106.16 165.48
  Q 105.76 164.82 106.52 164.80
  L 107.98 164.76
  A 0.48 0.47 85.2 0 1 108.46 165.17
  Q 108.70 167.05 110.12 168.69
  Z"
/>
<path fill="#ffffff" d="
  M 102.29 166.82
  A 1.40 1.39 -10.8 0 1 103.43 165.15
  L 104.21 165.02
  Q 104.68 164.95 104.66 165.43
  Q 104.42 169.90 105.03 174.71
  Q 105.06 174.97 104.79 174.97
  L 103.02 174.98
  Q 102.78 174.98 102.81 174.74
  Q 103.32 171.46 102.29 166.82
  Z"
/>
<path fill="#ffffff" d="
  M 100.29 174.28
  L 96.76 165.70
  A 0.33 0.33 0.0 0 1 97.09 165.25
  L 98.62 165.39
  A 0.33 0.33 0.0 0 1 98.89 165.60
  L 101.27 171.85
  A 0.33 0.33 0.0 0 1 101.29 172.02
  L 100.92 174.21
  A 0.33 0.33 0.0 0 1 100.29 174.28
  Z"
/>
<path fill="#ffffff" d="
  M 97.19 169.74
  Q 97.72 171.14 97.38 172.53
  Q 97.35 172.65 97.32 172.53
  Q 96.89 171.00 97.18 169.44
  Q 97.19 169.38 97.13 169.37
  Q 97.13 169.37 97.13 169.37
  Q 97.13 169.37 97.13 169.38
  Q 97.12 169.57 97.19 169.74
  Z"
/>
<path fill="#ffffff" d="
  M 97.91 174.15
  Q 97.96 174.30 98.09 174.40
  A 0.33 0.33 0.0 0 1 97.92 174.97
  L 97.01 175.09
  Q 95.95 175.22 96.68 174.44
  L 97.04 174.04
  Q 97.66 173.38 97.91 174.15
  Z"
/>
</svg>
