<?xml version="1.0" encoding="UTF-8" standalone="no"?>
<!DOCTYPE svg PUBLIC "-//W3C//DTD SVG 1.1//EN" "http://www.w3.org/Graphics/SVG/1.1/DTD/svg11.dtd">
<svg xmlns="http://www.w3.org/2000/svg" version="1.1" viewBox="0.00 0.00 800.00 780.00">
<path fill="#ffffff" d="
  M 0.00 0.00
  L 800.00 0.00
  L 800.00 780.00
  L 0.00 780.00
  L 0.00 0.00
  Z
  M 754.68 380.23
  A 359.07 359.07 0.0 0 0 395.61 21.16
  A 359.07 359.07 0.0 0 0 36.54 380.23
  A 359.07 359.07 0.0 0 0 395.61 739.30
  A 359.07 359.07 0.0 0 0 754.68 380.23
  Z"
/>
<path fill="#1b3e97" d="
  M 754.68 380.23
  A 359.07 359.07 0.0 0 1 395.61 739.30
  A 359.07 359.07 0.0 0 1 36.54 380.23
  A 359.07 359.07 0.0 0 1 395.61 21.16
  A 359.07 359.07 0.0 0 1 754.68 380.23
  Z
  M 750.81 380.17
  A 355.25 355.25 0.0 0 0 395.56 24.92
  A 355.25 355.25 0.0 0 0 40.31 380.17
  A 355.25 355.25 0.0 0 0 395.56 735.42
  A 355.25 355.25 0.0 0 0 750.81 380.17
  Z"
/>
<path fill="#ffffff" d="
  M 750.81 380.17
  A 355.25 355.25 0.0 0 1 395.56 735.42
  A 355.25 355.25 0.0 0 1 40.31 380.17
  A 355.25 355.25 0.0 0 1 395.56 24.92
  A 355.25 355.25 0.0 0 1 750.81 380.17
  Z
  M 741.5862 373.4788
  A 345.94 345.86 -1.1 0 0 389.0704 34.3237
  A 345.94 345.86 -1.1 0 0 49.8338 386.7612
  A 345.94 345.86 -1.1 0 0 402.3496 725.9163
  A 345.94 345.86 -1.1 0 0 741.5862 373.4788
  Z"
/>
<path fill="#012a8d" d="
  M 741.5862 373.4788
  A 345.94 345.86 -1.1 0 1 402.3496 725.9163
  A 345.94 345.86 -1.1 0 1 49.8338 386.7612
  A 345.94 345.86 -1.1 0 1 389.0704 34.3237
  A 345.94 345.86 -1.1 0 1 741.5862 373.4788
  Z
  M 378.80 90.69
  Q 374.89 91.15 373.24 87.14
  Q 373.02 86.59 372.46 86.79
  C 370.28 87.56 369.17 89.49 368.08 91.37
  Q 365.76 95.34 366.88 100.08
  A 1.92 1.92 0.0 0 0 369.02 101.54
  C 371.43 101.20 373.06 99.26 374.35 97.34
  C 376.12 94.70 379.43 95.89 379.91 98.81
  C 380.49 102.36 381.56 105.01 385.74 105.53
  A 1.04 1.04 0.0 0 0 386.83 104.91
  C 387.63 103.05 386.50 99.59 386.00 97.65
  C 384.92 93.40 385.61 88.33 387.46 84.49
  C 388.06 83.25 387.50 82.00 387.01 80.84
  A 2.84 2.83 -27.8 0 1 388.09 77.37
  C 394.74 73.05 388.90 67.85 383.94 72.11
  Q 382.56 73.30 381.51 75.06
  A 1.69 1.68 -79.7 0 1 380.38 75.85
  Q 377.06 76.46 373.32 76.12
  A 1.16 1.15 -77.7 0 1 372.34 74.59
  C 373.38 71.59 377.46 68.62 379.52 66.06
  Q 384.41 60.00 389.40 55.29
  C 393.30 51.62 384.94 46.59 383.04 53.25
  Q 382.62 54.72 381.80 55.91
  Q 376.72 63.29 367.79 72.31
  C 365.57 74.55 364.24 77.06 363.30 80.09
  Q 362.97 81.15 363.89 81.72
  A 1.23 1.23 0.0 0 0 364.87 81.85
  Q 369.62 80.48 375.06 79.98
  Q 380.00 79.53 380.05 84.16
  Q 380.08 87.05 379.69 89.82
  Q 379.58 90.60 378.80 90.69
  Z
  M 405.23 88.81
  Q 405.74 89.73 405.66 90.81
  Q 404.69 104.21 405.38 118.43
  A 0.48 0.47 -20.4 0 0 406.15 118.78
  Q 406.46 118.53 406.58 118.15
  Q 409.38 109.16 412.30 100.15
  C 413.68 95.87 414.12 91.62 414.91 87.26
  A 3.22 3.19 -9.7 0 1 416.49 85.05
  Q 417.73 84.37 419.06 83.91
  C 423.27 82.49 420.73 78.80 418.48 77.28
  C 416.30 75.82 416.10 72.48 416.40 70.15
  C 416.85 66.53 419.67 50.81 411.33 52.85
  C 409.57 53.29 408.49 55.99 407.77 57.53
  A 2.33 2.32 19.5 0 1 405.09 58.80
  Q 402.86 58.24 400.79 58.30
  A 1.64 1.64 0.0 0 0 399.22 60.24
  C 399.60 62.29 400.08 64.16 399.40 66.24
  C 398.85 67.93 398.20 69.48 398.13 71.27
  Q 397.99 74.50 398.00 77.79
  Q 398.00 78.46 397.61 79.00
  C 394.38 83.45 392.17 87.23 392.06 92.83
  A 1.27 1.26 -86.5 0 0 393.19 94.11
  Q 395.34 94.35 397.23 93.09
  Q 400.39 90.99 403.97 88.53
  A 0.88 0.87 -32.2 0 1 405.23 88.81
  Z
  M 568.40 108.42
  C 570.02 106.30 575.11 94.37 569.28 94.32
  Q 568.70 94.31 568.29 94.71
  Q 564.86 97.98 562.06 102.02
  Q 560.28 104.58 562.08 107.12
  Q 562.93 108.32 564.01 109.09
  Q 566.52 110.88 568.40 108.42
  Z
  M 221.26 162.36
  Q 222.91 162.76 224.40 162.54
  Q 227.61 163.29 230.78 164.10
  Q 234.23 164.99 236.66 164.60
  Q 251.38 162.28 260.69 153.42
  Q 264.47 149.83 261.79 146.17
  C 254.48 136.21 247.06 126.13 240.36 115.71
  C 236.77 110.15 233.39 105.16 227.88 101.34
  Q 221.20 96.71 215.12 101.83
  Q 206.16 109.38 203.15 120.13
  C 201.50 126.00 200.44 132.26 201.99 138.42
  Q 202.49 140.41 203.82 141.78
  C 207.01 145.07 208.55 149.71 211.14 153.35
  Q 215.21 159.08 218.97 164.79
  Q 219.58 165.70 219.82 166.74
  Q 220.29 168.73 218.54 167.66
  Q 212.14 163.78 209.46 156.62
  C 207.56 151.54 204.91 146.97 202.88 141.97
  Q 202.67 141.45 202.24 141.10
  Q 200.16 139.41 200.02 136.48
  Q 200.01 136.12 199.65 136.11
  L 199.40 136.11
  Q 199.30 136.11 199.29 136.21
  Q 199.01 140.40 200.41 143.98
  Q 204.85 155.27 212.65 167.15
  Q 214.15 169.43 215.28 171.66
  C 216.52 174.11 217.91 177.34 220.57 178.50
  A 1.54 1.54 0.0 0 0 222.57 177.77
  C 224.76 173.28 222.83 170.56 220.98 166.61
  C 220.32 165.21 220.78 163.76 221.26 162.36
  Z
  M 585.30 110.03
  C 584.21 108.42 583.11 105.04 580.94 104.76
  Q 580.31 104.69 580.01 105.25
  C 578.86 107.43 573.69 115.26 580.27 115.01
  Q 585.41 114.80 590.00 115.20
  Q 594.54 115.59 590.79 113.01
  C 589.06 111.82 586.49 111.79 585.30 110.03
  Z
  M 581.92 123.89
  A 0.26 0.25 85.5 0 1 582.15 123.61
  Q 588.08 123.03 594.00 125.83
  Q 595.87 126.71 596.63 124.79
  C 597.93 121.48 600.24 115.89 594.36 115.28
  Q 593.83 115.23 593.73 115.75
  C 593.23 118.49 591.32 119.95 588.56 119.85
  C 583.94 119.70 579.45 119.97 574.98 119.34
  Q 568.61 118.43 561.90 117.87
  C 558.85 117.62 555.56 114.71 552.82 113.44
  Q 551.14 112.66 550.07 114.18
  Q 547.16 118.35 544.22 122.50
  Q 542.46 124.99 541.73 127.83
  Q 541.47 128.82 542.36 129.19
  A 2.03 2.02 46.3 0 0 543.79 129.23
  Q 549.24 127.29 554.58 124.27
  C 557.38 122.67 561.71 120.60 565.02 121.29
  Q 569.98 122.33 575.18 123.83
  A 1.82 1.81 -89.8 0 1 576.43 125.10
  C 577.42 128.69 578.69 133.75 574.80 136.08
  Q 572.17 137.66 569.50 139.31
  Q 568.88 139.70 569.47 140.14
  Q 571.15 141.40 573.28 140.97
  C 578.55 139.92 582.17 135.90 582.16 130.45
  Q 582.16 126.98 581.92 123.89
  Z
  M 548.78 151.78
  A 0.71 0.71 0.0 0 1 548.00 151.84
  C 543.85 149.59 539.51 147.30 536.49 143.48
  Q 534.28 140.68 532.23 137.82
  Q 530.87 135.91 529.26 137.61
  Q 528.77 138.12 528.40 138.86
  Q 527.40 140.85 528.85 142.54
  Q 530.53 144.50 532.59 146.10
  Q 538.12 150.38 544.83 154.63
  A 2.49 2.48 30.3 0 1 545.69 157.91
  C 543.07 162.79 537.38 159.33 534.73 156.82
  Q 530.82 153.13 527.01 150.64
  A 0.49 0.49 0.0 0 0 526.26 151.15
  C 527.18 155.63 534.06 163.15 538.73 163.85
  C 542.39 164.40 546.16 162.21 548.90 159.95
  C 552.81 156.74 557.46 164.43 561.58 164.34
  A 0.82 0.82 0.0 0 0 562.32 163.20
  C 560.66 159.30 557.43 156.89 554.20 154.33
  A 1.02 1.02 0.0 0 1 553.84 153.28
  C 554.91 149.06 556.05 145.32 560.23 143.12
  Q 564.13 141.08 566.23 137.48
  Q 566.49 137.03 566.19 136.61
  Q 561.76 130.50 555.51 129.01
  Q 553.39 128.50 551.64 129.29
  A 1.28 1.27 -6.5 0 0 550.91 130.20
  C 550.30 133.23 554.57 135.29 556.72 136.44
  Q 557.27 136.73 557.26 137.36
  C 557.17 140.70 554.04 142.63 551.95 144.81
  C 549.97 146.88 550.86 150.12 548.78 151.78
  Z
  M 643.43 383.31
  A 250.82 250.82 0.0 0 0 392.61 132.49
  A 250.82 250.82 0.0 0 0 141.79 383.31
  A 250.82 250.82 0.0 0 0 392.61 634.13
  A 250.82 250.82 0.0 0 0 643.43 383.31
  Z
  M 658.11 229.45
  Q 657.87 225.61 656.35 223.67
  C 653.40 219.88 641.17 224.17 637.06 225.59
  C 634.27 226.55 631.39 226.68 628.54 227.44
  Q 625.57 228.24 624.76 230.69
  C 623.45 234.66 620.82 238.54 621.57 242.89
  A 1.11 1.11 0.0 0 0 622.61 243.80
  Q 626.06 243.93 629.22 242.61
  C 632.83 241.09 636.86 240.46 640.76 239.78
  Q 643.88 239.24 646.10 237.21
  Q 649.48 234.15 653.23 231.63
  Q 654.62 230.70 654.39 232.36
  Q 654.13 234.23 654.54 236.32
  C 655.24 239.86 658.83 239.56 661.05 237.93
  C 663.11 236.43 665.43 235.87 666.79 233.50
  Q 667.85 231.66 667.83 229.33
  A 1.34 1.33 77.4 0 1 668.61 228.10
  Q 671.71 226.68 674.80 225.48
  C 680.50 223.26 673.50 216.00 671.15 214.22
  A 3.07 2.80 36.2 0 0 666.95 214.67
  Q 666.50 215.30 666.47 216.56
  Q 666.45 217.53 666.78 218.47
  C 668.35 222.85 665.68 224.68 663.52 227.85
  Q 661.96 230.13 658.62 229.95
  Q 658.14 229.92 658.11 229.45
  Z
  M 103.37 248.59
  C 100.11 248.86 98.38 246.78 96.31 244.74
  Q 95.29 243.74 94.22 244.67
  Q 91.05 247.42 87.05 250.07
  Q 84.43 251.80 84.16 254.99
  A 0.99 0.99 0.0 0 0 85.12 256.06
  Q 93.01 256.24 101.24 260.42
  C 105.12 262.40 104.71 266.66 105.93 270.21
  Q 107.66 275.25 109.52 280.34
  Q 110.04 281.79 109.72 283.14
  A 1.25 1.25 0.0 0 1 108.52 284.09
  Q 104.40 284.11 100.35 283.14
  Q 98.74 282.76 97.37 283.57
  A 1.39 1.38 61.9 0 0 96.84 285.34
  Q 98.00 287.78 100.45 288.56
  Q 105.56 290.20 111.62 290.79
  C 117.01 291.31 121.24 289.45 119.92 283.06
  A 0.75 0.75 0.0 0 0 119.21 282.46
  Q 115.38 282.32 114.17 278.88
  Q 112.61 274.47 112.21 270.27
  A 1.64 1.64 0.0 0 1 114.20 268.51
  C 116.45 269.01 121.59 270.38 122.95 272.67
  A 1.03 1.02 47.8 0 1 122.90 273.79
  Q 120.88 276.65 120.08 279.74
  A 0.81 0.81 0.0 0 0 121.12 280.71
  C 123.75 279.84 126.65 276.67 128.40 274.65
  A 0.84 0.83 29.1 0 1 129.29 274.40
  C 131.88 275.27 134.12 276.73 136.71 277.42
  Q 141.58 278.72 146.74 280.76
  Q 148.74 281.55 150.55 281.14
  A 0.52 0.52 0.0 0 0 150.85 280.32
  C 149.22 278.07 146.28 276.53 143.98 275.00
  Q 141.34 273.26 139.08 271.03
  Q 134.78 266.80 129.22 262.73
  C 127.54 261.50 125.80 259.51 125.96 257.25
  C 126.23 253.54 126.83 248.94 125.46 245.50
  Q 125.11 244.61 124.16 244.51
  A 0.73 0.72 -82.7 0 0 123.36 245.13
  Q 122.82 249.07 120.67 252.56
  A 1.24 1.24 0.0 0 1 118.46 252.37
  Q 115.22 244.37 113.98 233.83
  Q 113.67 231.23 111.25 231.66
  Q 108.65 232.12 107.49 234.80
  Q 104.56 241.58 104.09 247.87
  Q 104.04 248.53 103.37 248.59
  Z
  M 697.38 247.16
  A 2.26 2.26 0.0 0 0 697.58 245.99
  L 696.95 239.48
  A 2.26 2.26 0.0 0 0 692.97 238.25
  L 688.72 243.32
  A 2.26 2.26 0.0 0 0 689.28 246.70
  L 693.61 249.32
  A 2.26 2.26 0.0 0 0 696.83 248.34
  L 697.38 247.16
  Z
  M 676.61 245.84
  A 0.75 0.75 0.0 0 1 676.56 244.70
  C 677.84 243.49 680.17 241.46 680.24 239.58
  A 2.03 2.02 85.0 0 0 677.79 237.52
  Q 674.96 238.13 672.09 238.08
  C 667.43 238.01 663.64 239.55 661.21 243.81
  A 2.44 2.44 0.0 0 0 662.51 247.32
  Q 665.91 248.53 669.35 248.74
  C 675.52 249.12 681.10 253.24 686.24 256.32
  Q 688.01 257.39 688.17 259.41
  Q 688.27 260.65 687.15 261.18
  C 681.82 263.73 678.45 259.57 674.35 257.12
  Q 672.16 255.81 670.48 253.07
  Q 669.10 250.84 666.53 251.35
  Q 666.07 251.44 665.62 251.59
  Q 663.17 252.38 664.82 254.35
  Q 668.99 259.34 673.46 261.44
  Q 675.80 262.55 678.11 263.99
  C 682.15 266.51 686.93 267.20 691.09 264.66
  C 694.27 262.71 693.81 259.23 691.69 256.65
  C 688.85 253.20 684.70 250.99 681.27 248.36
  C 679.85 247.28 678.07 246.97 676.61 245.84
  Z
  M 650.22 266.78
  Q 646.17 268.11 641.92 272.50
  C 638.80 275.73 643.64 279.47 645.70 281.41
  C 648.67 284.21 648.58 289.92 652.34 291.44
  A 1.63 1.63 0.0 0 0 654.57 290.16
  Q 655.29 285.26 658.60 282.39
  Q 659.53 281.58 658.84 280.58
  Q 658.50 280.09 657.93 280.27
  L 655.59 281.01
  Q 655.10 281.16 654.61 281.03
  C 652.34 280.39 646.44 277.22 647.37 274.02
  Q 647.84 272.42 649.56 271.78
  Q 653.80 270.22 657.71 268.78
  Q 659.59 268.09 661.28 266.60
  Q 662.40 265.60 663.85 266.02
  C 666.26 266.71 669.18 267.67 671.48 266.28
  A 0.86 0.86 0.0 0 0 671.64 264.92
  Q 667.80 261.25 663.40 259.22
  C 660.82 258.03 661.86 255.42 662.63 253.49
  A 0.86 0.86 0.0 0 0 661.99 252.33
  C 660.04 251.95 657.85 252.01 656.43 253.62
  Q 654.49 255.83 651.55 255.73
  Q 646.71 255.55 641.98 256.35
  A 1.67 1.67 0.0 0 0 641.08 259.18
  Q 644.72 262.83 650.14 264.25
  Q 654.46 265.39 650.22 266.78
  Z
  M 660.37 483.57
  A 2.47 2.46 -39.6 0 1 660.71 480.06
  Q 664.79 476.77 670.58 474.36
  Q 671.07 474.15 671.11 473.64
  A 0.77 0.77 0.0 0 0 670.41 472.80
  Q 666.56 472.44 662.45 473.59
  Q 662.02 473.71 661.77 474.08
  Q 658.78 478.35 657.64 482.17
  Q 657.09 484.03 658.63 486.18
  Q 662.56 491.70 670.34 492.85
  C 671.85 493.07 672.89 493.37 674.35 492.61
  Q 678.71 490.35 682.74 487.12
  C 684.69 485.56 687.43 483.80 690.00 484.77
  C 693.00 485.91 696.23 489.53 693.97 492.87
  C 691.39 496.68 687.38 496.50 683.35 496.67
  Q 679.80 496.83 683.04 498.28
  L 688.88 500.90
  A 2.67 2.67 0.0 0 0 692.18 499.97
  C 694.09 497.15 696.70 493.83 696.96 490.54
  Q 697.58 482.63 689.75 479.30
  C 682.03 476.02 677.30 479.94 671.57 484.35
  Q 665.19 489.26 660.37 483.57
  Z
  M 117.65 540.66
  Q 120.93 540.35 118.65 542.55
  Q 118.29 542.90 118.36 543.40
  Q 118.71 545.63 120.15 547.47
  Q 121.55 549.25 123.18 550.18
  Q 124.82 554.82 128.08 557.41
  Q 128.49 557.73 128.79 557.31
  Q 131.85 553.04 136.89 550.16
  Q 143.33 546.47 152.07 540.82
  Q 153.38 539.97 157.52 538.10
  Q 158.02 537.88 158.53 538.07
  C 163.55 539.91 160.11 545.17 158.03 547.83
  C 157.13 548.98 155.47 549.25 154.33 550.11
  C 147.67 555.11 141.55 559.75 134.14 563.88
  Q 132.47 564.81 132.91 566.66
  Q 132.99 567.00 133.17 567.25
  Q 134.38 568.93 135.92 567.54
  Q 144.22 560.02 153.37 553.15
  C 154.69 552.16 155.80 550.81 156.96 549.62
  Q 157.37 549.20 157.34 549.79
  Q 157.22 552.15 156.43 554.33
  Q 151.95 566.68 146.21 579.05
  Q 145.68 580.19 145.77 581.34
  Q 145.87 582.71 147.03 581.98
  Q 152.55 578.52 158.71 573.12
  Q 159.55 572.39 159.52 571.39
  Q 159.46 568.38 160.33 565.62
  Q 162.58 558.41 166.79 550.58
  C 168.64 547.14 165.09 542.32 162.71 540.12
  C 160.04 537.63 159.10 533.30 156.75 530.29
  C 154.61 527.55 153.08 525.32 151.69 521.86
  Q 150.03 517.73 147.56 514.04
  Q 147.46 513.31 147.29 513.55
  C 146.63 511.17 145.13 508.82 144.40 507.05
  C 143.56 505.02 142.94 502.89 141.70 501.12
  Q 139.65 498.21 139.09 495.08
  C 137.83 488.06 136.49 481.15 129.11 478.21
  C 120.53 474.79 111.25 477.24 104.07 482.85
  C 97.54 487.95 94.67 496.93 101.22 503.44
  Q 104.86 507.05 108.72 507.45
  Q 111.57 507.74 109.40 505.87
  C 106.40 503.29 103.60 502.61 101.82 498.38
  C 99.59 493.06 108.69 487.51 112.74 486.28
  C 117.76 484.74 124.30 482.84 129.53 483.93
  Q 133.51 484.77 135.39 490.20
  C 136.83 494.37 129.00 497.72 129.23 499.74
  A 0.78 0.78 0.0 0 0 130.20 500.41
  Q 133.84 499.50 136.99 498.27
  Q 139.48 497.30 139.78 499.96
  Q 139.80 500.13 139.83 500.28
  Q 140.35 502.81 138.03 503.96
  Q 130.06 507.89 121.70 511.99
  C 118.08 513.77 111.18 517.25 107.40 516.99
  Q 106.62 516.94 106.82 517.70
  Q 108.15 522.68 110.45 526.36
  C 111.51 528.04 111.90 529.76 112.89 531.43
  Q 113.83 533.02 114.58 535.26
  Q 115.74 538.72 117.65 540.66
  Z
  M 651.62 503.73
  C 653.11 500.52 657.42 496.48 661.19 498.95
  Q 662.49 499.79 663.98 500.28
  Q 664.31 500.39 664.34 500.04
  L 664.37 499.67
  A 0.94 0.92 -69.4 0 0 664.00 498.83
  Q 661.11 496.72 658.36 495.04
  Q 655.32 493.19 653.22 495.82
  Q 650.60 499.11 649.67 502.71
  Q 649.21 504.48 648.27 505.94
  C 646.93 508.06 646.00 509.83 645.47 512.31
  Q 645.36 512.85 645.91 512.79
  Q 648.91 512.49 651.37 513.71
  Q 657.54 516.79 664.87 520.04
  C 668.58 521.69 676.82 525.35 678.05 529.02
  Q 678.28 529.73 678.82 529.21
  C 683.22 525.01 685.39 519.12 687.52 513.59
  Q 689.01 509.72 686.83 507.26
  C 685.27 505.50 682.51 504.97 680.27 504.45
  Q 678.18 503.97 679.78 505.40
  C 682.16 507.53 684.85 510.94 684.51 514.30
  C 684.24 517.07 681.99 520.27 678.72 518.94
  Q 673.20 516.69 668.49 513.18
  C 666.63 511.79 665.63 511.80 663.51 511.85
  Q 662.72 511.86 662.03 511.49
  Q 657.93 509.26 654.30 507.36
  Q 652.57 506.45 651.65 504.73
  Q 651.39 504.24 651.62 503.73
  Z
  M 675.37 510.93
  Q 675.71 510.89 675.70 510.55
  Q 675.69 509.55 674.67 509.19
  Q 669.91 507.53 665.94 505.39
  C 664.38 504.55 662.11 504.04 660.37 504.26
  Q 658.58 504.50 660.15 505.40
  Q 662.19 506.57 664.09 507.70
  C 665.12 508.31 665.49 509.24 666.00 510.26
  A 2.57 2.57 0.0 0 0 668.57 511.66
  L 675.37 510.93
  Z
  M 670.70 541.63
  C 668.90 544.91 665.51 547.53 661.80 546.60
  C 652.56 544.28 643.96 539.20 639.77 530.15
  C 638.58 527.58 640.11 525.38 641.98 523.78
  C 643.97 522.07 648.65 522.19 651.48 521.94
  Q 653.76 521.75 651.83 520.53
  Q 650.08 519.43 648.58 517.90
  C 645.45 514.70 639.62 521.97 637.88 524.24
  Q 633.74 529.62 636.68 536.81
  C 640.55 546.29 651.12 554.15 661.30 552.78
  C 662.83 552.57 664.94 552.71 666.26 551.80
  Q 672.47 547.54 673.68 539.98
  Q 674.54 534.67 670.00 532.07
  A 0.66 0.66 0.0 0 0 669.01 532.61
  Q 668.98 533.22 669.25 533.76
  C 670.93 537.08 672.98 537.46 670.70 541.63
  Z
  M 640.95 558.37
  A 0.19 0.19 0.0 0 1 640.73 558.61
  Q 630.16 556.72 621.16 554.75
  C 616.97 553.84 614.98 557.30 613.22 560.28
  Q 612.07 562.22 614.33 562.38
  C 617.23 562.58 619.54 563.71 621.71 565.63
  Q 628.23 571.39 635.49 576.82
  Q 640.15 580.30 642.59 584.49
  A 1.02 1.01 -34.4 0 0 644.11 584.77
  Q 646.31 582.96 646.26 580.47
  Q 646.25 579.86 645.65 579.75
  Q 641.09 578.95 638.13 576.45
  Q 632.06 571.32 624.34 565.95
  A 0.73 0.72 -49.3 0 1 624.26 564.82
  Q 625.38 563.76 627.05 563.98
  Q 635.32 565.11 642.99 565.57
  C 647.46 565.83 651.60 566.96 655.95 567.67
  Q 656.51 567.76 657.02 567.51
  Q 657.85 567.12 657.17 565.98
  A 1.56 1.55 4.1 0 0 656.82 565.58
  Q 650.70 560.46 644.06 556.01
  C 639.56 552.99 635.72 549.57 631.65 546.10
  C 630.21 544.88 629.42 543.25 628.02 541.94
  A 1.63 1.63 0.0 0 0 626.13 541.70
  Q 625.01 542.31 624.58 543.85
  Q 624.20 545.23 625.50 545.86
  Q 632.94 549.44 639.59 556.12
  Q 640.59 557.13 640.95 558.37
  Z
  M 184.57 572.77
  Q 186.89 574.85 188.61 577.59
  C 190.01 579.81 189.09 582.21 188.41 584.48
  A 0.46 0.46 0.0 0 0 189.05 585.03
  C 191.01 584.08 196.44 582.04 193.79 578.75
  Q 188.60 572.30 183.49 567.45
  C 180.15 564.29 178.08 561.53 176.43 557.40
  A 1.12 1.12 0.0 0 0 174.42 557.25
  C 171.63 562.12 165.31 566.63 160.88 569.81
  Q 160.26 570.26 160.14 571.02
  Q 160.03 571.66 160.61 571.35
  Q 163.34 569.88 165.76 568.03
  Q 170.46 564.44 175.25 561.94
  A 1.67 1.67 0.0 0 1 177.22 562.27
  Q 178.86 564.00 179.65 566.04
  Q 179.83 566.51 179.61 566.96
  Q 178.99 568.23 177.98 569.26
  C 170.22 577.11 163.84 583.96 153.93 590.10
  Q 153.49 590.37 153.46 590.88
  Q 153.35 592.40 154.45 593.70
  C 157.99 597.82 161.78 602.54 166.41 605.36
  Q 167.92 606.28 169.56 605.32
  Q 172.12 603.83 173.72 602.09
  Q 175.24 600.46 173.05 600.88
  Q 165.67 602.31 160.39 596.92
  A 1.34 1.34 0.0 0 1 160.40 595.05
  Q 163.90 591.52 167.85 587.81
  Q 169.41 586.35 171.22 585.43
  C 174.23 583.89 175.21 580.92 177.52 578.79
  Q 180.49 576.03 183.57 572.81
  Q 184.05 572.31 184.57 572.77
  Z
  M 614.69 586.96
  C 613.24 585.16 610.95 584.61 609.34 582.99
  Q 606.16 579.81 602.67 576.78
  Q 601.83 576.05 602.55 575.20
  C 606.96 570.04 613.70 567.84 618.48 574.38
  Q 618.50 574.41 618.53 574.38
  L 618.71 574.20
  Q 618.85 574.06 618.72 573.92
  C 617.06 572.19 616.28 570.03 614.36 568.58
  Q 612.56 567.21 611.13 565.37
  A 0.54 0.54 0.0 0 0 610.44 565.22
  Q 605.18 568.04 601.65 572.40
  Q 600.32 574.05 598.71 575.50
  C 596.73 577.29 595.19 579.45 593.02 581.09
  C 590.41 583.06 588.80 585.77 586.14 587.83
  C 584.55 589.06 583.71 590.84 582.52 592.42
  Q 582.20 592.83 582.68 593.03
  Q 582.99 593.16 583.25 592.92
  Q 585.81 590.54 588.18 593.26
  Q 596.83 603.20 605.62 613.10
  C 607.05 614.72 607.94 616.20 608.24 618.22
  A 1.15 1.15 0.0 0 0 610.15 618.91
  L 615.98 613.59
  Q 616.89 612.75 615.86 612.07
  Q 614.04 610.88 612.43 609.28
  Q 600.71 597.61 592.26 587.02
  Q 590.42 584.72 592.66 582.81
  L 594.57 581.18
  Q 596.50 579.54 598.33 581.29
  Q 608.95 591.41 619.99 601.88
  Q 623.12 604.85 620.39 607.97
  Q 618.70 609.89 616.77 611.70
  Q 616.70 611.76 616.78 611.81
  L 617.01 611.95
  Q 617.15 612.04 617.27 611.93
  Q 627.16 602.87 635.59 592.91
  Q 636.83 591.45 636.73 589.30
  Q 636.71 588.78 636.30 588.45
  Q 633.85 586.44 631.79 584.17
  Q 630.75 583.03 629.09 582.68
  Q 628.38 582.53 628.75 583.15
  C 630.40 585.88 633.34 589.82 631.25 593.07
  Q 629.82 595.29 628.03 597.20
  Q 626.21 599.15 624.38 597.09
  Q 620.88 593.18 617.02 590.52
  Q 616.50 590.17 616.26 589.59
  Q 615.63 588.13 614.69 586.96
  Z
  M 616.98 587.33
  L 621.79 586.59
  Q 622.86 586.43 622.19 585.59
  Q 619.08 581.64 614.17 577.06
  A 0.69 0.69 0.0 0 0 613.23 577.06
  L 613.00 577.28
  A 0.38 0.38 0.0 0 0 613.00 577.84
  Q 616.21 580.83 614.43 584.52
  Q 613.79 585.83 615.03 586.81
  Q 615.89 587.49 616.98 587.33
  Z
  M 180.38 584.02
  C 178.58 584.54 177.29 584.46 175.43 584.26
  A 2.64 2.62 -87.2 0 0 172.53 586.90
  L 172.56 589.70
  Q 172.58 591.76 174.44 590.89
  Q 178.57 588.96 180.69 584.38
  A 0.26 0.26 0.0 0 0 180.38 584.02
  Z
  M 200.11 590.23
  Q 204.10 590.77 206.66 593.32
  A 1.31 1.30 40.4 0 1 206.80 595.01
  Q 204.89 597.63 204.15 600.72
  Q 203.57 603.11 205.60 601.72
  Q 208.72 599.57 211.66 597.06
  A 1.12 1.12 0.0 0 0 211.82 595.51
  Q 206.66 588.94 200.41 586.13
  A 1.60 1.59 44.3 0 0 199.10 586.14
  C 192.91 588.96 186.80 593.76 188.35 601.32
  Q 189.20 605.40 189.91 609.55
  Q 190.95 615.61 186.21 618.06
  Q 184.39 619.00 182.75 617.85
  C 179.30 615.46 178.43 611.56 179.99 607.74
  Q 180.90 605.53 181.48 603.33
  A 0.33 0.32 -83.3 0 0 181.16 602.92
  Q 180.73 602.92 180.42 603.21
  C 177.81 605.62 172.24 610.16 175.06 613.96
  C 177.54 617.32 182.80 622.42 187.62 621.11
  C 194.11 619.35 198.88 614.42 198.21 607.23
  Q 197.73 602.07 196.73 596.51
  Q 196.08 592.92 198.69 590.66
  A 1.78 1.78 0.0 0 1 200.11 590.23
  Z
  M 592.51 633.26
  C 596.50 631.77 602.61 625.50 600.78 620.29
  Q 600.13 618.44 599.24 620.19
  C 597.11 624.35 597.26 628.47 591.61 629.62
  C 588.77 630.20 586.03 628.31 583.99 626.53
  C 578.44 621.68 574.40 616.83 572.39 609.67
  Q 571.01 604.73 573.55 601.39
  C 577.53 596.18 582.61 599.65 586.41 602.71
  Q 586.86 603.08 587.41 602.91
  Q 588.00 602.72 587.66 602.21
  L 582.88 595.00
  A 1.80 1.79 62.3 0 0 580.71 594.32
  C 578.51 595.21 576.87 596.63 574.69 597.50
  Q 567.19 600.51 566.61 608.63
  C 565.70 621.37 577.88 638.75 592.51 633.26
  Z
  M 221.81 606.47
  C 226.65 607.56 227.93 612.30 226.77 616.62
  Q 225.84 620.06 228.60 617.81
  C 232.02 615.03 232.87 610.19 228.65 607.36
  C 225.54 605.29 222.25 603.49 219.39 601.05
  Q 217.50 599.45 215.29 598.53
  A 0.51 0.50 4.7 0 0 214.60 599.11
  C 215.10 601.30 214.16 603.67 212.93 605.43
  Q 206.06 615.31 199.28 624.34
  Q 196.98 627.40 193.61 628.60
  A 0.84 0.84 0.0 0 0 193.38 630.07
  Q 198.82 634.21 203.90 638.40
  Q 206.60 640.61 209.37 641.73
  C 213.07 643.22 215.73 637.40 216.08 634.73
  Q 216.17 633.98 215.70 634.57
  Q 213.37 637.50 208.67 637.03
  C 203.55 636.52 200.68 632.88 204.15 628.12
  C 205.96 625.65 207.95 623.01 210.30 620.97
  C 212.35 619.20 213.01 616.55 214.51 614.35
  Q 217.00 610.68 219.69 607.23
  A 2.09 2.08 -64.6 0 1 221.81 606.47
  Z
  M 553.90 617.39
  Q 556.88 617.58 560.44 618.98
  A 0.62 0.62 0.0 0 0 561.28 618.30
  C 560.91 616.01 559.45 612.49 556.50 613.11
  C 550.28 614.41 541.45 618.30 545.12 626.69
  C 548.38 634.17 553.71 636.84 561.24 636.45
  C 566.74 636.17 569.72 635.86 571.76 641.92
  C 573.14 646.02 567.62 650.24 564.04 647.90
  C 562.20 646.70 558.94 643.65 556.75 643.67
  A 0.44 0.44 0.0 0 0 556.36 644.31
  L 559.77 650.87
  A 2.96 2.95 -19.5 0 0 562.99 652.40
  C 567.47 651.47 575.49 648.05 575.10 642.06
  C 574.57 634.08 570.11 628.94 562.62 627.17
  C 557.45 625.95 551.30 628.98 547.73 623.05
  Q 547.44 622.57 547.51 622.00
  C 547.83 619.28 551.58 617.25 553.90 617.39
  Z
  M 214.12 626.83
  Q 218.39 621.80 219.01 618.47
  A 0.79 0.79 0.0 0 0 218.11 617.54
  Q 216.03 617.86 214.12 618.92
  Q 212.30 619.92 212.20 621.99
  Q 212.10 624.21 212.45 626.36
  Q 212.78 628.41 214.12 626.83
  Z
  M 247.55 650.99
  Q 249.20 652.86 251.41 653.87
  A 1.47 1.45 -0.4 0 1 252.13 654.57
  C 253.60 657.55 251.36 661.72 249.85 664.30
  A 1.93 1.92 -65.4 0 0 250.88 667.09
  L 258.02 669.53
  A 0.67 0.67 0.0 0 0 258.90 668.90
  Q 258.87 660.75 260.05 653.55
  Q 261.11 647.07 262.13 640.50
  C 262.70 636.83 264.01 633.58 264.24 629.89
  A 0.72 0.71 1.9 0 0 263.52 629.13
  Q 262.27 629.13 261.46 630.13
  C 259.64 632.40 257.92 634.61 255.69 636.51
  Q 251.95 639.70 248.68 643.57
  C 247.20 645.32 245.56 646.38 243.96 647.90
  Q 240.12 651.58 235.66 654.95
  Q 234.73 655.66 234.04 656.56
  A 1.47 1.47 0.0 0 0 234.41 658.68
  Q 236.82 660.26 238.82 659.01
  A 1.54 1.53 -9.8 0 0 239.50 658.05
  C 240.36 654.13 242.05 650.80 246.59 650.59
  A 1.21 1.19 -21.9 0 1 247.55 650.99
  Z
  M 517.50 652.80
  Q 516.40 652.00 515.79 650.66
  Q 514.33 647.46 512.68 644.54
  Q 511.50 642.45 511.99 639.92
  A 1.41 1.39 80.5 0 1 512.66 638.97
  Q 515.42 637.37 518.75 636.59
  Q 519.44 636.43 520.03 636.83
  Q 523.05 638.88 524.67 643.54
  Q 524.76 643.78 524.99 643.66
  L 525.28 643.52
  A 0.82 0.82 0.0 0 0 525.72 642.63
  Q 524.99 638.92 523.59 635.30
  C 522.70 633.01 520.07 631.99 518.02 633.03
  Q 511.35 636.44 504.58 639.20
  Q 502.46 640.07 503.58 642.06
  Q 508.44 650.69 513.20 661.06
  Q 516.70 668.70 517.80 675.46
  Q 517.92 676.19 518.66 676.08
  Q 522.88 675.42 525.86 672.72
  A 1.25 1.24 53.8 0 0 526.10 671.16
  Q 522.53 665.15 519.40 658.97
  Q 518.41 657.01 518.26 654.78
  Q 518.22 654.21 518.79 654.28
  Q 523.63 654.91 526.24 658.97
  A 0.60 0.59 61.1 0 0 526.98 659.19
  Q 527.53 658.94 527.47 658.46
  Q 527.29 657.03 526.66 655.96
  Q 524.22 651.84 523.74 647.68
  Q 523.52 645.88 522.40 647.30
  L 518.16 652.71
  Q 517.88 653.07 517.50 652.80
  Z
  M 290.83 643.65
  C 296.87 645.02 294.25 650.64 293.80 654.73
  Q 293.58 656.66 294.84 655.18
  Q 296.80 652.87 298.40 649.84
  C 300.50 645.89 296.25 643.86 293.59 642.09
  C 288.84 638.94 282.28 638.98 277.77 642.13
  Q 266.21 650.23 265.86 664.73
  C 265.75 669.69 267.27 673.18 271.24 676.09
  Q 276.27 679.79 282.91 678.83
  Q 286.11 678.37 287.03 674.86
  Q 287.27 673.92 286.39 674.32
  C 283.56 675.61 280.14 677.35 277.12 675.59
  Q 273.31 673.37 272.78 670.00
  C 271.88 664.22 274.41 657.43 277.13 652.23
  C 278.59 649.43 282.49 643.47 285.72 643.24
  Q 288.23 643.06 290.83 643.65
  Z
  M 498.18 684.24
  Q 506.26 680.64 506.69 671.12
  C 507.19 660.15 500.04 642.24 485.68 646.34
  Q 476.70 648.89 475.79 657.87
  Q 474.59 669.67 482.01 679.36
  C 486.08 684.66 491.61 687.17 498.18 684.24
  Z
  M 308.76 675.38
  Q 310.59 681.44 307.94 686.81
  Q 307.73 687.25 308.13 687.53
  Q 312.17 690.36 318.05 690.13
  Q 318.70 690.11 318.24 689.65
  Q 317.12 688.54 317.03 687.00
  Q 316.11 669.57 316.36 651.78
  Q 316.38 650.49 315.10 650.59
  Q 314.55 650.63 313.80 651.11
  Q 313.28 651.45 312.84 652.09
  Q 307.28 660.33 302.12 668.83
  C 300.92 670.81 299.33 672.26 298.22 674.23
  C 296.75 676.87 294.53 678.59 292.40 680.58
  Q 291.57 681.36 291.58 682.57
  Q 291.59 683.26 292.27 683.39
  L 296.90 684.30
  Q 297.27 684.37 297.28 684.00
  Q 297.50 679.15 300.36 675.23
  A 2.19 2.19 0.0 0 1 302.47 674.36
  Q 304.79 674.71 307.24 675.18
  C 307.49 675.22 307.76 675.17 307.98 675.05
  Q 308.57 674.73 308.76 675.38
  Z
  M 327.31 683.23
  C 326.82 685.26 325.64 689.79 324.12 691.33
  Q 323.76 691.69 324.19 691.98
  C 327.44 694.16 332.65 694.07 336.47 694.63
  C 340.58 695.22 345.18 693.28 347.63 690.24
  Q 352.47 684.23 353.73 675.26
  C 354.81 667.60 351.89 659.18 343.88 656.81
  Q 337.90 655.03 331.18 654.10
  Q 330.50 654.00 330.75 654.64
  Q 331.68 657.05 331.44 659.54
  Q 330.36 670.64 327.31 683.23
  Z
  M 409.86 672.44
  Q 410.69 673.70 410.92 675.30
  Q 412.76 688.03 411.25 698.56
  A 0.75 0.75 0.0 0 0 411.97 699.42
  L 419.49 699.73
  A 1.05 1.05 0.0 0 0 420.53 698.34
  Q 419.33 694.84 419.16 691.16
  C 418.87 684.93 418.89 678.62 418.32 672.30
  Q 417.90 667.64 418.06 663.32
  A 1.67 1.67 0.0 0 1 419.71 661.71
  C 421.47 661.68 424.41 661.31 425.42 663.15
  Q 429.33 670.22 433.67 677.85
  C 436.07 682.06 438.45 687.31 437.34 691.99
  Q 436.73 694.55 435.57 697.30
  Q 435.30 697.96 436.00 697.87
  L 447.77 696.35
  A 0.93 0.92 -22.8 0 0 448.38 694.86
  Q 447.37 693.60 446.00 692.76
  A 1.98 1.96 2.5 0 1 445.28 691.98
  C 443.71 688.83 443.91 683.23 443.67 679.26
  Q 443.58 677.59 444.19 676.06
  Q 446.65 669.96 448.31 663.37
  Q 449.08 660.27 450.30 657.24
  Q 450.92 655.67 449.26 655.94
  L 446.33 656.40
  A 0.67 0.66 85.0 0 0 445.77 657.07
  Q 445.96 665.83 443.02 675.64
  Q 442.85 676.18 442.38 675.87
  Q 439.89 674.24 438.55 671.74
  C 436.61 668.12 434.28 664.68 433.83 660.47
  A 1.61 1.60 -2.1 0 0 432.29 659.04
  Q 427.77 658.90 423.80 659.62
  C 419.64 660.36 415.36 660.38 411.10 661.12
  A 1.67 1.67 0.0 0 0 409.72 662.82
  Q 409.92 668.90 407.79 672.57
  C 405.82 675.94 405.60 680.44 405.33 684.22
  Q 405.27 685.01 405.62 685.73
  Q 405.97 686.47 406.15 685.67
  Q 406.97 681.99 407.59 678.44
  Q 408.11 675.49 409.24 672.50
  Q 409.48 671.87 409.86 672.44
  Z
  M 376.30 688.16
  Q 374.11 685.12 374.04 682.76
  C 373.96 680.18 373.83 676.74 374.69 674.28
  C 375.78 671.19 378.60 670.06 380.67 667.77
  A 1.28 1.27 66.6 0 0 380.99 666.95
  L 381.04 662.02
  Q 381.05 660.49 379.52 660.39
  L 360.55 659.21
  Q 359.84 659.17 359.98 659.87
  C 360.53 662.65 360.87 665.42 360.73 668.25
  Q 360.02 682.85 357.58 695.90
  Q 357.11 698.39 359.72 698.58
  Q 367.25 699.11 376.38 699.42
  Q 378.73 699.50 379.00 697.17
  Q 379.36 694.07 379.38 691.38
  A 2.06 1.97 -53.2 0 0 379.32 690.89
  Q 378.97 689.41 377.74 689.10
  Q 377.40 689.01 377.45 689.36
  C 378.54 696.40 372.01 697.78 367.00 695.75
  A 1.62 1.61 -80.2 0 1 365.99 694.31
  Q 365.75 688.74 366.36 683.06
  A 2.24 2.24 0.0 0 1 368.77 681.06
  Q 371.29 681.27 373.31 682.94
  Q 373.74 683.30 373.81 683.85
  Q 374.14 686.39 375.93 688.50
  Q 375.97 688.54 376.02 688.51
  L 376.25 688.38
  Q 376.39 688.29 376.30 688.16
  Z
  M 389.14 668.72
  Q 388.59 669.93 389.06 670.99
  Q 388.82 674.34 388.83 677.75
  Q 388.84 685.38 389.00 692.53
  C 389.04 694.49 387.99 695.54 387.05 697.08
  Q 385.91 698.95 388.01 699.57
  Q 389.94 700.15 392.11 699.18
  A 1.78 1.78 0.0 0 0 392.81 696.49
  Q 390.39 693.24 390.63 689.00
  Q 391.13 680.31 389.92 671.73
  Q 390.00 670.53 390.62 670.64
  L 400.49 697.33
  A 1.26 1.26 0.0 0 0 402.81 697.43
  Q 404.81 693.22 404.64 688.99
  C 404.51 685.76 402.26 682.69 401.51 680.01
  Q 399.10 671.41 396.14 662.75
  A 2.59 2.58 -9.1 0 0 393.72 661.00
  L 385.74 660.93
  A 0.40 0.40 0.0 0 0 385.42 661.58
  Q 387.89 664.83 389.14 668.72
  Z"
/>
<path fill="#ffffff" d="
  M 379.69 89.82
  Q 380.08 87.05 380.05 84.16
  Q 380.00 79.53 375.06 79.98
  Q 369.62 80.48 364.87 81.85
  A 1.23 1.23 0.0 0 1 363.89 81.72
  Q 362.97 81.15 363.30 80.09
  C 364.24 77.06 365.57 74.55 367.79 72.31
  Q 376.72 63.29 381.80 55.91
  Q 382.62 54.72 383.04 53.25
  C 384.94 46.59 393.30 51.62 389.40 55.29
  Q 384.41 60.00 379.52 66.06
  C 377.46 68.62 373.38 71.59 372.34 74.59
  A 1.16 1.15 -77.7 0 0 373.32 76.12
  Q 377.06 76.46 380.38 75.85
  A 1.69 1.68 -79.7 0 0 381.51 75.06
  Q 382.56 73.30 383.94 72.11
  C 388.90 67.85 394.74 73.05 388.09 77.37
  A 2.84 2.83 -27.8 0 0 387.01 80.84
  C 387.50 82.00 388.06 83.25 387.46 84.49
  C 385.61 88.33 384.92 93.40 386.00 97.65
  C 386.50 99.59 387.63 103.05 386.83 104.91
  A 1.04 1.04 0.0 0 1 385.74 105.53
  C 381.56 105.01 380.49 102.36 379.91 98.81
  C 379.43 95.89 376.12 94.70 374.35 97.34
  C 373.06 99.26 371.43 101.20 369.02 101.54
  A 1.92 1.92 0.0 0 1 366.88 100.08
  Q 365.76 95.34 368.08 91.37
  C 369.17 89.49 370.28 87.56 372.46 86.79
  Q 373.02 86.59 373.24 87.14
  Q 374.89 91.15 378.80 90.69
  Q 379.58 90.60 379.69 89.82
  Z"
/>
<path fill="#ffffff" d="
  M 405.23 88.81
  A 0.88 0.87 -32.2 0 0 403.97 88.53
  Q 400.39 90.99 397.23 93.09
  Q 395.34 94.35 393.19 94.11
  A 1.27 1.26 -86.5 0 1 392.06 92.83
  C 392.17 87.23 394.38 83.45 397.61 79.00
  Q 398.00 78.46 398.00 77.79
  Q 397.99 74.50 398.13 71.27
  C 398.20 69.48 398.85 67.93 399.40 66.24
  C 400.08 64.16 399.60 62.29 399.22 60.24
  A 1.64 1.64 0.0 0 1 400.79 58.30
  Q 402.86 58.24 405.09 58.80
  A 2.33 2.32 19.5 0 0 407.77 57.53
  C 408.49 55.99 409.57 53.29 411.33 52.85
  C 419.67 50.81 416.85 66.53 416.40 70.15
  C 416.10 72.48 416.30 75.82 418.48 77.28
  C 420.73 78.80 423.27 82.49 419.06 83.91
  Q 417.73 84.37 416.49 85.05
  A 3.22 3.19 -9.7 0 0 414.91 87.26
  C 414.12 91.62 413.68 95.87 412.30 100.15
  Q 409.38 109.16 406.58 118.15
  Q 406.46 118.53 406.15 118.78
  A 0.48 0.47 -20.4 0 1 405.38 118.43
  Q 404.69 104.21 405.66 90.81
  Q 405.74 89.73 405.23 88.81
  Z
  M 406.64 65.83
  L 404.58 65.96
  A 0.75 0.75 0.0 0 0 403.88 66.76
  L 404.11 70.34
  A 3.22 1.75 86.4 0 0 406.06 73.44
  L 406.12 73.44
  A 3.22 1.75 86.4 0 0 407.66 70.12
  L 407.44 66.53
  A 0.75 0.75 0.0 0 0 406.64 65.83
  Z
  M 404.15 78.61
  L 400.79 79.50
  Q 399.24 79.91 399.89 81.38
  Q 400.45 82.66 400.47 82.70
  A 2.25 2.12 74.6 0 0 402.67 84.04
  C 406.30 83.65 406.60 80.43 406.19 77.53
  Q 405.99 76.15 405.31 77.36
  L 404.97 77.98
  Q 404.69 78.47 404.15 78.61
  Z"
/>
<path fill="#1b3e97" d="
  M 406.64 65.83
  A 0.75 0.75 0.0 0 1 407.44 66.53
  L 407.66 70.12
  A 3.22 1.75 86.4 0 1 406.12 73.44
  L 406.06 73.44
  A 3.22 1.75 86.4 0 1 404.11 70.34
  L 403.88 66.76
  A 0.75 0.75 0.0 0 1 404.58 65.96
  L 406.64 65.83
  Z"
/>
<path fill="#1b3e97" d="
  M 404.97 77.98
  L 405.31 77.36
  Q 405.99 76.15 406.19 77.53
  C 406.60 80.43 406.30 83.65 402.67 84.04
  A 2.25 2.12 74.6 0 1 400.47 82.70
  Q 400.45 82.66 399.89 81.38
  Q 399.24 79.91 400.79 79.50
  L 404.15 78.61
  Q 404.69 78.47 404.97 77.98
  Z"
/>
<path fill="#ffffff" d="
  M 569.28 94.32
  C 575.11 94.37 570.02 106.30 568.40 108.42
  Q 566.52 110.88 564.01 109.09
  Q 562.93 108.32 562.08 107.12
  Q 560.28 104.58 562.06 102.02
  Q 564.86 97.98 568.29 94.71
  Q 568.70 94.31 569.28 94.32
  Z"
/>
<path fill="#ffffff" d="
  M 224.40 162.54
  Q 227.99 159.93 228.08 154.50
  Q 228.10 153.26 229.58 151.91
  Q 230.60 150.98 232.11 151.03
  Q 233.95 151.08 235.54 150.54
  A 1.80 1.80 0.0 0 0 235.91 147.32
  C 233.06 145.54 228.48 147.87 225.74 149.10
  A 1.29 1.29 0.0 0 0 225.03 149.93
  L 224.16 153.00
  A 2.16 2.15 20.9 0 1 221.14 154.35
  C 218.47 153.05 218.36 149.25 217.72 146.66
  A 2.02 1.99 -78.6 0 0 216.98 145.53
  Q 213.61 142.98 212.79 138.86
  Q 212.04 135.10 208.20 133.17
  Q 207.71 132.92 207.39 132.46
  Q 206.05 130.53 205.95 128.17
  Q 205.92 127.41 205.53 128.07
  Q 204.40 129.98 205.36 132.05
  Q 206.66 134.86 206.23 138.17
  Q 206.12 139.05 206.51 139.84
  Q 207.48 141.80 208.09 143.85
  C 209.26 147.78 212.68 150.97 215.92 153.56
  Q 220.22 156.99 221.26 162.36
  C 220.78 163.76 220.32 165.21 220.98 166.61
  C 222.83 170.56 224.76 173.28 222.57 177.77
  A 1.54 1.54 0.0 0 1 220.57 178.50
  C 217.91 177.34 216.52 174.11 215.28 171.66
  Q 214.15 169.43 212.65 167.15
  Q 204.85 155.27 200.41 143.98
  Q 199.01 140.40 199.29 136.21
  Q 199.30 136.11 199.40 136.11
  L 199.65 136.11
  Q 200.01 136.12 200.02 136.48
  Q 200.16 139.41 202.24 141.10
  Q 202.67 141.45 202.88 141.97
  C 204.91 146.97 207.56 151.54 209.46 156.62
  Q 212.14 163.78 218.54 167.66
  Q 220.29 168.73 219.82 166.74
  Q 219.58 165.70 218.97 164.79
  Q 215.21 159.08 211.14 153.35
  C 208.55 149.71 207.01 145.07 203.82 141.78
  Q 202.49 140.41 201.99 138.42
  C 200.44 132.26 201.50 126.00 203.15 120.13
  Q 206.16 109.38 215.12 101.83
  Q 221.20 96.71 227.88 101.34
  C 233.39 105.16 236.77 110.15 240.36 115.71
  C 247.06 126.13 254.48 136.21 261.79 146.17
  Q 264.47 149.83 260.69 153.42
  Q 251.38 162.28 236.66 164.60
  Q 234.23 164.99 230.78 164.10
  Q 227.61 163.29 224.40 162.54
  Z
  M 228.98 135.29
  Q 229.25 137.02 227.50 137.03
  L 222.13 137.09
  A 1.41 1.40 -11.3 0 0 220.84 139.02
  Q 220.96 139.31 221.23 139.98
  Q 221.90 141.65 223.71 141.65
  Q 225.80 141.66 227.91 142.67
  A 2.06 2.05 17.7 0 0 230.82 141.17
  Q 231.18 139.03 231.07 137.01
  C 230.89 134.09 233.36 131.28 235.45 129.45
  Q 237.34 127.81 239.91 128.21
  Q 241.27 128.42 241.01 129.77
  Q 240.37 133.19 237.59 135.98
  A 2.75 2.75 0.0 0 0 237.40 139.63
  Q 240.38 143.33 242.11 147.42
  C 243.75 151.31 239.02 153.69 236.34 155.18
  C 234.48 156.21 233.25 158.09 232.87 160.16
  A 0.59 0.58 16.4 0 0 233.23 160.81
  C 237.02 162.34 242.74 160.27 245.67 158.28
  Q 250.37 155.10 255.42 150.16
  Q 257.63 148.00 255.93 145.31
  Q 250.78 137.16 245.90 130.47
  Q 244.12 128.02 239.84 120.90
  Q 235.99 114.49 231.02 109.29
  Q 228.48 106.63 223.80 104.13
  C 219.34 101.74 217.44 104.57 214.87 107.34
  Q 208.09 114.64 206.36 123.65
  Q 206.25 124.21 206.82 124.19
  L 217.90 123.94
  Q 219.12 123.92 219.52 122.76
  Q 221.33 117.47 227.16 118.61
  Q 229.09 118.98 229.47 120.78
  C 230.47 125.59 224.68 125.44 221.92 124.49
  A 1.56 1.56 0.0 0 0 219.84 126.00
  C 219.95 131.01 228.11 129.63 228.98 135.29
  Z"
/>
<path fill="#012a8d" d="
  M 228.98 135.29
  C 228.11 129.63 219.95 131.01 219.84 126.00
  A 1.56 1.56 0.0 0 1 221.92 124.49
  C 224.68 125.44 230.47 125.59 229.47 120.78
  Q 229.09 118.98 227.16 118.61
  Q 221.33 117.47 219.52 122.76
  Q 219.12 123.92 217.90 123.94
  L 206.82 124.19
  Q 206.25 124.21 206.36 123.65
  Q 208.09 114.64 214.87 107.34
  C 217.44 104.57 219.34 101.74 223.80 104.13
  Q 228.48 106.63 231.02 109.29
  Q 235.99 114.49 239.84 120.90
  Q 244.12 128.02 245.90 130.47
  Q 250.78 137.16 255.93 145.31
  Q 257.63 148.00 255.42 150.16
  Q 250.37 155.10 245.67 158.28
  C 242.74 160.27 237.02 162.34 233.23 160.81
  A 0.59 0.58 16.4 0 1 232.87 160.16
  C 233.25 158.09 234.48 156.21 236.34 155.18
  C 239.02 153.69 243.75 151.31 242.11 147.42
  Q 240.38 143.33 237.40 139.63
  A 2.75 2.75 0.0 0 1 237.59 135.98
  Q 240.37 133.19 241.01 129.77
  Q 241.27 128.42 239.91 128.21
  Q 237.34 127.81 235.45 129.45
  C 233.36 131.28 230.89 134.09 231.07 137.01
  Q 231.18 139.03 230.82 141.17
  A 2.06 2.05 17.7 0 1 227.91 142.67
  Q 225.80 141.66 223.71 141.65
  Q 221.90 141.65 221.23 139.98
  Q 220.96 139.31 220.84 139.02
  A 1.41 1.40 -11.3 0 1 222.13 137.09
  L 227.50 137.03
  Q 229.25 137.02 228.98 135.29
  Z"
/>
<path fill="#ffffff" d="
  M 585.30 110.03
  C 586.49 111.79 589.06 111.82 590.79 113.01
  Q 594.54 115.59 590.00 115.20
  Q 585.41 114.80 580.27 115.01
  C 573.69 115.26 578.86 107.43 580.01 105.25
  Q 580.31 104.69 580.94 104.76
  C 583.11 105.04 584.21 108.42 585.30 110.03
  Z"
/>
<path fill="#ffffff" d="
  M 581.92 123.89
  Q 582.16 126.98 582.16 130.45
  C 582.17 135.90 578.55 139.92 573.28 140.97
  Q 571.15 141.40 569.47 140.14
  Q 568.88 139.70 569.50 139.31
  Q 572.17 137.66 574.80 136.08
  C 578.69 133.75 577.42 128.69 576.43 125.10
  A 1.82 1.81 -89.8 0 0 575.18 123.83
  Q 569.98 122.33 565.02 121.29
  C 561.71 120.60 557.38 122.67 554.58 124.27
  Q 549.24 127.29 543.79 129.23
  A 2.03 2.02 46.3 0 1 542.36 129.19
  Q 541.47 128.82 541.73 127.83
  Q 542.46 124.99 544.22 122.50
  Q 547.16 118.35 550.07 114.18
  Q 551.14 112.66 552.82 113.44
  C 555.56 114.71 558.85 117.62 561.90 117.87
  Q 568.61 118.43 574.98 119.34
  C 579.45 119.97 583.94 119.70 588.56 119.85
  C 591.32 119.95 593.23 118.49 593.73 115.75
  Q 593.83 115.23 594.36 115.28
  C 600.24 115.89 597.93 121.48 596.63 124.79
  Q 595.87 126.71 594.00 125.83
  Q 588.08 123.03 582.15 123.61
  A 0.26 0.25 85.5 0 0 581.92 123.89
  Z"
/>
<path fill="#1b3e97" d="
  M 224.40 162.54
  Q 222.91 162.76 221.26 162.36
  Q 220.22 156.99 215.92 153.56
  C 212.68 150.97 209.26 147.78 208.09 143.85
  Q 207.48 141.80 206.51 139.84
  Q 206.12 139.05 206.23 138.17
  Q 206.66 134.86 205.36 132.05
  Q 204.40 129.98 205.53 128.07
  Q 205.92 127.41 205.95 128.17
  Q 206.05 130.53 207.39 132.46
  Q 207.71 132.92 208.20 133.17
  Q 212.04 135.10 212.79 138.86
  Q 213.61 142.98 216.98 145.53
  A 2.02 1.99 -78.6 0 1 217.72 146.66
  C 218.36 149.25 218.47 153.05 221.14 154.35
  A 2.16 2.15 20.9 0 0 224.16 153.00
  L 225.03 149.93
  A 1.29 1.29 0.0 0 1 225.74 149.10
  C 228.48 147.87 233.06 145.54 235.91 147.32
  A 1.80 1.80 0.0 0 1 235.54 150.54
  Q 233.95 151.08 232.11 151.03
  Q 230.60 150.98 229.58 151.91
  Q 228.10 153.26 228.08 154.50
  Q 227.99 159.93 224.40 162.54
  Z"
/>
<path fill="#ffffff" d="
  M 548.78 151.78
  C 550.86 150.12 549.97 146.88 551.95 144.81
  C 554.04 142.63 557.17 140.70 557.26 137.36
  Q 557.27 136.73 556.72 136.44
  C 554.57 135.29 550.30 133.23 550.91 130.20
  A 1.28 1.27 -6.5 0 1 551.64 129.29
  Q 553.39 128.50 555.51 129.01
  Q 561.76 130.50 566.19 136.61
  Q 566.49 137.03 566.23 137.48
  Q 564.13 141.08 560.23 143.12
  C 556.05 145.32 554.91 149.06 553.84 153.28
  A 1.02 1.02 0.0 0 0 554.20 154.33
  C 557.43 156.89 560.66 159.30 562.32 163.20
  A 0.82 0.82 0.0 0 1 561.58 164.34
  C 557.46 164.43 552.81 156.74 548.90 159.95
  C 546.16 162.21 542.39 164.40 538.73 163.85
  C 534.06 163.15 527.18 155.63 526.26 151.15
  A 0.49 0.49 0.0 0 1 527.01 150.64
  Q 530.82 153.13 534.73 156.82
  C 537.38 159.33 543.07 162.79 545.69 157.91
  A 2.49 2.48 30.3 0 0 544.83 154.63
  Q 538.12 150.38 532.59 146.10
  Q 530.53 144.50 528.85 142.54
  Q 527.40 140.85 528.40 138.86
  Q 528.77 138.12 529.26 137.61
  Q 530.87 135.91 532.23 137.82
  Q 534.28 140.68 536.49 143.48
  C 539.51 147.30 543.85 149.59 548.00 151.84
  A 0.71 0.71 0.0 0 0 548.78 151.78
  Z"
/>
<path fill="#ffffff" d="
  M 643.43 383.31
  A 250.82 250.82 0.0 0 1 392.61 634.13
  A 250.82 250.82 0.0 0 1 141.79 383.31
  A 250.82 250.82 0.0 0 1 392.61 132.49
  A 250.82 250.82 0.0 0 1 643.43 383.31
  Z
  M 634.48 383.25
  A 241.99 241.99 0.0 0 0 392.49 141.26
  A 241.99 241.99 0.0 0 0 150.50 383.25
  A 241.99 241.99 0.0 0 0 392.49 625.24
  A 241.99 241.99 0.0 0 0 634.48 383.25
  Z"
/>
<path fill="#1b3e97" d="
  M 634.48 383.25
  A 241.99 241.99 0.0 0 1 392.49 625.24
  A 241.99 241.99 0.0 0 1 150.50 383.25
  A 241.99 241.99 0.0 0 1 392.49 141.26
  A 241.99 241.99 0.0 0 1 634.48 383.25
  Z
  M 358.80 148.09
  Q 300.42 156.36 253.22 190.11
  Q 241.71 198.34 230.12 209.32
  Q 215.53 223.14 210.12 229.79
  Q 195.74 247.48 187.04 262.51
  C 167.85 295.69 155.87 334.23 154.45 372.85
  Q 151.67 448.52 192.78 512.96
  Q 204.68 531.62 218.47 546.07
  Q 250.76 579.87 292.45 599.30
  Q 324.69 614.31 361.73 619.55
  Q 370.59 620.80 381.66 621.06
  Q 397.23 621.43 410.13 620.57
  Q 438.64 618.66 465.13 609.94
  Q 523.95 590.59 566.05 546.35
  Q 569.33 542.89 572.43 539.41
  Q 575.55 535.90 578.57 532.08
  Q 592.77 514.08 603.86 493.15
  C 626.51 450.43 633.39 402.67 628.79 355.01
  C 627.36 340.17 623.45 324.95 619.61 310.54
  C 615.14 293.70 606.86 278.09 598.05 262.64
  Q 592.74 253.34 587.29 245.90
  Q 567.82 219.33 545.76 200.98
  Q 515.25 175.59 478.03 161.07
  Q 464.22 155.68 437.74 149.22
  C 433.06 148.08 428.27 148.01 423.56 147.29
  Q 418.37 146.49 412.69 146.03
  Q 387.75 143.99 358.80 148.09
  Z"
/>
<path fill="#ffffff" d="
  M 358.80 148.09
  Q 387.75 143.99 412.69 146.03
  Q 418.37 146.49 423.56 147.29
  C 428.27 148.01 433.06 148.08 437.74 149.22
  Q 464.22 155.68 478.03 161.07
  Q 515.25 175.59 545.76 200.98
  Q 567.82 219.33 587.29 245.90
  Q 592.74 253.34 598.05 262.64
  C 606.86 278.09 615.14 293.70 619.61 310.54
  C 623.45 324.95 627.36 340.17 628.79 355.01
  C 633.39 402.67 626.51 450.43 603.86 493.15
  Q 592.77 514.08 578.57 532.08
  Q 575.55 535.90 572.43 539.41
  Q 569.33 542.89 566.05 546.35
  Q 523.95 590.59 465.13 609.94
  Q 438.64 618.66 410.13 620.57
  Q 397.23 621.43 381.66 621.06
  Q 370.59 620.80 361.73 619.55
  Q 324.69 614.31 292.45 599.30
  Q 250.76 579.87 218.47 546.07
  Q 204.68 531.62 192.78 512.96
  Q 151.67 448.52 154.45 372.85
  C 155.87 334.23 167.85 295.69 187.04 262.51
  Q 195.74 247.48 210.12 229.79
  Q 215.53 223.14 230.12 209.32
  Q 241.71 198.34 253.22 190.11
  Q 300.42 156.36 358.80 148.09
  Z
  M 337.73 484.33
  Q 337.93 485.02 337.67 485.72
  Q 328.94 508.85 322.09 529.51
  C 320.42 534.55 318.43 539.43 316.59 544.52
  C 315.54 547.44 317.08 550.17 318.46 552.65
  Q 334.96 582.34 350.15 611.53
  A 2.26 2.26 0.0 0 0 353.18 612.51
  C 357.53 610.29 361.51 607.83 366.16 605.88
  C 378.31 600.77 390.80 595.57 403.02 590.08
  Q 410.32 586.81 417.22 584.49
  Q 419.40 583.77 419.79 582.55
  Q 429.65 552.22 441.60 518.43
  Q 447.52 501.66 453.31 484.13
  Q 453.70 482.94 454.81 483.51
  Q 455.73 483.98 456.59 485.09
  Q 463.22 493.67 470.77 501.87
  Q 477.39 509.06 483.33 516.50
  Q 488.91 523.48 495.99 531.28
  Q 497.68 533.14 500.00 533.24
  Q 528.13 534.49 563.38 534.81
  C 565.50 534.82 567.63 535.11 569.76 535.23
  Q 570.98 535.30 571.24 534.11
  Q 573.17 525.44 573.73 517.27
  C 574.44 506.68 575.82 496.30 577.27 485.77
  C 578.18 479.21 578.50 472.37 579.76 465.66
  C 580.14 463.67 580.14 461.30 578.74 459.71
  Q 550.72 428.00 538.54 413.56
  Q 523.76 396.03 509.77 380.99
  A 0.87 0.87 0.0 0 1 510.28 379.54
  Q 521.00 377.96 532.43 375.65
  Q 552.24 371.65 572.85 367.64
  Q 576.56 366.91 578.52 363.60
  Q 595.31 335.22 613.97 305.82
  A 2.24 2.23 -55.6 0 0 613.42 302.84
  Q 594.33 288.57 570.30 271.04
  Q 563.58 266.14 557.73 261.48
  Q 555.50 259.70 552.73 260.25
  Q 501.79 270.26 450.57 279.93
  Q 449.27 280.18 449.11 279.15
  A 1.09 1.03 53.4 0 1 449.18 278.56
  C 456.09 262.01 461.57 244.61 467.19 227.72
  C 468.20 224.68 469.79 221.79 470.87 218.75
  Q 471.59 216.74 470.57 214.93
  C 459.11 194.46 448.15 173.41 437.08 152.25
  A 0.92 0.91 -20.5 0 0 436.06 151.79
  Q 432.21 152.68 428.82 154.18
  Q 405.49 164.50 380.47 175.10
  Q 375.07 177.38 370.84 179.61
  C 368.83 180.67 367.95 181.92 367.18 183.94
  Q 361.72 198.30 357.58 210.29
  Q 345.69 244.69 333.12 281.49
  A 0.86 0.86 0.0 0 1 331.65 281.77
  Q 308.83 255.09 290.46 234.43
  Q 288.61 232.35 285.22 232.17
  C 261.50 230.97 238.61 229.97 215.58 229.91
  A 1.31 1.30 -87.7 0 0 214.27 231.12
  C 214.04 234.47 214.09 238.03 213.55 241.27
  C 210.93 256.79 209.48 272.23 207.99 288.20
  C 207.60 292.39 206.57 296.39 205.90 300.48
  Q 205.48 302.99 207.26 305.09
  C 214.06 313.07 221.65 320.93 228.28 328.85
  Q 236.45 338.61 244.11 347.30
  C 252.84 357.20 260.28 366.10 268.25 375.53
  C 270.68 378.40 273.39 380.96 276.05 383.58
  A 0.78 0.78 0.0 0 1 275.67 384.89
  Q 271.75 385.76 268.00 386.51
  Q 239.96 392.12 213.13 396.88
  Q 211.26 397.22 210.31 398.77
  Q 192.88 427.37 173.09 458.80
  A 2.06 2.05 37.7 0 0 173.43 461.39
  Q 177.18 464.89 180.56 467.33
  Q 204.09 484.30 230.33 504.06
  Q 231.33 504.81 232.44 504.60
  Q 283.02 495.20 337.47 484.16
  A 0.24 0.22 76.2 0 1 337.73 484.33
  Z"
/>
<path fill="#012a8d" d="
  M 337.73 484.33
  A 0.24 0.22 76.2 0 0 337.47 484.16
  Q 283.02 495.20 232.44 504.60
  Q 231.33 504.81 230.33 504.06
  Q 204.09 484.30 180.56 467.33
  Q 177.18 464.89 173.43 461.39
  A 2.06 2.05 37.7 0 1 173.09 458.80
  Q 192.88 427.37 210.31 398.77
  Q 211.26 397.22 213.13 396.88
  Q 239.96 392.12 268.00 386.51
  Q 271.75 385.76 275.67 384.89
  A 0.78 0.78 0.0 0 0 276.05 383.58
  C 273.39 380.96 270.68 378.40 268.25 375.53
  C 260.28 366.10 252.84 357.20 244.11 347.30
  Q 236.45 338.61 228.28 328.85
  C 221.65 320.93 214.06 313.07 207.26 305.09
  Q 205.48 302.99 205.90 300.48
  C 206.57 296.39 207.60 292.39 207.99 288.20
  C 209.48 272.23 210.93 256.79 213.55 241.27
  C 214.09 238.03 214.04 234.47 214.27 231.12
  A 1.31 1.30 -87.7 0 1 215.58 229.91
  C 238.61 229.97 261.50 230.97 285.22 232.17
  Q 288.61 232.35 290.46 234.43
  Q 308.83 255.09 331.65 281.77
  A 0.86 0.86 0.0 0 0 333.12 281.49
  Q 345.69 244.69 357.58 210.29
  Q 361.72 198.30 367.18 183.94
  C 367.95 181.92 368.83 180.67 370.84 179.61
  Q 375.07 177.38 380.47 175.10
  Q 405.49 164.50 428.82 154.18
  Q 432.21 152.68 436.06 151.79
  A 0.92 0.91 -20.5 0 1 437.08 152.25
  C 448.15 173.41 459.11 194.46 470.57 214.93
  Q 471.59 216.74 470.87 218.75
  C 469.79 221.79 468.20 224.68 467.19 227.72
  C 461.57 244.61 456.09 262.01 449.18 278.56
  A 1.09 1.03 53.4 0 0 449.11 279.15
  Q 449.27 280.18 450.57 279.93
  Q 501.79 270.26 552.73 260.25
  Q 555.50 259.70 557.73 261.48
  Q 563.58 266.14 570.30 271.04
  Q 594.33 288.57 613.42 302.84
  A 2.24 2.23 -55.6 0 1 613.97 305.82
  Q 595.31 335.22 578.52 363.60
  Q 576.56 366.91 572.85 367.64
  Q 552.24 371.65 532.43 375.65
  Q 521.00 377.96 510.28 379.54
  A 0.87 0.87 0.0 0 0 509.77 380.99
  Q 523.76 396.03 538.54 413.56
  Q 550.72 428.00 578.74 459.71
  C 580.14 461.30 580.14 463.67 579.76 465.66
  C 578.50 472.37 578.18 479.21 577.27 485.77
  C 575.82 496.30 574.44 506.68 573.73 517.27
  Q 573.17 525.44 571.24 534.11
  Q 570.98 535.30 569.76 535.23
  C 567.63 535.11 565.50 534.82 563.38 534.81
  Q 528.13 534.49 500.00 533.24
  Q 497.68 533.14 495.99 531.28
  Q 488.91 523.48 483.33 516.50
  Q 477.39 509.06 470.77 501.87
  Q 463.22 493.67 456.59 485.09
  Q 455.73 483.98 454.81 483.51
  Q 453.70 482.94 453.31 484.13
  Q 447.52 501.66 441.60 518.43
  Q 429.65 552.22 419.79 582.55
  Q 419.40 583.77 417.22 584.49
  Q 410.32 586.81 403.02 590.08
  C 390.80 595.57 378.31 600.77 366.16 605.88
  C 361.51 607.83 357.53 610.29 353.18 612.51
  A 2.26 2.26 0.0 0 1 350.15 611.53
  Q 334.96 582.34 318.46 552.65
  C 317.08 550.17 315.54 547.44 316.59 544.52
  C 318.43 539.43 320.42 534.55 322.09 529.51
  Q 328.94 508.85 337.67 485.72
  Q 337.93 485.02 337.73 484.33
  Z
  M 397.71 304.13
  A 13.31 13.31 0.0 0 0 384.40 290.82
  A 13.31 13.31 0.0 0 0 371.09 304.13
  A 13.31 13.31 0.0 0 0 384.40 317.44
  A 13.31 13.31 0.0 0 0 397.71 304.13
  Z
  M 469.5433 343.5180
  A 12.04 12.04 0.0 0 0 468.8303 326.5058
  L 467.2845 325.0843
  A 12.04 12.04 0.0 0 0 450.2723 325.7973
  L 448.7967 327.4020
  A 12.04 12.04 0.0 0 0 449.5097 344.4142
  L 451.0555 345.8357
  A 12.04 12.04 0.0 0 0 468.0677 345.1227
  L 469.5433 343.5180
  Z
  M 380.75 421.11
  Q 379.08 424.09 376.21 427.73
  Q 375.26 428.93 375.07 430.45
  A 0.52 0.51 -8.3 0 0 375.79 430.98
  Q 392.96 423.39 408.22 416.80
  Q 413.09 414.70 418.48 411.82
  A 2.24 2.24 0.0 0 1 421.54 412.81
  L 425.10 420.10
  A 0.80 0.80 0.0 0 0 426.48 420.21
  Q 427.07 419.37 427.18 418.24
  Q 428.46 405.81 429.71 393.13
  C 430.32 386.96 431.41 380.87 432.02 374.76
  A 1.26 1.26 0.0 0 1 433.43 373.64
  Q 438.00 374.20 442.49 374.77
  Q 443.74 374.93 444.77 374.18
  A 0.55 0.54 -40.3 0 0 444.84 373.37
  Q 443.15 371.59 440.96 369.97
  Q 421.51 355.63 407.22 345.82
  Q 404.56 344.00 406.72 341.51
  C 408.99 338.88 411.55 336.01 412.52 332.67
  Q 412.75 331.88 412.00 332.21
  L 368.31 351.64
  A 2.44 2.43 -26.9 0 1 365.22 350.63
  Q 363.68 347.97 362.93 344.92
  Q 362.43 342.92 360.58 342.00
  A 0.91 0.91 0.0 0 0 359.27 342.74
  Q 357.84 360.69 355.25 379.95
  Q 354.69 384.13 354.56 388.35
  A 2.36 2.35 -88.3 0 1 352.15 390.63
  L 342.52 390.40
  A 0.61 0.60 -12.8 0 0 341.96 391.28
  Q 342.23 391.80 342.71 392.15
  Q 362.19 406.49 380.45 419.76
  A 1.04 1.04 0.0 0 1 380.75 421.11
  Z
  M 333.15 349.39
  A 13.32 13.32 0.0 0 0 319.83 336.07
  A 13.32 13.32 0.0 0 0 306.51 349.39
  A 13.32 13.32 0.0 0 0 319.83 362.71
  A 13.32 13.32 0.0 0 0 333.15 349.39
  Z
  M 466.3962 430.0501
  A 13.57 13.15 93.1 0 0 480.2608 417.2111
  A 13.57 13.15 93.1 0 0 467.8638 402.9499
  A 13.57 13.15 93.1 0 0 453.9992 415.7889
  A 13.57 13.15 93.1 0 0 466.3962 430.0501
  Z
  M 341.21 429.77
  A 13.34 13.34 0.0 0 0 327.87 416.43
  A 13.34 13.34 0.0 0 0 314.53 429.77
  A 13.34 13.34 0.0 0 0 327.87 443.11
  A 13.34 13.34 0.0 0 0 341.21 429.77
  Z
  M 410.5094 471.4863
  A 12.08 12.08 0.0 0 0 410.0026 454.4102
  L 408.5470 453.0385
  A 12.08 12.08 0.0 0 0 391.4708 453.5453
  L 390.0306 455.0737
  A 12.08 12.08 0.0 0 0 390.5374 472.1498
  L 391.9930 473.5215
  A 12.08 12.08 0.0 0 0 409.0692 473.0147
  L 410.5094 471.4863
  Z"
/>
<path fill="#ffffff" d="
  M 658.62 229.95
  Q 661.96 230.13 663.52 227.85
  C 665.68 224.68 668.35 222.85 666.78 218.47
  Q 666.45 217.53 666.47 216.56
  Q 666.50 215.30 666.95 214.67
  A 3.07 2.80 36.2 0 1 671.15 214.22
  C 673.50 216.00 680.50 223.26 674.80 225.48
  Q 671.71 226.68 668.61 228.10
  A 1.34 1.33 77.4 0 0 667.83 229.33
  Q 667.85 231.66 666.79 233.50
  C 665.43 235.87 663.11 236.43 661.05 237.93
  C 658.83 239.56 655.24 239.86 654.54 236.32
  Q 654.13 234.23 654.39 232.36
  Q 654.62 230.70 653.23 231.63
  Q 649.48 234.15 646.10 237.21
  Q 643.88 239.24 640.76 239.78
  C 636.86 240.46 632.83 241.09 629.22 242.61
  Q 626.06 243.93 622.61 243.80
  A 1.11 1.11 0.0 0 1 621.57 242.89
  C 620.82 238.54 623.45 234.66 624.76 230.69
  Q 625.57 228.24 628.54 227.44
  C 631.39 226.68 634.27 226.55 637.06 225.59
  C 641.17 224.17 653.40 219.88 656.35 223.67
  Q 657.87 225.61 658.11 229.45
  Q 658.14 229.92 658.62 229.95
  Z"
/>
<path fill="#ffffff" d="
  M 104.09 247.87
  Q 104.56 241.58 107.49 234.80
  Q 108.65 232.12 111.25 231.66
  Q 113.67 231.23 113.98 233.83
  Q 115.22 244.37 118.46 252.37
  A 1.24 1.24 0.0 0 0 120.67 252.56
  Q 122.82 249.07 123.36 245.13
  A 0.73 0.72 -82.7 0 1 124.16 244.51
  Q 125.11 244.61 125.46 245.50
  C 126.83 248.94 126.23 253.54 125.96 257.25
  C 125.80 259.51 127.54 261.50 129.22 262.73
  Q 134.78 266.80 139.08 271.03
  Q 141.34 273.26 143.98 275.00
  C 146.28 276.53 149.22 278.07 150.85 280.32
  A 0.52 0.52 0.0 0 1 150.55 281.14
  Q 148.74 281.55 146.74 280.76
  Q 141.58 278.72 136.71 277.42
  C 134.12 276.73 131.88 275.27 129.29 274.40
  A 0.84 0.83 29.1 0 0 128.40 274.65
  C 126.65 276.67 123.75 279.84 121.12 280.71
  A 0.81 0.81 0.0 0 1 120.08 279.74
  Q 120.88 276.65 122.90 273.79
  A 1.03 1.02 47.8 0 0 122.95 272.67
  C 121.59 270.38 116.45 269.01 114.20 268.51
  A 1.64 1.64 0.0 0 0 112.21 270.27
  Q 112.61 274.47 114.17 278.88
  Q 115.38 282.32 119.21 282.46
  A 0.75 0.75 0.0 0 1 119.92 283.06
  C 121.24 289.45 117.01 291.31 111.62 290.79
  Q 105.56 290.20 100.45 288.56
  Q 98.00 287.78 96.84 285.34
  A 1.39 1.38 61.9 0 1 97.37 283.57
  Q 98.74 282.76 100.35 283.14
  Q 104.40 284.11 108.52 284.09
  A 1.25 1.25 0.0 0 0 109.72 283.14
  Q 110.04 281.79 109.52 280.34
  Q 107.66 275.25 105.93 270.21
  C 104.71 266.66 105.12 262.40 101.24 260.42
  Q 93.01 256.24 85.12 256.06
  A 0.99 0.99 0.0 0 1 84.16 254.99
  Q 84.43 251.80 87.05 250.07
  Q 91.05 247.42 94.22 244.67
  Q 95.29 243.74 96.31 244.74
  C 98.38 246.78 100.11 248.86 103.37 248.59
  Q 104.04 248.53 104.09 247.87
  Z
  M 110.48 252.89
  L 112.19 253.23
  Q 114.61 253.71 113.66 251.43
  C 112.50 248.68 111.71 245.18 109.25 243.34
  A 0.52 0.52 0.0 0 0 108.44 243.63
  Q 107.50 247.28 107.75 249.88
  Q 108.00 252.40 110.48 252.89
  Z"
/>
<path fill="#ffffff" d="
  M 697.38 247.16
  L 696.83 248.34
  A 2.26 2.26 0.0 0 1 693.61 249.32
  L 689.28 246.70
  A 2.26 2.26 0.0 0 1 688.72 243.32
  L 692.97 238.25
  A 2.26 2.26 0.0 0 1 696.95 239.48
  L 697.58 245.99
  A 2.26 2.26 0.0 0 1 697.38 247.16
  Z"
/>
<path fill="#ffffff" d="
  M 676.61 245.84
  C 678.07 246.97 679.85 247.28 681.27 248.36
  C 684.70 250.99 688.85 253.20 691.69 256.65
  C 693.81 259.23 694.27 262.71 691.09 264.66
  C 686.93 267.20 682.15 266.51 678.11 263.99
  Q 675.80 262.55 673.46 261.44
  Q 668.99 259.34 664.82 254.35
  Q 663.17 252.38 665.62 251.59
  Q 666.07 251.44 666.53 251.35
  Q 669.10 250.84 670.48 253.07
  Q 672.16 255.81 674.35 257.12
  C 678.45 259.57 681.82 263.73 687.15 261.18
  Q 688.27 260.65 688.17 259.41
  Q 688.01 257.39 686.24 256.32
  C 681.10 253.24 675.52 249.12 669.35 248.74
  Q 665.91 248.53 662.51 247.32
  A 2.44 2.44 0.0 0 1 661.21 243.81
  C 663.64 239.55 667.43 238.01 672.09 238.08
  Q 674.96 238.13 677.79 237.52
  A 2.03 2.02 85.0 0 1 680.24 239.58
  C 680.17 241.46 677.84 243.49 676.56 244.70
  A 0.75 0.75 0.0 0 0 676.61 245.84
  Z"
/>
<path fill="#1b3e97" d="
  M 107.75 249.88
  Q 107.50 247.28 108.44 243.63
  A 0.52 0.52 0.0 0 1 109.25 243.34
  C 111.71 245.18 112.50 248.68 113.66 251.43
  Q 114.61 253.71 112.19 253.23
  L 110.48 252.89
  Q 108.00 252.40 107.75 249.88
  Z"
/>
<path fill="#ffffff" d="
  M 650.22 266.78
  Q 654.46 265.39 650.14 264.25
  Q 644.72 262.83 641.08 259.18
  A 1.67 1.67 0.0 0 1 641.98 256.35
  Q 646.71 255.55 651.55 255.73
  Q 654.49 255.83 656.43 253.62
  C 657.85 252.01 660.04 251.95 661.99 252.33
  A 0.86 0.86 0.0 0 1 662.63 253.49
  C 661.86 255.42 660.82 258.03 663.40 259.22
  Q 667.80 261.25 671.64 264.92
  A 0.86 0.86 0.0 0 1 671.48 266.28
  C 669.18 267.67 666.26 266.71 663.85 266.02
  Q 662.40 265.60 661.28 266.60
  Q 659.59 268.09 657.71 268.78
  Q 653.80 270.22 649.56 271.78
  Q 647.84 272.42 647.37 274.02
  C 646.44 277.22 652.34 280.39 654.61 281.03
  Q 655.10 281.16 655.59 281.01
  L 657.93 280.27
  Q 658.50 280.09 658.84 280.58
  Q 659.53 281.58 658.60 282.39
  Q 655.29 285.26 654.57 290.16
  A 1.63 1.63 0.0 0 1 652.34 291.44
  C 648.58 289.92 648.67 284.21 645.70 281.41
  C 643.64 279.47 638.80 275.73 641.92 272.50
  Q 646.17 268.11 650.22 266.78
  Z"
/>
<path fill="#ffffff" d="
  M 397.71 304.13
  A 13.31 13.31 0.0 0 1 384.40 317.44
  A 13.31 13.31 0.0 0 1 371.09 304.13
  A 13.31 13.31 0.0 0 1 384.40 290.82
  A 13.31 13.31 0.0 0 1 397.71 304.13
  Z"
/>
<path fill="#ffffff" d="
  M 468.0677 345.1227
  A 12.04 12.04 0.0 0 1 451.0555 345.8357
  L 449.5097 344.4142
  A 12.04 12.04 0.0 0 1 448.7967 327.4020
  L 450.2723 325.7973
  A 12.04 12.04 0.0 0 1 467.2845 325.0843
  L 468.8303 326.5058
  A 12.04 12.04 0.0 0 1 469.5433 343.5180
  L 468.0677 345.1227
  Z"
/>
<path fill="#ffffff" d="
  M 380.75 421.11
  A 1.04 1.04 0.0 0 0 380.45 419.76
  Q 362.19 406.49 342.71 392.15
  Q 342.23 391.80 341.96 391.28
  A 0.61 0.60 -12.8 0 1 342.52 390.40
  L 352.15 390.63
  A 2.36 2.35 -88.3 0 0 354.56 388.35
  Q 354.69 384.13 355.25 379.95
  Q 357.84 360.69 359.27 342.74
  A 0.91 0.91 0.0 0 1 360.58 342.00
  Q 362.43 342.92 362.93 344.92
  Q 363.68 347.97 365.22 350.63
  A 2.44 2.43 -26.9 0 0 368.31 351.64
  L 412.00 332.21
  Q 412.75 331.88 412.52 332.67
  C 411.55 336.01 408.99 338.88 406.72 341.51
  Q 404.56 344.00 407.22 345.82
  Q 421.51 355.63 440.96 369.97
  Q 443.15 371.59 444.84 373.37
  A 0.55 0.54 -40.3 0 1 444.77 374.18
  Q 443.74 374.93 442.49 374.77
  Q 438.00 374.20 433.43 373.64
  A 1.26 1.26 0.0 0 0 432.02 374.76
  C 431.41 380.87 430.32 386.96 429.71 393.13
  Q 428.46 405.81 427.18 418.24
  Q 427.07 419.37 426.48 420.21
  A 0.80 0.80 0.0 0 1 425.10 420.10
  L 421.54 412.81
  A 2.24 2.24 0.0 0 0 418.48 411.82
  Q 413.09 414.70 408.22 416.80
  Q 392.96 423.39 375.79 430.98
  A 0.52 0.51 -8.3 0 1 375.07 430.45
  Q 375.26 428.93 376.21 427.73
  Q 379.08 424.09 380.75 421.11
  Z
  M 416.25 382.64
  A 23.90 23.90 0.0 0 0 392.35 358.74
  A 23.90 23.90 0.0 0 0 368.45 382.64
  A 23.90 23.90 0.0 0 0 392.35 406.54
  A 23.90 23.90 0.0 0 0 416.25 382.64
  Z"
/>
<path fill="#ffffff" d="
  M 333.15 349.39
  A 13.32 13.32 0.0 0 1 319.83 362.71
  A 13.32 13.32 0.0 0 1 306.51 349.39
  A 13.32 13.32 0.0 0 1 319.83 336.07
  A 13.32 13.32 0.0 0 1 333.15 349.39
  Z"
/>
<path fill="#012a8d" d="
  M 416.25 382.64
  A 23.90 23.90 0.0 0 1 392.35 406.54
  A 23.90 23.90 0.0 0 1 368.45 382.64
  A 23.90 23.90 0.0 0 1 392.35 358.74
  A 23.90 23.90 0.0 0 1 416.25 382.64
  Z"
/>
<path fill="#ffffff" d="
  M 466.3962 430.0501
  A 13.57 13.15 93.1 0 1 453.9992 415.7889
  A 13.57 13.15 93.1 0 1 467.8638 402.9499
  A 13.57 13.15 93.1 0 1 480.2608 417.2111
  A 13.57 13.15 93.1 0 1 466.3962 430.0501
  Z"
/>
<path fill="#ffffff" d="
  M 341.21 429.77
  A 13.34 13.34 0.0 0 1 327.87 443.11
  A 13.34 13.34 0.0 0 1 314.53 429.77
  A 13.34 13.34 0.0 0 1 327.87 416.43
  A 13.34 13.34 0.0 0 1 341.21 429.77
  Z"
/>
<path fill="#ffffff" d="
  M 409.0692 473.0147
  A 12.08 12.08 0.0 0 1 391.9930 473.5215
  L 390.5374 472.1498
  A 12.08 12.08 0.0 0 1 390.0306 455.0737
  L 391.4708 453.5453
  A 12.08 12.08 0.0 0 1 408.5470 453.0385
  L 410.0026 454.4102
  A 12.08 12.08 0.0 0 1 410.5094 471.4863
  L 409.0692 473.0147
  Z"
/>
<path fill="#ffffff" d="
  M 660.37 483.57
  Q 665.19 489.26 671.57 484.35
  C 677.30 479.94 682.03 476.02 689.75 479.30
  Q 697.58 482.63 696.96 490.54
  C 696.70 493.83 694.09 497.15 692.18 499.97
  A 2.67 2.67 0.0 0 1 688.88 500.90
  L 683.04 498.28
  Q 679.80 496.83 683.35 496.67
  C 687.38 496.50 691.39 496.68 693.97 492.87
  C 696.23 489.53 693.00 485.91 690.00 484.77
  C 687.43 483.80 684.69 485.56 682.74 487.12
  Q 678.71 490.35 674.35 492.61
  C 672.89 493.37 671.85 493.07 670.34 492.85
  Q 662.56 491.70 658.63 486.18
  Q 657.09 484.03 657.64 482.17
  Q 658.78 478.35 661.77 474.08
  Q 662.02 473.71 662.45 473.59
  Q 666.56 472.44 670.41 472.80
  A 0.77 0.77 0.0 0 1 671.11 473.64
  Q 671.07 474.15 670.58 474.36
  Q 664.79 476.77 660.71 480.06
  A 2.47 2.46 -39.6 0 0 660.37 483.57
  Z"
/>
<path fill="#ffffff" d="
  M 147.29 513.55
  C 145.78 512.11 145.02 510.22 142.72 509.95
  C 139.03 509.53 133.42 513.21 130.47 515.35
  A 1.55 1.54 60.5 0 0 129.96 517.21
  L 132.34 522.80
  Q 133.23 524.91 135.27 523.88
  Q 140.55 521.21 145.14 518.62
  Q 148.00 517.00 147.56 514.04
  Q 150.03 517.73 151.69 521.86
  C 153.08 525.32 154.61 527.55 156.75 530.29
  C 159.10 533.30 160.04 537.63 162.71 540.12
  C 165.09 542.32 168.64 547.14 166.79 550.58
  Q 162.58 558.41 160.33 565.62
  Q 159.46 568.38 159.52 571.39
  Q 159.55 572.39 158.71 573.12
  Q 152.55 578.52 147.03 581.98
  Q 145.87 582.71 145.77 581.34
  Q 145.68 580.19 146.21 579.05
  Q 151.95 566.68 156.43 554.33
  Q 157.22 552.15 157.34 549.79
  Q 157.37 549.20 156.96 549.62
  C 155.80 550.81 154.69 552.16 153.37 553.15
  Q 144.22 560.02 135.92 567.54
  Q 134.38 568.93 133.17 567.25
  Q 132.99 567.00 132.91 566.66
  Q 132.47 564.81 134.14 563.88
  C 141.55 559.75 147.67 555.11 154.33 550.11
  C 155.47 549.25 157.13 548.98 158.03 547.83
  C 160.11 545.17 163.55 539.91 158.53 538.07
  Q 158.02 537.88 157.52 538.10
  Q 153.38 539.97 152.07 540.82
  Q 143.33 546.47 136.89 550.16
  Q 131.85 553.04 128.79 557.31
  Q 128.49 557.73 128.08 557.41
  Q 124.82 554.82 123.18 550.18
  Q 124.28 549.33 125.86 548.65
  Q 127.66 547.87 128.61 547.29
  Q 135.91 542.81 143.60 538.19
  C 146.61 536.38 149.75 534.95 152.57 532.83
  Q 154.08 531.69 153.81 530.11
  C 153.41 527.82 152.76 522.90 149.15 524.32
  Q 146.45 525.37 143.73 526.73
  Q 134.43 531.41 124.69 536.16
  Q 121.55 537.69 117.65 540.66
  Q 115.74 538.72 114.58 535.26
  Q 113.83 533.02 112.89 531.43
  C 111.90 529.76 111.51 528.04 110.45 526.36
  Q 108.15 522.68 106.82 517.70
  Q 106.62 516.94 107.40 516.99
  C 111.18 517.25 118.08 513.77 121.70 511.99
  Q 130.06 507.89 138.03 503.96
  Q 140.35 502.81 139.83 500.28
  Q 139.80 500.13 139.78 499.96
  Q 139.48 497.30 136.99 498.27
  Q 133.84 499.50 130.20 500.41
  A 0.78 0.78 0.0 0 1 129.23 499.74
  C 129.00 497.72 136.83 494.37 135.39 490.20
  Q 133.51 484.77 129.53 483.93
  C 124.30 482.84 117.76 484.74 112.74 486.28
  C 108.69 487.51 99.59 493.06 101.82 498.38
  C 103.60 502.61 106.40 503.29 109.40 505.87
  Q 111.57 507.74 108.72 507.45
  Q 104.86 507.05 101.22 503.44
  C 94.67 496.93 97.54 487.95 104.07 482.85
  C 111.25 477.24 120.53 474.79 129.11 478.21
  C 136.49 481.15 137.83 488.06 139.09 495.08
  Q 139.65 498.21 141.70 501.12
  C 142.94 502.89 143.56 505.02 144.40 507.05
  C 145.13 508.82 146.63 511.17 147.29 513.55
  Z
  M 129.59 524.16
  L 126.79 518.78
  A 1.82 1.82 0.0 0 0 124.34 518.01
  L 117.43 521.61
  A 7.93 3.24 -27.5 0 0 111.89 528.14
  L 113.37 531.00
  A 7.93 3.24 -27.5 0 0 121.90 530.21
  L 128.81 526.61
  A 1.82 1.82 0.0 0 0 129.59 524.16
  Z"
/>
<path fill="#ffffff" d="
  M 651.65 504.73
  Q 652.57 506.45 654.30 507.36
  Q 657.93 509.26 662.03 511.49
  Q 662.72 511.86 663.51 511.85
  C 665.63 511.80 666.63 511.79 668.49 513.18
  Q 673.20 516.69 678.72 518.94
  C 681.99 520.27 684.24 517.07 684.51 514.30
  C 684.85 510.94 682.16 507.53 679.78 505.40
  Q 678.18 503.97 680.27 504.45
  C 682.51 504.97 685.27 505.50 686.83 507.26
  Q 689.01 509.72 687.52 513.59
  C 685.39 519.12 683.22 525.01 678.82 529.21
  Q 678.28 529.73 678.05 529.02
  C 676.82 525.35 668.58 521.69 664.87 520.04
  Q 657.54 516.79 651.37 513.71
  Q 648.91 512.49 645.91 512.79
  Q 645.36 512.85 645.47 512.31
  C 646.00 509.83 646.93 508.06 648.27 505.94
  Q 649.21 504.48 649.67 502.71
  Q 650.60 499.11 653.22 495.82
  Q 655.32 493.19 658.36 495.04
  Q 661.11 496.72 664.00 498.83
  A 0.94 0.92 -69.4 0 1 664.37 499.67
  L 664.34 500.04
  Q 664.31 500.39 663.98 500.28
  Q 662.49 499.79 661.19 498.95
  C 657.42 496.48 653.11 500.52 651.62 503.73
  Q 651.39 504.24 651.65 504.73
  Z"
/>
<path fill="#ffffff" d="
  M 675.37 510.93
  L 668.57 511.66
  A 2.57 2.57 0.0 0 1 666.00 510.26
  C 665.49 509.24 665.12 508.31 664.09 507.70
  Q 662.19 506.57 660.15 505.40
  Q 658.58 504.50 660.37 504.26
  C 662.11 504.04 664.38 504.55 665.94 505.39
  Q 669.91 507.53 674.67 509.19
  Q 675.69 509.55 675.70 510.55
  Q 675.71 510.89 675.37 510.93
  Z"
/>
<path fill="#1b3e97" d="
  M 147.29 513.55
  Q 147.46 513.31 147.56 514.04
  Q 148.00 517.00 145.14 518.62
  Q 140.55 521.21 135.27 523.88
  Q 133.23 524.91 132.34 522.80
  L 129.96 517.21
  A 1.55 1.54 60.5 0 1 130.47 515.35
  C 133.42 513.21 139.03 509.53 142.72 509.95
  C 145.02 510.22 145.78 512.11 147.29 513.55
  Z"
/>
<path fill="#ffffff" d="
  M 661.80 546.60
  C 665.51 547.53 668.90 544.91 670.70 541.63
  C 672.98 537.46 670.93 537.08 669.25 533.76
  Q 668.98 533.22 669.01 532.61
  A 0.66 0.66 0.0 0 1 670.00 532.07
  Q 674.54 534.67 673.68 539.98
  Q 672.47 547.54 666.26 551.80
  C 664.94 552.71 662.83 552.57 661.30 552.78
  C 651.12 554.15 640.55 546.29 636.68 536.81
  Q 633.74 529.62 637.88 524.24
  C 639.62 521.97 645.45 514.70 648.58 517.90
  Q 650.08 519.43 651.83 520.53
  Q 653.76 521.75 651.48 521.94
  C 648.65 522.19 643.97 522.07 641.98 523.78
  C 640.11 525.38 638.58 527.58 639.77 530.15
  C 643.96 539.20 652.56 544.28 661.80 546.60
  Z"
/>
<path fill="#1b3e97" d="
  M 129.59 524.16
  A 1.82 1.82 0.0 0 1 128.81 526.61
  L 121.90 530.21
  A 7.93 3.24 -27.5 0 1 113.37 531.00
  L 111.89 528.14
  A 7.93 3.24 -27.5 0 1 117.43 521.61
  L 124.34 518.01
  A 1.82 1.82 0.0 0 1 126.79 518.78
  L 129.59 524.16
  Z"
/>
<path fill="#1b3e97" d="
  M 123.18 550.18
  Q 121.55 549.25 120.15 547.47
  Q 118.71 545.63 118.36 543.40
  Q 118.29 542.90 118.65 542.55
  Q 120.93 540.35 117.65 540.66
  Q 121.55 537.69 124.69 536.16
  Q 134.43 531.41 143.73 526.73
  Q 146.45 525.37 149.15 524.32
  C 152.76 522.90 153.41 527.82 153.81 530.11
  Q 154.08 531.69 152.57 532.83
  C 149.75 534.95 146.61 536.38 143.60 538.19
  Q 135.91 542.81 128.61 547.29
  Q 127.66 547.87 125.86 548.65
  Q 124.28 549.33 123.18 550.18
  Z"
/>
<path fill="#ffffff" d="
  M 640.95 558.37
  Q 640.59 557.13 639.59 556.12
  Q 632.94 549.44 625.50 545.86
  Q 624.20 545.23 624.58 543.85
  Q 625.01 542.31 626.13 541.70
  A 1.63 1.63 0.0 0 1 628.02 541.94
  C 629.42 543.25 630.21 544.88 631.65 546.10
  C 635.72 549.57 639.56 552.99 644.06 556.01
  Q 650.70 560.46 656.82 565.58
  A 1.56 1.55 4.1 0 1 657.17 565.98
  Q 657.85 567.12 657.02 567.51
  Q 656.51 567.76 655.95 567.67
  C 651.60 566.96 647.46 565.83 642.99 565.57
  Q 635.32 565.11 627.05 563.98
  Q 625.38 563.76 624.26 564.82
  A 0.73 0.72 -49.3 0 0 624.34 565.95
  Q 632.06 571.32 638.13 576.45
  Q 641.09 578.95 645.65 579.75
  Q 646.25 579.86 646.26 580.47
  Q 646.31 582.96 644.11 584.77
  A 1.02 1.01 -34.4 0 1 642.59 584.49
  Q 640.15 580.30 635.49 576.82
  Q 628.23 571.39 621.71 565.63
  C 619.54 563.71 617.23 562.58 614.33 562.38
  Q 612.07 562.22 613.22 560.28
  C 614.98 557.30 616.97 553.84 621.16 554.75
  Q 630.16 556.72 640.73 558.61
  A 0.19 0.19 0.0 0 0 640.95 558.37
  Z"
/>
<path fill="#ffffff" d="
  M 183.57 572.81
  Q 180.49 576.03 177.52 578.79
  C 175.21 580.92 174.23 583.89 171.22 585.43
  Q 169.41 586.35 167.85 587.81
  Q 163.90 591.52 160.40 595.05
  A 1.34 1.34 0.0 0 0 160.39 596.92
  Q 165.67 602.31 173.05 600.88
  Q 175.24 600.46 173.72 602.09
  Q 172.12 603.83 169.56 605.32
  Q 167.92 606.28 166.41 605.36
  C 161.78 602.54 157.99 597.82 154.45 593.70
  Q 153.35 592.40 153.46 590.88
  Q 153.49 590.37 153.93 590.10
  C 163.84 583.96 170.22 577.11 177.98 569.26
  Q 178.99 568.23 179.61 566.96
  Q 179.83 566.51 179.65 566.04
  Q 178.86 564.00 177.22 562.27
  A 1.67 1.67 0.0 0 0 175.25 561.94
  Q 170.46 564.44 165.76 568.03
  Q 163.34 569.88 160.61 571.35
  Q 160.03 571.66 160.14 571.02
  Q 160.26 570.26 160.88 569.81
  C 165.31 566.63 171.63 562.12 174.42 557.25
  A 1.12 1.12 0.0 0 1 176.43 557.40
  C 178.08 561.53 180.15 564.29 183.49 567.45
  Q 188.60 572.30 193.79 578.75
  C 196.44 582.04 191.01 584.08 189.05 585.03
  A 0.46 0.46 0.0 0 1 188.41 584.48
  C 189.09 582.21 190.01 579.81 188.61 577.59
  Q 186.89 574.85 184.57 572.77
  Q 184.05 572.31 183.57 572.81
  Z"
/>
<path fill="#ffffff" d="
  M 614.69 586.96
  Q 615.63 588.13 616.26 589.59
  Q 616.50 590.17 617.02 590.52
  Q 620.88 593.18 624.38 597.09
  Q 626.21 599.15 628.03 597.20
  Q 629.82 595.29 631.25 593.07
  C 633.34 589.82 630.40 585.88 628.75 583.15
  Q 628.38 582.53 629.09 582.68
  Q 630.75 583.03 631.79 584.17
  Q 633.85 586.44 636.30 588.45
  Q 636.71 588.78 636.73 589.30
  Q 636.83 591.45 635.59 592.91
  Q 627.16 602.87 617.27 611.93
  Q 617.15 612.04 617.01 611.95
  L 616.78 611.81
  Q 616.70 611.76 616.77 611.70
  Q 618.70 609.89 620.39 607.97
  Q 623.12 604.85 619.99 601.88
  Q 608.95 591.41 598.33 581.29
  Q 596.50 579.54 594.57 581.18
  L 592.66 582.81
  Q 590.42 584.72 592.26 587.02
  Q 600.71 597.61 612.43 609.28
  Q 614.04 610.88 615.86 612.07
  Q 616.89 612.75 615.98 613.59
  L 610.15 618.91
  A 1.15 1.15 0.0 0 1 608.24 618.22
  C 607.94 616.20 607.05 614.72 605.62 613.10
  Q 596.83 603.20 588.18 593.26
  Q 585.81 590.54 583.25 592.92
  Q 582.99 593.16 582.68 593.03
  Q 582.20 592.83 582.52 592.42
  C 583.71 590.84 584.55 589.06 586.14 587.83
  C 588.80 585.77 590.41 583.06 593.02 581.09
  C 595.19 579.45 596.73 577.29 598.71 575.50
  Q 600.32 574.05 601.65 572.40
  Q 605.18 568.04 610.44 565.22
  A 0.54 0.54 0.0 0 1 611.13 565.37
  Q 612.56 567.21 614.36 568.58
  C 616.28 570.03 617.06 572.19 618.72 573.92
  Q 618.85 574.06 618.71 574.20
  L 618.53 574.38
  Q 618.50 574.41 618.48 574.38
  C 613.70 567.84 606.96 570.04 602.55 575.20
  Q 601.83 576.05 602.67 576.78
  Q 606.16 579.81 609.34 582.99
  C 610.95 584.61 613.24 585.16 614.69 586.96
  Z"
/>
<path fill="#ffffff" d="
  M 615.03 586.81
  Q 613.79 585.83 614.43 584.52
  Q 616.21 580.83 613.00 577.84
  A 0.38 0.38 0.0 0 1 613.00 577.28
  L 613.23 577.06
  A 0.69 0.69 0.0 0 1 614.17 577.06
  Q 619.08 581.64 622.19 585.59
  Q 622.86 586.43 621.79 586.59
  L 616.98 587.33
  Q 615.89 587.49 615.03 586.81
  Z"
/>
<path fill="#ffffff" d="
  M 175.43 584.26
  C 177.29 584.46 178.58 584.54 180.38 584.02
  A 0.26 0.26 0.0 0 1 180.69 584.38
  Q 178.57 588.96 174.44 590.89
  Q 172.58 591.76 172.56 589.70
  L 172.53 586.90
  A 2.64 2.62 -87.2 0 1 175.43 584.26
  Z"
/>
<path fill="#ffffff" d="
  M 198.69 590.66
  Q 196.08 592.92 196.73 596.51
  Q 197.73 602.07 198.21 607.23
  C 198.88 614.42 194.11 619.35 187.62 621.11
  C 182.80 622.42 177.54 617.32 175.06 613.96
  C 172.24 610.16 177.81 605.62 180.42 603.21
  Q 180.73 602.92 181.16 602.92
  A 0.33 0.32 -83.3 0 1 181.48 603.33
  Q 180.90 605.53 179.99 607.74
  C 178.43 611.56 179.30 615.46 182.75 617.85
  Q 184.39 619.00 186.21 618.06
  Q 190.95 615.61 189.91 609.55
  Q 189.20 605.40 188.35 601.32
  C 186.80 593.76 192.91 588.96 199.10 586.14
  A 1.60 1.59 44.3 0 1 200.41 586.13
  Q 206.66 588.94 211.82 595.51
  A 1.12 1.12 0.0 0 1 211.66 597.06
  Q 208.72 599.57 205.60 601.72
  Q 203.57 603.11 204.15 600.72
  Q 204.89 597.63 206.80 595.01
  A 1.31 1.30 40.4 0 0 206.66 593.32
  Q 204.10 590.77 200.11 590.23
  A 1.78 1.78 0.0 0 0 198.69 590.66
  Z"
/>
<path fill="#ffffff" d="
  M 592.51 633.26
  C 577.88 638.75 565.70 621.37 566.61 608.63
  Q 567.19 600.51 574.69 597.50
  C 576.87 596.63 578.51 595.21 580.71 594.32
  A 1.80 1.79 62.3 0 1 582.88 595.00
  L 587.66 602.21
  Q 588.00 602.72 587.41 602.91
  Q 586.86 603.08 586.41 602.71
  C 582.61 599.65 577.53 596.18 573.55 601.39
  Q 571.01 604.73 572.39 609.67
  C 574.40 616.83 578.44 621.68 583.99 626.53
  C 586.03 628.31 588.77 630.20 591.61 629.62
  C 597.26 628.47 597.11 624.35 599.24 620.19
  Q 600.13 618.44 600.78 620.29
  C 602.61 625.50 596.50 631.77 592.51 633.26
  Z"
/>
<path fill="#ffffff" d="
  M 221.81 606.47
  A 2.09 2.08 -64.6 0 0 219.69 607.23
  Q 217.00 610.68 214.51 614.35
  C 213.01 616.55 212.35 619.20 210.30 620.97
  C 207.95 623.01 205.96 625.65 204.15 628.12
  C 200.68 632.88 203.55 636.52 208.67 637.03
  Q 213.37 637.50 215.70 634.57
  Q 216.17 633.98 216.08 634.73
  C 215.73 637.40 213.07 643.22 209.37 641.73
  Q 206.60 640.61 203.90 638.40
  Q 198.82 634.21 193.38 630.07
  A 0.84 0.84 0.0 0 1 193.61 628.60
  Q 196.98 627.40 199.28 624.34
  Q 206.06 615.31 212.93 605.43
  C 214.16 603.67 215.10 601.30 214.60 599.11
  A 0.51 0.50 4.7 0 1 215.29 598.53
  Q 217.50 599.45 219.39 601.05
  C 222.25 603.49 225.54 605.29 228.65 607.36
  C 232.87 610.19 232.02 615.03 228.60 617.81
  Q 225.84 620.06 226.77 616.62
  C 227.93 612.30 226.65 607.56 221.81 606.47
  Z"
/>
<path fill="#ffffff" d="
  M 553.90 617.39
  C 551.58 617.25 547.83 619.28 547.51 622.00
  Q 547.44 622.57 547.73 623.05
  C 551.30 628.98 557.45 625.95 562.62 627.17
  C 570.11 628.94 574.57 634.08 575.10 642.06
  C 575.49 648.05 567.47 651.47 562.99 652.40
  A 2.96 2.95 -19.5 0 1 559.77 650.87
  L 556.36 644.31
  A 0.44 0.44 0.0 0 1 556.75 643.67
  C 558.94 643.65 562.20 646.70 564.04 647.90
  C 567.62 650.24 573.14 646.02 571.76 641.92
  C 569.72 635.86 566.74 636.17 561.24 636.45
  C 553.71 636.84 548.38 634.17 545.12 626.69
  C 541.45 618.30 550.28 614.41 556.50 613.11
  C 559.45 612.49 560.91 616.01 561.28 618.30
  A 0.62 0.62 0.0 0 1 560.44 618.98
  Q 556.88 617.58 553.90 617.39
  Z"
/>
<path fill="#ffffff" d="
  M 214.12 626.83
  Q 212.78 628.41 212.45 626.36
  Q 212.10 624.21 212.20 621.99
  Q 212.30 619.92 214.12 618.92
  Q 216.03 617.86 218.11 617.54
  A 0.79 0.79 0.0 0 1 219.01 618.47
  Q 218.39 621.80 214.12 626.83
  Z"
/>
<path fill="#ffffff" d="
  M 246.59 650.59
  C 242.05 650.80 240.36 654.13 239.50 658.05
  A 1.54 1.53 -9.8 0 1 238.82 659.01
  Q 236.82 660.26 234.41 658.68
  A 1.47 1.47 0.0 0 1 234.04 656.56
  Q 234.73 655.66 235.66 654.95
  Q 240.12 651.58 243.96 647.90
  C 245.56 646.38 247.20 645.32 248.68 643.57
  Q 251.95 639.70 255.69 636.51
  C 257.92 634.61 259.64 632.40 261.46 630.13
  Q 262.27 629.13 263.52 629.13
  A 0.72 0.71 1.9 0 1 264.24 629.89
  C 264.01 633.58 262.70 636.83 262.13 640.50
  Q 261.11 647.07 260.05 653.55
  Q 258.87 660.75 258.90 668.90
  A 0.67 0.67 0.0 0 1 258.02 669.53
  L 250.88 667.09
  A 1.93 1.92 -65.4 0 1 249.85 664.30
  C 251.36 661.72 253.60 657.55 252.13 654.57
  A 1.47 1.45 -0.4 0 0 251.41 653.87
  Q 249.20 652.86 247.55 650.99
  A 1.21 1.19 -21.9 0 0 246.59 650.59
  Z
  M 249.05 650.91
  L 252.01 651.82
  A 0.49 0.49 0.0 0 0 252.55 651.63
  Q 255.90 646.84 253.98 641.44
  Q 253.76 640.84 253.29 641.27
  C 250.04 644.19 247.87 645.09 248.45 650.18
  Q 248.51 650.74 249.05 650.91
  Z"
/>
<path fill="#ffffff" d="
  M 518.16 652.71
  L 522.40 647.30
  Q 523.52 645.88 523.74 647.68
  Q 524.22 651.84 526.66 655.96
  Q 527.29 657.03 527.47 658.46
  Q 527.53 658.94 526.98 659.19
  A 0.60 0.59 61.1 0 1 526.24 658.97
  Q 523.63 654.91 518.79 654.28
  Q 518.22 654.21 518.26 654.78
  Q 518.41 657.01 519.40 658.97
  Q 522.53 665.15 526.10 671.16
  A 1.25 1.24 53.8 0 1 525.86 672.72
  Q 522.88 675.42 518.66 676.08
  Q 517.92 676.19 517.80 675.46
  Q 516.70 668.70 513.20 661.06
  Q 508.44 650.69 503.58 642.06
  Q 502.46 640.07 504.58 639.20
  Q 511.35 636.44 518.02 633.03
  C 520.07 631.99 522.70 633.01 523.59 635.30
  Q 524.99 638.92 525.72 642.63
  A 0.82 0.82 0.0 0 1 525.28 643.52
  L 524.99 643.66
  Q 524.76 643.78 524.67 643.54
  Q 523.05 638.88 520.03 636.83
  Q 519.44 636.43 518.75 636.59
  Q 515.42 637.37 512.66 638.97
  A 1.41 1.39 80.5 0 0 511.99 639.92
  Q 511.50 642.45 512.68 644.54
  Q 514.33 647.46 515.79 650.66
  Q 516.40 652.00 517.50 652.80
  Q 517.88 653.07 518.16 652.71
  Z"
/>
<path fill="#ffffff" d="
  M 290.83 643.65
  Q 288.23 643.06 285.72 643.24
  C 282.49 643.47 278.59 649.43 277.13 652.23
  C 274.41 657.43 271.88 664.22 272.78 670.00
  Q 273.31 673.37 277.12 675.59
  C 280.14 677.35 283.56 675.61 286.39 674.32
  Q 287.27 673.92 287.03 674.86
  Q 286.11 678.37 282.91 678.83
  Q 276.27 679.79 271.24 676.09
  C 267.27 673.18 265.75 669.69 265.86 664.73
  Q 266.21 650.23 277.77 642.13
  C 282.28 638.98 288.84 638.94 293.59 642.09
  C 296.25 643.86 300.50 645.89 298.40 649.84
  Q 296.80 652.87 294.84 655.18
  Q 293.58 656.66 293.80 654.73
  C 294.25 650.64 296.87 645.02 290.83 643.65
  Z"
/>
<path fill="#012a8d" d="
  M 252.01 651.82
  L 249.05 650.91
  Q 248.51 650.74 248.45 650.18
  C 247.87 645.09 250.04 644.19 253.29 641.27
  Q 253.76 640.84 253.98 641.44
  Q 255.90 646.84 252.55 651.63
  A 0.49 0.49 0.0 0 1 252.01 651.82
  Z"
/>
<path fill="#ffffff" d="
  M 498.18 684.24
  C 491.61 687.17 486.08 684.66 482.01 679.36
  Q 474.59 669.67 475.79 657.87
  Q 476.70 648.89 485.68 646.34
  C 500.04 642.24 507.19 660.15 506.69 671.12
  Q 506.26 680.64 498.18 684.24
  Z
  M 496.8365 682.0460
  A 17.47 7.16 71.8 0 0 498.1818 663.2137
  A 17.47 7.16 71.8 0 0 485.9235 648.8540
  A 17.47 7.16 71.8 0 0 484.5782 667.6863
  A 17.47 7.16 71.8 0 0 496.8365 682.0460
  Z"
/>
<path fill="#012a8d" d="
  M 496.8365 682.0460
  A 17.47 7.16 71.8 0 1 484.5782 667.6863
  A 17.47 7.16 71.8 0 1 485.9235 648.8540
  A 17.47 7.16 71.8 0 1 498.1818 663.2137
  A 17.47 7.16 71.8 0 1 496.8365 682.0460
  Z"
/>
<path fill="#ffffff" d="
  M 307.98 675.05
  C 307.76 675.17 307.49 675.22 307.24 675.18
  Q 304.79 674.71 302.47 674.36
  A 2.19 2.19 0.0 0 0 300.36 675.23
  Q 297.50 679.15 297.28 684.00
  Q 297.27 684.37 296.90 684.30
  L 292.27 683.39
  Q 291.59 683.26 291.58 682.57
  Q 291.57 681.36 292.40 680.58
  C 294.53 678.59 296.75 676.87 298.22 674.23
  C 299.33 672.26 300.92 670.81 302.12 668.83
  Q 307.28 660.33 312.84 652.09
  Q 313.28 651.45 313.80 651.11
  Q 314.55 650.63 315.10 650.59
  Q 316.38 650.49 316.36 651.78
  Q 316.11 669.57 317.03 687.00
  Q 317.12 688.54 318.24 689.65
  Q 318.70 690.11 318.05 690.13
  Q 312.17 690.36 308.13 687.53
  Q 307.73 687.25 307.94 686.81
  Q 310.59 681.44 308.76 675.38
  Q 308.57 674.73 307.98 675.05
  Z
  M 308.37 674.03
  Q 308.37 674.21 308.36 674.38
  A 0.06 0.06 0.0 0 0 308.48 674.41
  Q 310.51 670.08 309.61 665.57
  A 1.03 1.03 0.0 0 0 308.04 664.91
  C 306.36 666.02 301.48 669.53 303.49 671.95
  C 304.39 673.04 306.22 672.95 307.50 673.10
  A 0.99 0.97 2.4 0 1 308.37 674.03
  Z"
/>
<path fill="#ffffff" d="
  M 324.12 691.33
  C 325.64 689.79 326.82 685.26 327.31 683.23
  Q 330.36 670.64 331.44 659.54
  Q 331.68 657.05 330.75 654.64
  Q 330.50 654.00 331.18 654.10
  Q 337.90 655.03 343.88 656.81
  C 351.89 659.18 354.81 667.60 353.73 675.26
  Q 352.47 684.23 347.63 690.24
  C 345.18 693.28 340.58 695.22 336.47 694.63
  C 332.65 694.07 327.44 694.16 324.19 691.98
  Q 323.76 691.69 324.12 691.33
  Z
  M 342.73 685.70
  Q 347.31 675.43 345.89 665.22
  Q 345.13 659.74 340.14 658.79
  Q 339.55 658.68 339.30 659.23
  Q 338.50 661.02 338.34 662.42
  Q 336.67 676.50 334.05 687.74
  Q 333.36 690.71 335.20 691.91
  Q 335.64 692.19 336.17 692.12
  C 339.80 691.64 341.34 688.81 342.73 685.70
  Z"
/>
<path fill="#ffffff" d="
  M 409.24 672.50
  Q 408.11 675.49 407.59 678.44
  Q 406.97 681.99 406.15 685.67
  Q 405.97 686.47 405.62 685.73
  Q 405.27 685.01 405.33 684.22
  C 405.60 680.44 405.82 675.94 407.79 672.57
  Q 409.92 668.90 409.72 662.82
  A 1.67 1.67 0.0 0 1 411.10 661.12
  C 415.36 660.38 419.64 660.36 423.80 659.62
  Q 427.77 658.90 432.29 659.04
  A 1.61 1.60 -2.1 0 1 433.83 660.47
  C 434.28 664.68 436.61 668.12 438.55 671.74
  Q 439.89 674.24 442.38 675.87
  Q 442.85 676.18 443.02 675.64
  Q 445.96 665.83 445.77 657.07
  A 0.67 0.66 85.0 0 1 446.33 656.40
  L 449.26 655.94
  Q 450.92 655.67 450.30 657.24
  Q 449.08 660.27 448.31 663.37
  Q 446.65 669.96 444.19 676.06
  Q 443.58 677.59 443.67 679.26
  C 443.91 683.23 443.71 688.83 445.28 691.98
  A 1.98 1.96 2.5 0 0 446.00 692.76
  Q 447.37 693.60 448.38 694.86
  A 0.93 0.92 -22.8 0 1 447.77 696.35
  L 436.00 697.87
  Q 435.30 697.96 435.57 697.30
  Q 436.73 694.55 437.34 691.99
  C 438.45 687.31 436.07 682.06 433.67 677.85
  Q 429.33 670.22 425.42 663.15
  C 424.41 661.31 421.47 661.68 419.71 661.71
  A 1.67 1.67 0.0 0 0 418.06 663.32
  Q 417.90 667.64 418.32 672.30
  C 418.89 678.62 418.87 684.93 419.16 691.16
  Q 419.33 694.84 420.53 698.34
  A 1.05 1.05 0.0 0 1 419.49 699.73
  L 411.97 699.42
  A 0.75 0.75 0.0 0 1 411.25 698.56
  Q 412.76 688.03 410.92 675.30
  Q 410.69 673.70 409.86 672.44
  Q 409.48 671.87 409.24 672.50
  Z"
/>
<path fill="#012a8d" d="
  M 342.73 685.70
  C 341.34 688.81 339.80 691.64 336.17 692.12
  Q 335.64 692.19 335.20 691.91
  Q 333.36 690.71 334.05 687.74
  Q 336.67 676.50 338.34 662.42
  Q 338.50 661.02 339.30 659.23
  Q 339.55 658.68 340.14 658.79
  Q 345.13 659.74 345.89 665.22
  Q 347.31 675.43 342.73 685.70
  Z"
/>
<path fill="#ffffff" d="
  M 376.30 688.16
  Q 376.39 688.29 376.25 688.38
  L 376.02 688.51
  Q 375.97 688.54 375.93 688.50
  Q 374.14 686.39 373.81 683.85
  Q 373.74 683.30 373.31 682.94
  Q 371.29 681.27 368.77 681.06
  A 2.24 2.24 0.0 0 0 366.36 683.06
  Q 365.75 688.74 365.99 694.31
  A 1.62 1.61 -80.2 0 0 367.00 695.75
  C 372.01 697.78 378.54 696.40 377.45 689.36
  Q 377.40 689.01 377.74 689.10
  Q 378.97 689.41 379.32 690.89
  A 2.06 1.97 -53.2 0 1 379.38 691.38
  Q 379.36 694.07 379.00 697.17
  Q 378.73 699.50 376.38 699.42
  Q 367.25 699.11 359.72 698.58
  Q 357.11 698.39 357.58 695.90
  Q 360.02 682.85 360.73 668.25
  C 360.87 665.42 360.53 662.65 359.98 659.87
  Q 359.84 659.17 360.55 659.21
  L 379.52 660.39
  Q 381.05 660.49 381.04 662.02
  L 380.99 666.95
  A 1.28 1.27 66.6 0 1 380.67 667.77
  C 378.60 670.06 375.78 671.19 374.69 674.28
  C 373.83 676.74 373.96 680.18 374.04 682.76
  Q 374.11 685.12 376.30 688.16
  Z
  M 375.64 671.76
  Q 377.93 668.79 377.05 664.35
  A 1.50 1.50 0.0 0 0 375.89 663.19
  Q 372.21 662.43 368.71 662.69
  A 0.90 0.90 0.0 0 0 367.89 663.50
  L 366.86 675.66
  Q 366.81 676.25 367.40 676.24
  L 372.47 676.19
  Q 373.02 676.18 373.38 675.75
  C 374.42 674.51 374.68 672.99 375.64 671.76
  Z"
/>
<path fill="#ffffff" d="
  M 390.62 670.64
  Q 389.60 669.78 389.14 668.72
  Q 387.89 664.83 385.42 661.58
  A 0.40 0.40 0.0 0 1 385.74 660.93
  L 393.72 661.00
  A 2.59 2.58 -9.1 0 1 396.14 662.75
  Q 399.10 671.41 401.51 680.01
  C 402.26 682.69 404.51 685.76 404.64 688.99
  Q 404.81 693.22 402.81 697.43
  A 1.26 1.26 0.0 0 1 400.49 697.33
  L 390.62 670.64
  Z"
/>
<path fill="#1b3e97" d="
  M 375.64 671.76
  C 374.68 672.99 374.42 674.51 373.38 675.75
  Q 373.02 676.18 372.47 676.19
  L 367.40 676.24
  Q 366.81 676.25 366.86 675.66
  L 367.89 663.50
  A 0.90 0.90 0.0 0 1 368.71 662.69
  Q 372.21 662.43 375.89 663.19
  A 1.50 1.50 0.0 0 1 377.05 664.35
  Q 377.93 668.79 375.64 671.76
  Z"
/>
<path fill="#1b3e97" d="
  M 308.37 674.03
  A 0.99 0.97 2.4 0 0 307.50 673.10
  C 306.22 672.95 304.39 673.04 303.49 671.95
  C 301.48 669.53 306.36 666.02 308.04 664.91
  A 1.03 1.03 0.0 0 1 309.61 665.57
  Q 310.51 670.08 308.48 674.41
  A 0.06 0.06 0.0 0 1 308.36 674.38
  Q 308.37 674.21 308.37 674.03
  Z"
/>
<path fill="#1b3e97" d="
  M 389.14 668.72
  Q 389.60 669.78 390.62 670.64
  Q 390.00 670.53 389.92 671.73
  L 389.70 670.85
  Q 389.59 670.44 389.26 670.71
  Q 389.15 670.81 389.06 670.99
  Q 388.59 669.93 389.14 668.72
  Z"
/>
<path fill="#ffffff" d="
  M 389.92 671.73
  Q 391.13 680.31 390.63 689.00
  Q 390.39 693.24 392.81 696.49
  A 1.78 1.78 0.0 0 1 392.11 699.18
  Q 389.94 700.15 388.01 699.57
  Q 385.91 698.95 387.05 697.08
  C 387.99 695.54 389.04 694.49 389.00 692.53
  Q 388.84 685.38 388.83 677.75
  Q 388.82 674.34 389.06 670.99
  Q 389.15 670.81 389.26 670.71
  Q 389.59 670.44 389.70 670.85
  L 389.92 671.73
  Z"
/>
</svg>
