<?xml version="1.0" encoding="UTF-8"?>
<svg xmlns="http://www.w3.org/2000/svg" xmlns:xlink="http://www.w3.org/1999/xlink" width="252pt" height="252pt" viewBox="0 0 252 252" version="1.1">
<defs>
<linearGradient id="linear0" gradientUnits="userSpaceOnUse" x1="20.4985" y1="8.5089" x2="20.4985" y2="31.0179" gradientTransform="matrix(5.773196,-0.0277113,-0.0277113,-5.773196,8.19967,244.925526)">
<stop offset="0" style="stop-color:rgb(100%,100%,100%);stop-opacity:1;"/>
<stop offset="1" style="stop-color:rgb(3.529412%,38.823529%,63.137255%);stop-opacity:1;"/>
</linearGradient>
</defs>
<g id="surface1">
<path style=" stroke:none;fill-rule:nonzero;fill:rgb(100%,100%,100%);fill-opacity:1;" d="M 0 126.546875 C -0.347656 56.980469 55.828125 0.289062 125.394531 0 C 194.960938 -0.347656 251.652344 55.828125 252 125.394531 C 252.347656 194.960938 196.171875 251.652344 126.605469 252 C 57.039062 252.289062 0.347656 196.171875 0 126.546875 Z M 0 126.546875 "/>
<path style=" stroke:none;fill-rule:nonzero;fill:url(#linear0);" d="M 70.664062 71.183594 C 56.636719 85.328125 48.03125 104.839844 48.089844 126.316406 C 48.207031 147.792969 56.980469 167.25 71.183594 181.277344 C 85.328125 195.308594 104.839844 203.910156 126.375 203.851562 C 147.910156 203.734375 167.308594 194.960938 181.335938 180.757812 C 195.363281 166.613281 203.96875 147.101562 203.851562 125.566406 C 203.734375 104.03125 194.960938 84.636719 180.757812 70.605469 C 166.613281 56.578125 147.101562 47.976562 125.566406 48.089844 C 104.089844 48.207031 84.691406 56.980469 70.664062 71.183594 Z M 70.664062 71.183594 "/>
<path style=" stroke:none;fill-rule:nonzero;fill:rgb(100%,100%,100%);fill-opacity:1;" d="M 83.539062 173.253906 L 83.363281 140.460938 L 78.632812 140.460938 L 78.804688 173.253906 Z M 98.722656 173.253906 L 98.546875 138.84375 L 93.527344 138.84375 L 93.699219 173.253906 Z M 98.835938 134.167969 L 92.949219 134.167969 L 92.949219 138.382812 L 98.835938 138.382812 Z M 78.398438 171.695312 L 72.453125 171.695312 L 72.453125 173.3125 L 78.398438 173.3125 Z M 78.285156 170.945312 L 78.226562 158.9375 C 78.226562 158.9375 77.015625 159.167969 76.667969 160.148438 C 76.378906 160.839844 76.550781 161.476562 75.917969 161.765625 C 74.992188 162.226562 74.1875 163.4375 74.472656 164.59375 C 74.820312 165.804688 74.648438 166.324219 74.128906 166.789062 C 73.609375 167.25 72.800781 168.058594 73.320312 170.886719 Z M 92.832031 141.210938 L 83.882812 141.269531 L 83.882812 143.175781 L 92.832031 143.117188 Z M 92.832031 147.449219 L 83.882812 147.503906 L 83.882812 149.410156 L 92.832031 149.351562 Z M 77.015625 143.175781 L 78.226562 143.175781 L 78.226562 141.269531 L 77.015625 141.269531 Z M 77.070312 149.46875 L 78.285156 149.46875 L 78.285156 147.5625 L 77.070312 147.5625 Z M 92.832031 143.578125 L 83.882812 143.636719 L 83.882812 147.042969 L 92.832031 146.984375 Z M 83.882812 152.699219 C 83.941406 152.179688 84.867188 151.546875 85.675781 151.140625 C 86.484375 150.738281 87.003906 149.871094 87.003906 149.871094 L 83.882812 149.871094 Z M 91.042969 151.140625 C 91.851562 151.546875 92.832031 152.179688 92.832031 152.699219 L 92.832031 149.871094 L 89.714844 149.871094 C 89.714844 149.8125 90.234375 150.738281 91.042969 151.140625 Z M 109.691406 139.25 L 99.183594 139.308594 L 99.183594 141.210938 L 109.691406 141.15625 Z M 109.75 146.695312 L 99.242188 146.753906 L 99.242188 148.660156 L 109.75 148.601562 Z M 109.691406 141.675781 L 99.183594 141.730469 L 99.183594 146.175781 L 109.691406 146.121094 Z M 101.03125 150.449219 C 101.839844 150.046875 102.359375 149.179688 102.359375 149.179688 L 99.242188 149.179688 L 99.242188 152.007812 C 99.300781 151.488281 100.222656 150.855469 101.03125 150.449219 Z M 107.957031 150.390625 C 108.765625 150.796875 109.691406 151.429688 109.75 151.949219 L 109.75 149.121094 L 106.632812 149.121094 C 106.632812 149.121094 107.152344 149.988281 107.957031 150.390625 Z M 135.035156 136.941406 L 116.445312 137.054688 L 116.445312 138.960938 L 135.035156 138.84375 Z M 135.09375 146.121094 L 116.503906 146.234375 L 116.503906 148.140625 L 135.09375 148.023438 Z M 135.09375 139.363281 L 116.503906 139.421875 L 116.5625 145.65625 L 135.152344 145.542969 Z M 118.292969 149.929688 C 119.101562 149.527344 119.621094 148.660156 119.621094 148.660156 L 116.503906 148.660156 L 116.503906 151.488281 C 116.5625 151.027344 117.484375 150.335938 118.292969 149.929688 Z M 133.304688 149.871094 C 134.113281 150.277344 135.035156 150.910156 135.09375 151.429688 L 135.09375 148.601562 L 131.976562 148.601562 C 131.976562 148.601562 132.496094 149.527344 133.304688 149.871094 Z M 76.148438 140 C 76.320312 140.691406 77.015625 141.210938 77.015625 141.210938 L 78.226562 141.269531 L 78.226562 140.058594 L 83.828125 140.058594 L 83.828125 141.269531 L 84.691406 141.269531 C 84.691406 141.269531 84.691406 141.039062 84.980469 140.867188 C 85.269531 140.691406 85.675781 140.636719 86.019531 140.636719 C 86.367188 140.636719 86.484375 140.347656 86.539062 139.941406 C 86.597656 139.539062 86.425781 139.363281 86.078125 139.25 C 85.675781 139.078125 85.789062 138.558594 85.730469 138.269531 C 85.617188 137.980469 83.882812 138.152344 83.882812 138.152344 L 83.882812 136.824219 L 83.019531 136.824219 C 83.019531 136.824219 82.84375 135.613281 83.078125 135.496094 C 83.25 135.382812 83.539062 135.265625 83.480469 134.6875 C 83.421875 134.113281 83.308594 134.054688 83.078125 134.054688 C 82.84375 134.054688 82.789062 133.996094 82.5 132.957031 C 82.269531 131.917969 81.460938 131.746094 80.941406 131.859375 C 80.421875 132.03125 80.015625 132.496094 79.957031 133.070312 C 79.902344 133.648438 79.671875 133.9375 79.382812 134.054688 C 79.09375 134.167969 78.976562 134.226562 78.976562 134.804688 C 78.976562 135.382812 79.265625 135.4375 79.382812 135.613281 C 79.554688 135.84375 79.4375 136.59375 79.4375 136.59375 L 79.4375 136.824219 L 78.226562 136.824219 L 78.226562 139.308594 C 77.878906 138.789062 77.707031 138.730469 77.304688 138.613281 C 76.898438 138.5 76.496094 138.039062 76.378906 137.75 C 76.207031 137.230469 75.859375 136.824219 75.511719 137.34375 C 75.109375 137.980469 75.511719 138.671875 75.746094 138.902344 C 76.148438 139.308594 75.976562 139.363281 76.148438 140 Z M 91.621094 140.867188 L 92.832031 140.867188 L 92.832031 138.960938 L 91.621094 138.960938 Z M 90.695312 137.632812 C 90.871094 138.324219 91.5625 138.84375 91.5625 138.84375 L 92.773438 138.902344 L 92.773438 136.996094 C 92.429688 136.421875 92.199219 136.363281 91.792969 136.246094 C 91.390625 136.132812 90.984375 135.671875 90.871094 135.382812 C 90.695312 134.863281 90.351562 134.515625 90.003906 134.976562 C 89.601562 135.613281 90.003906 136.304688 90.292969 136.535156 C 90.695312 136.941406 90.523438 136.996094 90.695312 137.632812 Z M 108.191406 138.730469 L 109.75 138.730469 L 109.75 136.824219 L 108.191406 136.824219 Z M 107.265625 135.324219 C 107.496094 136.132812 108.246094 136.765625 108.246094 136.765625 L 109.691406 136.824219 L 109.691406 134.574219 C 109.230469 133.878906 109.054688 133.824219 108.535156 133.707031 C 108.015625 133.589844 107.554688 133.015625 107.496094 132.667969 C 107.265625 132.089844 106.863281 131.628906 106.457031 132.207031 C 105.9375 132.957031 106.457031 133.765625 106.746094 134.054688 C 107.265625 134.515625 107.035156 134.515625 107.265625 135.324219 Z M 101.261719 137.75 C 101.433594 137.054688 101.261719 137.054688 101.664062 136.710938 C 101.898438 136.476562 102.359375 135.785156 101.898438 135.152344 C 101.550781 134.632812 101.203125 135.035156 101.03125 135.554688 C 100.914062 135.84375 100.570312 136.304688 100.105469 136.421875 C 99.703125 136.535156 99.472656 136.59375 99.125 137.171875 L 99.125 139.078125 L 100.339844 139.019531 C 100.394531 138.960938 101.03125 138.441406 101.261719 137.75 Z M 94.046875 133.878906 L 94.046875 134.113281 L 97.625 134.113281 C 97.625 134.113281 97.453125 132.839844 97.683594 132.726562 C 97.855469 132.609375 98.144531 132.496094 98.085938 131.859375 C 98.027344 131.226562 97.914062 131.167969 97.683594 131.167969 C 97.453125 131.167969 97.394531 131.109375 97.105469 130.070312 C 96.875 128.972656 96.066406 128.742188 95.546875 128.914062 C 95.027344 129.089844 94.621094 129.550781 94.566406 130.1875 C 94.507812 130.820312 94.277344 131.109375 93.988281 131.226562 C 93.699219 131.339844 93.582031 131.457031 93.640625 131.976562 C 93.640625 132.550781 93.929688 132.609375 94.046875 132.839844 C 94.160156 133.015625 94.046875 133.878906 94.046875 133.878906 Z M 115.925781 173.082031 L 115.753906 134.515625 L 110.382812 134.515625 L 110.558594 173.136719 Z M 116.386719 129.839844 L 109.804688 129.839844 L 109.804688 134.054688 L 116.386719 134.054688 Z M 110.960938 129.433594 L 110.960938 129.722656 L 115.117188 129.722656 C 115.117188 129.722656 114.945312 128.222656 115.175781 128.105469 C 115.40625 127.992188 115.695312 127.820312 115.636719 127.125 C 115.578125 126.433594 115.40625 126.375 115.175781 126.316406 C 114.945312 126.316406 114.828125 126.261719 114.539062 124.988281 C 114.25 123.71875 113.328125 123.488281 112.691406 123.660156 C 112.058594 123.835938 111.597656 124.414062 111.539062 125.105469 C 111.480469 125.796875 111.191406 126.144531 110.902344 126.316406 C 110.613281 126.492188 110.441406 126.546875 110.441406 127.242188 C 110.5 127.933594 110.789062 127.992188 110.960938 128.222656 C 111.078125 128.453125 110.960938 129.433594 110.960938 129.433594 Z M 119.449219 135.902344 C 119.734375 135.613281 119.96875 134.976562 119.792969 134.113281 C 119.679688 133.246094 119.734375 133.589844 119.679688 133.246094 C 119.5625 132.898438 118.753906 132.03125 117.945312 132.667969 C 117.136719 133.304688 116.847656 134.226562 116.445312 134.398438 L 116.445312 136.59375 L 118.929688 136.59375 C 118.929688 136.59375 119.160156 136.191406 119.449219 135.902344 Z M 172.964844 172.847656 L 172.792969 140.058594 L 168.058594 140.058594 L 168.230469 172.847656 Z M 158.070312 172.964844 L 157.898438 138.558594 L 152.875 138.558594 L 153.046875 172.964844 Z M 158.472656 133.878906 L 152.585938 133.878906 L 152.585938 138.09375 L 158.472656 138.09375 Z M 173.367188 172.847656 L 179.316406 172.847656 L 179.316406 171.234375 L 173.367188 171.234375 Z M 174.984375 159.6875 C 174.640625 158.707031 173.425781 158.472656 173.425781 158.472656 L 173.484375 170.484375 L 178.449219 170.484375 C 178.96875 167.652344 178.101562 166.84375 177.582031 166.382812 C 177.0625 165.921875 176.890625 165.402344 177.238281 164.191406 C 177.527344 162.976562 176.71875 161.765625 175.792969 161.359375 C 175.160156 161.015625 175.273438 160.378906 174.984375 159.6875 Z M 167.597656 140.867188 L 158.648438 140.921875 L 158.648438 142.828125 L 167.597656 142.769531 Z M 167.652344 147.101562 L 158.707031 147.160156 L 158.707031 149.0625 L 167.652344 149.007812 Z M 174.464844 142.714844 L 174.464844 140.808594 L 173.253906 140.808594 L 173.253906 142.714844 Z M 174.464844 147.042969 L 173.253906 147.042969 L 173.253906 148.949219 L 174.464844 148.949219 Z M 167.652344 143.234375 L 158.707031 143.289062 L 158.707031 146.695312 L 167.652344 146.640625 Z M 165.863281 150.738281 C 166.671875 151.140625 167.652344 151.777344 167.652344 152.296875 L 167.652344 149.46875 L 164.535156 149.46875 C 164.535156 149.46875 165.054688 150.390625 165.863281 150.738281 Z M 158.707031 152.355469 C 158.761719 151.835938 159.6875 151.199219 160.496094 150.796875 C 161.304688 150.390625 161.824219 149.527344 161.824219 149.527344 L 158.707031 149.527344 Z M 152.296875 139.019531 L 141.789062 139.078125 L 141.789062 140.980469 L 152.296875 140.921875 Z M 152.296875 146.464844 L 141.789062 146.523438 L 141.789062 148.429688 L 152.296875 148.371094 Z M 152.296875 141.5 L 141.789062 141.558594 L 141.789062 146.003906 L 152.296875 145.945312 Z M 150.566406 150.21875 C 151.375 150.621094 152.296875 151.257812 152.355469 151.777344 L 152.355469 148.949219 L 149.238281 148.949219 C 149.179688 148.890625 149.699219 149.8125 150.566406 150.21875 Z M 143.578125 150.21875 C 144.386719 149.8125 144.90625 148.949219 144.90625 148.949219 L 141.789062 148.949219 L 141.789062 151.777344 C 141.847656 151.257812 142.769531 150.621094 143.578125 150.21875 Z M 159.859375 138.613281 L 158.648438 138.613281 L 158.648438 140.519531 L 159.859375 140.519531 Z M 160.726562 137.34375 C 160.898438 136.652344 160.726562 136.652344 161.128906 136.246094 C 161.359375 136.015625 161.824219 135.324219 161.359375 134.6875 C 161.015625 134.167969 160.667969 134.574219 160.496094 135.09375 C 160.378906 135.382812 160.03125 135.84375 159.570312 135.957031 C 159.167969 136.074219 158.9375 136.074219 158.589844 136.710938 L 158.589844 138.613281 L 159.800781 138.558594 C 159.859375 138.558594 160.496094 137.980469 160.726562 137.34375 Z M 143.289062 136.652344 L 141.730469 136.652344 L 141.730469 138.558594 L 143.289062 138.558594 Z M 144.15625 135.152344 C 144.386719 134.34375 144.15625 134.34375 144.617188 133.878906 C 144.90625 133.589844 145.425781 132.785156 144.90625 132.089844 C 144.503906 131.511719 144.097656 131.976562 143.867188 132.550781 C 143.753906 132.898438 143.289062 133.417969 142.828125 133.589844 C 142.308594 133.707031 142.078125 133.765625 141.675781 134.457031 L 141.675781 136.710938 L 143.117188 136.652344 C 143.175781 136.59375 143.925781 135.957031 144.15625 135.152344 Z M 150.21875 137.515625 C 150.390625 138.210938 151.085938 138.730469 151.085938 138.730469 L 152.296875 138.789062 L 152.296875 136.882812 C 151.949219 136.304688 151.71875 136.246094 151.316406 136.132812 C 150.910156 136.015625 150.507812 135.554688 150.390625 135.265625 C 150.21875 134.746094 149.871094 134.34375 149.527344 134.863281 C 149.121094 135.496094 149.527344 136.191406 149.757812 136.421875 C 150.21875 136.824219 149.988281 136.882812 150.21875 137.515625 Z M 153.738281 132.378906 C 153.914062 132.496094 153.796875 133.765625 153.796875 133.765625 L 157.378906 133.765625 L 157.378906 133.535156 C 157.378906 133.535156 157.261719 132.667969 157.433594 132.496094 C 157.609375 132.265625 157.839844 132.207031 157.839844 131.628906 C 157.839844 131.050781 157.722656 130.992188 157.433594 130.878906 C 157.144531 130.761719 156.914062 130.472656 156.859375 129.839844 C 156.800781 129.203125 156.394531 128.742188 155.875 128.570312 C 155.355469 128.394531 154.546875 128.625 154.316406 129.722656 C 154.085938 130.820312 153.972656 130.820312 153.796875 130.878906 C 153.566406 130.878906 153.453125 130.9375 153.394531 131.570312 C 153.277344 132.148438 153.566406 132.265625 153.738281 132.378906 Z M 141.269531 172.964844 L 141.097656 134.398438 L 135.726562 134.398438 L 135.902344 172.964844 Z M 141.617188 129.722656 L 135.035156 129.722656 L 135.035156 133.9375 L 141.617188 133.9375 Z M 136.246094 127.992188 C 136.476562 128.105469 136.304688 129.609375 136.304688 129.609375 L 140.460938 129.609375 L 140.460938 129.378906 C 140.460938 129.378906 140.347656 128.394531 140.519531 128.164062 C 140.691406 127.933594 140.980469 127.820312 140.980469 127.183594 C 140.980469 126.492188 140.867188 126.433594 140.519531 126.316406 C 140.171875 126.144531 139.882812 125.855469 139.828125 125.105469 C 139.769531 124.355469 139.308594 123.835938 138.671875 123.660156 C 138.039062 123.488281 137.113281 123.71875 136.824219 124.988281 C 136.535156 126.261719 136.421875 126.261719 136.191406 126.316406 C 135.957031 126.375 135.785156 126.375 135.726562 127.125 C 135.726562 127.703125 136.015625 127.875 136.246094 127.992188 Z M 165.460938 140.230469 C 165.804688 140.230469 166.210938 140.289062 166.5 140.460938 C 166.789062 140.636719 166.789062 140.867188 166.789062 140.867188 L 167.652344 140.867188 L 167.652344 139.652344 L 173.253906 139.652344 L 173.253906 140.867188 L 174.464844 140.808594 C 174.464844 140.808594 175.101562 140.289062 175.273438 139.597656 C 175.449219 138.902344 175.273438 138.902344 175.679688 138.558594 C 175.910156 138.324219 176.371094 137.632812 175.910156 136.996094 C 175.5625 136.476562 175.214844 136.882812 175.042969 137.402344 C 174.929688 137.691406 174.582031 138.152344 174.121094 138.269531 C 173.714844 138.382812 173.542969 138.441406 173.195312 138.960938 L 173.195312 136.476562 L 171.984375 136.476562 L 171.984375 136.246094 C 171.984375 136.246094 171.867188 135.4375 172.042969 135.207031 C 172.214844 134.976562 172.445312 134.917969 172.445312 134.398438 C 172.445312 133.878906 172.328125 133.765625 172.042969 133.648438 C 171.753906 133.535156 171.523438 133.246094 171.464844 132.667969 C 171.40625 132.089844 171.003906 131.628906 170.484375 131.457031 C 169.960938 131.28125 169.15625 131.511719 168.921875 132.550781 C 168.691406 133.589844 168.578125 133.589844 168.402344 133.589844 C 168.171875 133.589844 168.058594 133.648438 168 134.226562 C 167.941406 134.804688 168.230469 134.917969 168.402344 135.035156 C 168.578125 135.152344 168.460938 136.363281 168.460938 136.363281 L 167.597656 136.363281 L 167.597656 137.691406 C 167.597656 137.691406 165.804688 137.574219 165.75 137.804688 C 165.691406 138.09375 165.804688 138.613281 165.402344 138.730469 C 164.996094 138.84375 164.882812 139.019531 164.941406 139.421875 C 164.941406 139.941406 165.054688 140.230469 165.460938 140.230469 Z M 132.550781 136.535156 L 135.035156 136.535156 L 135.035156 134.34375 C 134.632812 134.167969 134.285156 133.246094 133.535156 132.609375 C 132.726562 131.976562 131.917969 132.898438 131.800781 133.1875 C 131.746094 133.535156 131.800781 133.1875 131.6875 134.054688 C 131.570312 134.917969 131.746094 135.554688 132.03125 135.84375 C 132.378906 136.132812 132.550781 136.535156 132.550781 136.535156 Z M 65.582031 174.003906 L 74.589844 184.050781 L 177.582031 183.53125 L 186.761719 173.367188 Z M 65.582031 174.003906 "/>
<path style=" stroke:none;fill-rule:nonzero;fill:rgb(5.490196%,22.352941%,49.803922%);fill-opacity:1;" d="M 0 126.546875 C -0.347656 56.980469 55.828125 0.289062 125.394531 0 C 194.960938 -0.347656 251.652344 55.828125 252 125.394531 C 252.347656 194.960938 196.171875 251.652344 126.605469 252 C 57.039062 252.289062 0.347656 196.171875 0 126.546875 Z M 38.390625 39.199219 C 16.164062 61.601562 2.539062 92.488281 2.714844 126.546875 C 2.886719 160.609375 16.800781 191.324219 39.257812 213.550781 C 61.65625 235.777344 92.542969 249.402344 126.605469 249.230469 C 160.667969 249.054688 191.382812 235.085938 213.609375 212.683594 C 235.835938 190.285156 249.460938 159.398438 249.285156 125.335938 C 249.113281 91.273438 235.199219 60.5625 212.742188 38.335938 C 190.34375 16.105469 159.457031 2.484375 125.394531 2.65625 C 91.332031 2.828125 60.617188 16.800781 38.390625 39.199219 Z M 38.390625 39.199219 "/>
<path style=" stroke:none;fill-rule:nonzero;fill:rgb(5.490196%,22.352941%,49.803922%);fill-opacity:1;" d="M 125.625 46.242188 C 81.691406 46.472656 46.242188 82.269531 46.472656 126.203125 C 46.648438 162.398438 70.953125 192.765625 104.089844 202.292969 L 105.765625 199.984375 C 92.832031 196.460938 81.230469 189.648438 71.992188 180.46875 C 58.019531 166.613281 49.304688 147.449219 49.246094 126.261719 C 49.128906 105.015625 57.675781 85.789062 71.472656 71.820312 C 85.328125 57.847656 104.496094 49.128906 125.683594 49.070312 C 146.929688 48.957031 166.152344 57.441406 180.125 71.300781 C 194.09375 85.15625 202.8125 104.320312 202.871094 125.507812 C 202.984375 146.753906 194.441406 165.980469 180.644531 179.949219 C 171.40625 189.246094 159.859375 196.230469 146.871094 199.867188 L 148.601562 202.175781 C 181.683594 192.421875 205.8125 161.765625 205.582031 125.507812 C 205.351562 81.515625 169.558594 46.070312 125.625 46.242188 Z M 125.625 46.242188 "/>
<path style=" stroke:none;fill-rule:nonzero;fill:rgb(5.490196%,22.352941%,49.803922%);fill-opacity:1;" d="M 112.402344 196.636719 L 110.441406 205.46875 C 110.269531 205.929688 110.441406 206.21875 110.84375 206.277344 L 111.882812 206.507812 L 111.769531 207.085938 L 106.6875 205.988281 L 106.804688 205.410156 L 107.785156 205.640625 C 108.132812 205.699219 108.363281 205.582031 108.476562 205.121094 L 110.039062 198.25 C 109.285156 198.539062 108.59375 198.65625 108.015625 198.65625 L 107.902344 198.195312 C 109.230469 197.90625 110.5 197.328125 111.539062 196.519531 Z M 112.402344 196.636719 "/>
<path style=" stroke:none;fill-rule:nonzero;fill:rgb(5.490196%,22.352941%,49.803922%);fill-opacity:1;" d="M 117.714844 207.949219 L 117.367188 207.488281 C 119.273438 207.027344 120.542969 205.757812 121.179688 203.679688 C 120.601562 204.082031 120.023438 204.199219 119.503906 204.140625 C 117.773438 203.910156 116.90625 202.871094 116.964844 200.90625 C 117.253906 198.828125 118.410156 197.789062 120.488281 197.730469 C 122.679688 198.078125 123.71875 199.578125 123.660156 202.292969 C 123.199219 205.582031 121.238281 207.488281 117.714844 207.949219 Z M 119.042969 200.734375 C 118.8125 202.523438 119.160156 203.449219 119.96875 203.390625 C 120.3125 203.449219 120.773438 203.332031 121.351562 202.984375 C 121.46875 202.351562 121.582031 201.832031 121.582031 201.3125 C 121.699219 199.40625 121.292969 198.425781 120.429688 198.308594 C 119.621094 198.25 119.160156 199.058594 119.042969 200.734375 Z M 119.042969 200.734375 "/>
<path style=" stroke:none;fill-rule:nonzero;fill:rgb(5.490196%,22.352941%,49.803922%);fill-opacity:1;" d="M 129.203125 203.214844 L 128.914062 202.8125 C 130.011719 201.832031 130.472656 201.023438 130.417969 200.214844 C 130.300781 199.464844 129.898438 199.117188 129.203125 199.117188 C 128.570312 199.175781 128.105469 199.578125 127.761719 200.328125 L 127.242188 200.15625 C 127.703125 198.714844 128.625 197.90625 130.011719 197.730469 C 131.339844 197.789062 132.089844 198.308594 132.265625 199.347656 C 132.320312 200.214844 131.800781 201.023438 130.707031 201.714844 L 130.761719 201.714844 C 132.265625 201.714844 133.128906 202.582031 133.417969 204.253906 C 133.359375 206.621094 132.089844 207.949219 129.609375 208.179688 C 128.105469 208.179688 127.300781 207.835938 127.183594 207.085938 C 127.183594 206.621094 127.472656 206.335938 127.992188 206.21875 C 128.339844 206.21875 128.683594 206.449219 128.972656 206.910156 C 129.378906 207.375 129.78125 207.546875 130.1875 207.546875 C 131.050781 207.429688 131.457031 206.679688 131.457031 205.238281 C 131.28125 203.792969 130.648438 203.042969 129.664062 203.042969 C 129.609375 203.042969 129.492188 203.101562 129.378906 203.101562 C 129.320312 203.214844 129.261719 203.214844 129.203125 203.214844 Z M 129.203125 203.214844 "/>
<path style=" stroke:none;fill-rule:nonzero;fill:rgb(5.490196%,22.352941%,49.803922%);fill-opacity:1;" d="M 141.730469 206.679688 L 141.210938 204.082031 L 137.75 204.832031 L 137.632812 204.140625 L 140.75 196.289062 L 141.558594 196.117188 L 142.945312 202.640625 L 144.328125 202.351562 L 144.5625 203.390625 L 143.234375 203.679688 L 143.753906 206.277344 Z M 140.980469 203.042969 L 140.171875 199.289062 L 140.117188 199.289062 L 138.5 203.5625 Z M 140.980469 203.042969 "/>
<path style=" stroke:none;fill-rule:nonzero;fill:rgb(5.490196%,22.352941%,49.803922%);fill-opacity:1;" d="M 32.964844 137.34375 C 32.617188 135.785156 31.289062 135.207031 29.039062 135.613281 C 27.597656 135.84375 26.789062 136.421875 26.671875 137.34375 L 25.863281 140.578125 C 25.402344 142.308594 23.726562 143.40625 20.898438 143.925781 C 17.144531 144.503906 14.953125 143.523438 14.261719 140.921875 C 13.972656 139.480469 14.375 138.324219 15.472656 137.402344 C 16.570312 136.476562 18.1875 135.785156 20.378906 135.4375 L 20.609375 136.710938 C 17.609375 137.285156 16.164062 138.558594 16.394531 140.460938 C 16.800781 142.25 18.070312 142.945312 20.320312 142.597656 C 22.226562 142.425781 23.265625 141.5 23.554688 139.710938 L 24.132812 137.402344 C 24.535156 135.785156 25.980469 134.746094 28.460938 134.34375 C 32.5625 133.707031 34.871094 134.515625 35.390625 136.765625 C 35.851562 139.421875 33.945312 141.15625 29.617188 142.019531 L 29.386719 140.691406 C 31.925781 140.171875 33.136719 139.078125 32.964844 137.34375 Z M 32.964844 137.34375 "/>
<path style=" stroke:none;fill-rule:nonzero;fill:rgb(5.490196%,22.352941%,49.803922%);fill-opacity:1;" d="M 25.632812 143.984375 C 32.503906 142.484375 36.429688 143.289062 37.410156 146.351562 C 37.988281 149.527344 34.929688 152.125 28.171875 154.085938 C 21.476562 155.53125 17.609375 154.722656 16.570312 151.660156 C 16.050781 148.488281 19.050781 145.945312 25.632812 143.984375 Z M 25.980469 145.425781 C 20.839844 146.871094 18.472656 148.773438 18.761719 151.140625 C 19.628906 153.335938 22.632812 153.796875 27.828125 152.644531 C 32.964844 151.199219 35.332031 149.351562 34.984375 147.042969 C 34.121094 144.792969 31.117188 144.273438 25.980469 145.425781 Z M 25.980469 145.425781 "/>
<path style=" stroke:none;fill-rule:nonzero;fill:rgb(5.490196%,22.352941%,49.803922%);fill-opacity:1;" d="M 28.578125 164.132812 C 23.726562 165.574219 20.785156 165.113281 19.746094 162.574219 C 19.050781 160.089844 20.957031 158.011719 25.515625 156.339844 L 38.679688 151.894531 L 39.140625 153.21875 L 26.730469 157.433594 C 23.09375 158.707031 21.535156 160.148438 21.996094 161.878906 C 22.6875 163.554688 24.824219 163.84375 28.347656 162.6875 L 40.816406 158.472656 L 41.277344 159.859375 Z M 28.578125 164.132812 "/>
<path style=" stroke:none;fill-rule:nonzero;fill:rgb(5.490196%,22.352941%,49.803922%);fill-opacity:1;" d="M 44.625 167.769531 L 42.316406 168.75 L 40.933594 165.460938 L 23.84375 172.617188 L 23.265625 171.234375 L 40.355469 164.074219 L 38.96875 160.785156 L 41.277344 159.800781 Z M 44.625 167.769531 "/>
<path style=" stroke:none;fill-rule:nonzero;fill:rgb(5.490196%,22.352941%,49.803922%);fill-opacity:1;" d="M 48.496094 175.160156 L 29.789062 184.800781 L 29.097656 183.472656 L 37.699219 179.085938 L 35.160156 174.175781 L 26.558594 178.621094 L 25.863281 177.292969 L 44.570312 167.652344 L 45.261719 168.980469 L 37.410156 173.023438 L 39.949219 177.929688 L 47.800781 173.886719 Z M 48.496094 175.160156 "/>
<path style=" stroke:none;fill-rule:nonzero;fill:rgb(5.490196%,22.352941%,49.803922%);fill-opacity:1;" d="M 51.726562 184.453125 C 50.226562 182.78125 47.28125 183.414062 43.011719 186.359375 C 38.335938 189.707031 36.660156 192.304688 38.046875 194.210938 C 39.140625 195.421875 41.277344 195.191406 44.453125 193.402344 L 45.261719 194.558594 C 40.875 197.097656 37.8125 197.328125 36.140625 195.308594 C 34.582031 192.652344 36.542969 189.246094 42.085938 185.261719 C 47.800781 181.394531 51.671875 180.699219 53.804688 183.011719 C 55.132812 185.089844 54.152344 187.570312 50.863281 190.457031 L 50.054688 189.359375 C 52.074219 187.457031 52.652344 185.839844 51.726562 184.453125 Z M 51.726562 184.453125 "/>
<path style=" stroke:none;fill-rule:nonzero;fill:rgb(5.490196%,22.352941%,49.803922%);fill-opacity:1;" d="M 61.542969 192.765625 L 45.722656 206.621094 L 44.742188 205.527344 L 52.015625 199.175781 L 48.378906 195.019531 L 41.105469 201.367188 L 40.125 200.214844 L 55.941406 186.359375 L 56.921875 187.457031 L 50.285156 193.285156 L 53.921875 197.441406 L 60.5625 191.613281 Z M 61.542969 192.765625 "/>
<path style=" stroke:none;fill-rule:nonzero;fill:rgb(5.490196%,22.352941%,49.803922%);fill-opacity:1;" d="M 48.148438 208.988281 L 62.753906 193.863281 L 63.792969 194.84375 L 49.1875 209.972656 Z M 48.148438 208.988281 "/>
<path style=" stroke:none;fill-rule:nonzero;fill:rgb(5.490196%,22.352941%,49.803922%);fill-opacity:1;" d="M 71.933594 201.714844 L 58.828125 218.167969 L 57.558594 217.128906 L 63.910156 200.503906 L 53.285156 213.722656 L 52.191406 212.859375 L 65.351562 196.460938 L 66.679688 197.558594 L 60.097656 214.300781 L 70.78125 200.90625 Z M 71.933594 201.714844 "/>
<path style=" stroke:none;fill-rule:nonzero;fill:rgb(5.490196%,22.352941%,49.803922%);fill-opacity:1;" d="M 62.003906 220.363281 L 60.734375 219.613281 L 75.226562 203.851562 L 76.609375 204.71875 L 68.757812 224.636719 L 67.429688 223.828125 L 69.683594 218.167969 L 66.046875 215.917969 Z M 74.242188 206.855469 L 67.835938 213.898438 L 70.664062 215.628906 Z M 74.242188 206.855469 "/>
<path style=" stroke:none;fill-rule:nonzero;fill:rgb(5.490196%,22.352941%,49.803922%);fill-opacity:1;" d="M 85.15625 223.710938 C 83.078125 228.273438 80.710938 230.175781 78.113281 229.3125 C 75.800781 228.15625 75.511719 225.328125 77.304688 220.882812 L 82.730469 208.066406 L 84.058594 208.644531 L 78.976562 220.652344 C 77.535156 224.230469 77.535156 226.367188 79.152344 227.117188 C 80.882812 227.695312 82.5 226.25 84 222.84375 L 89.136719 210.722656 L 90.523438 211.300781 Z M 85.15625 223.710938 "/>
<path style=" stroke:none;fill-rule:nonzero;fill:rgb(5.490196%,22.352941%,49.803922%);fill-opacity:1;" d="M 99.183594 214.011719 L 93.121094 234.160156 L 91.5625 233.699219 L 91.273438 215.917969 L 86.367188 232.140625 L 84.980469 231.734375 L 91.101562 211.585938 L 92.773438 212.105469 L 92.890625 230.0625 L 97.855469 213.664062 Z M 99.183594 214.011719 "/>
<path style=" stroke:none;fill-rule:nonzero;fill:rgb(5.490196%,22.352941%,49.803922%);fill-opacity:1;" d="M 95.085938 234.566406 L 99.933594 214.128906 L 101.320312 214.472656 L 96.46875 234.96875 Z M 95.085938 234.566406 "/>
<path style=" stroke:none;fill-rule:nonzero;fill:rgb(5.490196%,22.352941%,49.803922%);fill-opacity:1;" d="M 110.441406 216.207031 L 102.9375 236.238281 L 101.378906 235.949219 L 101.378906 214.589844 L 102.9375 214.878906 L 102.707031 233.238281 L 108.941406 215.976562 Z M 110.441406 216.207031 "/>
<path style=" stroke:none;fill-rule:nonzero;fill:rgb(5.490196%,22.352941%,49.803922%);fill-opacity:1;" d="M 107.671875 236.988281 L 109.921875 216.089844 L 117.601562 216.898438 L 117.3125 219.382812 L 111.019531 218.6875 L 110.324219 225.15625 L 116.097656 225.789062 L 115.808594 228.273438 L 110.039062 227.636719 L 109.285156 234.855469 L 115.695312 235.546875 L 115.464844 237.855469 Z M 107.671875 236.988281 "/>
<path style=" stroke:none;fill-rule:nonzero;fill:rgb(5.490196%,22.352941%,49.803922%);fill-opacity:1;" d="M 117.023438 237.972656 L 117.832031 216.957031 L 122.738281 217.128906 C 125.046875 217.304688 126.144531 219.207031 125.972656 222.960938 C 125.914062 225.269531 125.335938 227.003906 124.296875 228.042969 C 125.105469 228.503906 125.507812 229.832031 125.394531 232.082031 L 125.335938 235.894531 C 125.277344 236.933594 125.453125 237.625 125.796875 237.914062 L 125.796875 238.316406 L 124.066406 238.261719 C 123.949219 237.394531 123.949219 235.71875 124.007812 233.179688 C 124.125 230.582031 123.546875 229.253906 122.277344 229.195312 L 118.753906 229.082031 L 118.410156 238.027344 Z M 122.21875 226.769531 C 123.660156 226.886719 124.414062 225.675781 124.527344 223.191406 C 124.644531 220.824219 124.007812 219.613281 122.796875 219.554688 L 119.160156 219.382812 L 118.871094 226.65625 Z M 122.21875 226.769531 "/>
<path style=" stroke:none;fill-rule:nonzero;fill:rgb(5.490196%,22.352941%,49.803922%);fill-opacity:1;" d="M 130.820312 219.382812 C 129.261719 219.496094 128.453125 220.710938 128.511719 223.019531 C 128.570312 224.519531 128.972656 225.386719 129.839844 225.617188 L 132.898438 226.886719 C 134.515625 227.636719 135.382812 229.425781 135.4375 232.3125 C 135.496094 236.125 134.167969 238.144531 131.457031 238.433594 C 130.011719 238.492188 128.859375 237.914062 128.164062 236.757812 C 127.414062 235.488281 127.011719 233.8125 126.953125 231.621094 L 128.28125 231.5625 C 128.394531 234.679688 129.433594 236.238281 131.339844 236.296875 C 133.1875 236.179688 134.054688 235.027344 134.054688 232.71875 C 134.167969 230.8125 133.417969 229.601562 131.6875 229.082031 L 129.492188 228.214844 C 127.992188 227.578125 127.183594 225.960938 127.125 223.421875 C 127.125 219.265625 128.28125 217.128906 130.589844 216.898438 C 133.304688 216.839844 134.746094 218.976562 134.917969 223.421875 L 133.535156 223.480469 C 133.417969 220.882812 132.550781 219.496094 130.820312 219.382812 Z M 130.820312 219.382812 "/>
<path style=" stroke:none;fill-rule:nonzero;fill:rgb(5.490196%,22.352941%,49.803922%);fill-opacity:1;" d="M 137.054688 237.914062 L 135.382812 216.957031 L 136.824219 216.839844 L 138.5 237.796875 Z M 137.054688 237.914062 "/>
<path style=" stroke:none;fill-rule:nonzero;fill:rgb(5.490196%,22.352941%,49.803922%);fill-opacity:1;" d="M 145.832031 215.746094 L 146.175781 218.226562 L 142.65625 218.746094 L 145.136719 237.105469 L 143.695312 237.277344 L 141.15625 218.917969 L 137.632812 219.382812 L 137.285156 216.898438 Z M 145.832031 215.746094 "/>
<path style=" stroke:none;fill-rule:nonzero;fill:rgb(5.490196%,22.352941%,49.803922%);fill-opacity:1;" d="M 153.625 235.488281 L 151.71875 227.40625 L 144.964844 215.917969 L 146.582031 215.511719 L 151.835938 224.75 L 152.46875 214.128906 L 154.085938 213.722656 L 153.046875 227.058594 L 154.953125 235.140625 Z M 153.625 235.488281 "/>
<path style=" stroke:none;fill-rule:nonzero;fill:rgb(5.490196%,22.352941%,49.803922%);fill-opacity:1;" d="M 161.359375 222.613281 C 158.878906 216.03125 159.109375 212.050781 161.996094 210.605469 C 165.054688 209.566406 168.058594 212.222656 170.945312 218.632812 C 173.367188 225.097656 173.082031 229.023438 170.195312 230.464844 C 167.191406 231.503906 164.246094 228.90625 161.359375 222.613281 Z M 162.746094 222.039062 C 164.941406 226.886719 167.132812 229.023438 169.441406 228.386719 C 171.464844 227.234375 171.523438 224.171875 169.617188 219.207031 C 167.480469 214.359375 165.285156 212.222656 163.035156 212.914062 C 160.957031 214.128906 160.839844 217.128906 162.746094 222.039062 Z M 162.746094 222.039062 "/>
<path style=" stroke:none;fill-rule:nonzero;fill:rgb(5.490196%,22.352941%,49.803922%);fill-opacity:1;" d="M 176.660156 227.347656 L 166.558594 208.875 L 173.023438 205.351562 L 174.234375 207.546875 L 169.039062 210.433594 L 172.15625 216.148438 L 176.71875 213.664062 L 177.929688 215.859375 L 173.367188 218.398438 L 177.929688 226.714844 Z M 176.660156 227.347656 "/>
<path style=" stroke:none;fill-rule:nonzero;fill:rgb(5.490196%,22.352941%,49.803922%);fill-opacity:1;" d="M 182.316406 198.597656 L 183.820312 200.617188 L 180.933594 202.753906 L 192.074219 217.535156 L 190.917969 218.398438 L 179.777344 203.621094 L 176.890625 205.757812 L 175.390625 203.734375 Z M 182.316406 198.597656 "/>
<path style=" stroke:none;fill-rule:nonzero;fill:rgb(5.490196%,22.352941%,49.803922%);fill-opacity:1;" d="M 196.058594 214.53125 L 181.914062 199.003906 L 187.628906 193.804688 L 189.304688 195.652344 L 184.625 199.925781 L 189.015625 204.71875 L 193.34375 200.792969 L 195.019531 202.640625 L 190.6875 206.566406 L 195.480469 211.875 L 200.214844 207.546875 L 201.773438 209.277344 Z M 196.058594 214.53125 "/>
<path style=" stroke:none;fill-rule:nonzero;fill:rgb(5.490196%,22.352941%,49.803922%);fill-opacity:1;" d="M 192.191406 192.132812 C 190.863281 193.980469 192.132812 196.691406 195.882812 200.214844 C 200.15625 204.082031 203.042969 205.121094 204.601562 203.449219 C 205.582031 202.121094 204.832031 200.042969 202.464844 197.386719 L 203.449219 196.347656 C 206.855469 200.097656 207.777344 202.984375 206.101562 205.121094 C 203.792969 207.257812 200.097656 205.988281 194.960938 201.425781 C 189.996094 196.691406 188.4375 192.996094 190.285156 190.457031 C 192.074219 188.726562 194.730469 189.128906 198.195312 191.785156 L 197.269531 192.765625 C 195.078125 191.207031 193.34375 190.976562 192.191406 192.132812 Z M 192.191406 192.132812 "/>
<path style=" stroke:none;fill-rule:nonzero;fill:rgb(5.490196%,22.352941%,49.803922%);fill-opacity:1;" d="M 198.425781 180.757812 L 215.167969 193.460938 L 214.300781 194.613281 L 206.566406 188.785156 L 203.214844 193.171875 L 210.953125 199.003906 L 210.085938 200.15625 L 193.34375 187.457031 L 194.210938 186.300781 L 201.253906 191.671875 L 204.601562 187.28125 L 197.558594 181.972656 Z M 198.425781 180.757812 "/>
<path style=" stroke:none;fill-rule:nonzero;fill:rgb(5.490196%,22.352941%,49.803922%);fill-opacity:1;" d="M 203.160156 173.253906 L 220.941406 184.511719 L 220.074219 185.898438 L 202.871094 181.453125 L 217.1875 190.515625 L 216.4375 191.726562 L 198.65625 180.46875 L 199.578125 179.027344 L 216.898438 183.703125 L 202.410156 174.523438 Z M 203.160156 173.253906 "/>
<path style=" stroke:none;fill-rule:nonzero;fill:rgb(5.490196%,22.352941%,49.803922%);fill-opacity:1;" d="M 212.742188 177.929688 C 206.621094 174.464844 204.199219 171.289062 205.527344 168.347656 C 207.199219 165.574219 211.183594 165.691406 217.535156 168.691406 C 223.539062 172.042969 225.847656 175.214844 224.578125 178.21875 C 222.902344 180.988281 218.976562 180.875 212.742188 177.929688 Z M 213.433594 176.601562 C 218.226562 178.910156 221.285156 179.140625 222.613281 177.179688 C 223.421875 174.984375 221.515625 172.617188 216.839844 170.019531 C 212.050781 167.652344 209.046875 167.480469 207.777344 169.5 C 206.96875 171.695312 208.816406 174.0625 213.433594 176.601562 Z M 213.433594 176.601562 "/>
<path style=" stroke:none;fill-rule:nonzero;fill:rgb(5.490196%,22.352941%,49.803922%);fill-opacity:1;" d="M 228.042969 164.710938 L 230.175781 165.632812 L 227.464844 171.925781 L 208.179688 163.554688 L 208.757812 162.226562 L 225.960938 169.675781 Z M 228.042969 164.710938 "/>
<path style=" stroke:none;fill-rule:nonzero;fill:rgb(5.490196%,22.352941%,49.803922%);fill-opacity:1;" d="M 220.246094 162.457031 C 213.722656 159.800781 210.953125 156.972656 211.875 153.855469 C 213.203125 150.910156 217.1875 150.507812 223.828125 152.699219 C 230.175781 155.300781 232.949219 158.128906 232.023438 161.246094 C 230.695312 164.191406 226.769531 164.652344 220.246094 162.457031 Z M 220.765625 161.128906 C 225.847656 162.804688 228.90625 162.632812 229.945312 160.496094 C 230.464844 158.242188 228.273438 156.105469 223.308594 154.144531 C 218.285156 152.414062 215.226562 152.644531 214.242188 154.78125 C 213.722656 157.03125 215.859375 159.167969 220.765625 161.128906 Z M 220.765625 161.128906 "/>
<path style=" stroke:none;fill-rule:nonzero;fill:rgb(5.490196%,22.352941%,49.803922%);fill-opacity:1;" d="M 225.730469 143.175781 L 236.179688 146.121094 L 235.949219 147.042969 L 233.527344 146.695312 C 235.140625 147.96875 235.777344 149.351562 235.375 150.910156 C 234.96875 152.296875 233.988281 153.164062 232.488281 153.507812 C 230.121094 154.027344 227.234375 153.796875 223.710938 152.757812 C 217.246094 150.621094 214.242188 148.023438 214.761719 144.964844 C 215.800781 142.539062 218.398438 141.730469 222.558594 142.484375 L 222.152344 143.867188 C 219.324219 143.464844 217.707031 144.097656 217.128906 145.714844 C 216.785156 147.96875 219.152344 149.8125 224.171875 151.375 C 229.601562 152.875 232.660156 152.46875 233.351562 150.277344 C 233.582031 149.527344 233.351562 148.660156 232.601562 147.851562 C 231.621094 146.695312 229.945312 145.832031 227.695312 145.195312 L 226.769531 148.429688 L 224.460938 147.792969 Z M 225.730469 143.175781 "/>
<path style=" stroke:none;fill-rule:nonzero;fill:rgb(5.490196%,22.352941%,49.803922%);fill-opacity:1;" d="M 237.335938 142.195312 L 229.195312 140.519531 L 215.917969 141.90625 L 216.265625 140.230469 L 226.886719 139.308594 L 217.476562 134.285156 L 217.824219 132.609375 L 229.484375 139.132812 L 237.625 140.808594 Z M 237.335938 142.195312 "/>
<path style=" stroke:none;fill-rule:nonzero;fill:rgb(5.490196%,22.352941%,49.803922%);fill-opacity:1;" d="M 19.398438 87.867188 C 19.398438 87.867188 18.53125 87.695312 17.78125 87.523438 C 17.03125 87.347656 14.835938 86.597656 15.011719 84.75 C 15.183594 82.902344 17.203125 83.769531 17.839844 84.230469 C 18.472656 84.691406 19.800781 85.441406 19.917969 85.097656 C 20.03125 84.808594 20.207031 83.882812 18.011719 80.132812 C 15.820312 76.378906 18.128906 75.339844 19.109375 75.746094 C 20.089844 76.148438 19.917969 77.015625 19.6875 78.054688 C 19.457031 79.035156 21.246094 83.828125 21.015625 84.75 C 20.785156 85.675781 20.898438 86.195312 21.1875 86.484375 C 21.476562 86.769531 24.882812 89.65625 25.171875 89.367188 C 25.515625 89.082031 25.515625 88.328125 24.535156 87.234375 C 23.554688 86.136719 23.902344 85.039062 24.363281 84.980469 C 24.824219 84.921875 25.574219 84.402344 24.015625 83.078125 C 22.457031 81.75 21.9375 81.113281 22.398438 80.246094 C 22.863281 79.382812 23.671875 80.074219 23.84375 80.765625 C 24.015625 81.515625 24.824219 81.980469 25.113281 81.632812 C 25.402344 81.285156 24.882812 80.710938 24.535156 79.035156 C 24.191406 77.359375 24.996094 77.070312 25.402344 77.1875 C 25.804688 77.304688 26.039062 77.535156 26.09375 79.382812 C 26.152344 81.171875 26.210938 83.710938 27.710938 85.558594 C 29.210938 87.40625 29.960938 87.808594 30.078125 87.058594 C 30.195312 86.308594 29.558594 82.09375 29.5 80.941406 C 29.441406 79.84375 30.195312 78.398438 30.769531 78.574219 C 31.347656 78.746094 31.695312 79.613281 31.523438 80.765625 C 31.40625 81.921875 31.117188 85.328125 31.175781 86.425781 C 31.289062 87.523438 31.058594 88.617188 31.695312 88.847656 C 32.328125 89.082031 35.273438 90.464844 35.449219 90.175781 C 35.679688 89.832031 35.734375 89.886719 35.621094 88.734375 C 35.503906 87.578125 36.371094 86.828125 37.179688 87.234375 C 37.988281 87.636719 38.277344 88.042969 37.871094 89.195312 C 37.46875 90.351562 37.351562 90.695312 37.8125 90.871094 C 38.21875 91.042969 40.585938 91.96875 42.316406 92.371094 C 43.992188 92.773438 46.472656 92.71875 46.992188 93.929688 C 47.570312 95.140625 45.433594 96.007812 44.742188 96.238281 C 44.105469 96.46875 43.355469 96.816406 43.125 95.546875 C 42.953125 94.277344 39.777344 93.640625 38.738281 93.292969 C 37.757812 92.949219 37.929688 93.410156 37.871094 93.871094 C 37.757812 94.335938 39.316406 95.546875 39.546875 96.585938 C 39.777344 97.683594 39.199219 98.085938 37.8125 98.203125 C 36.488281 98.316406 36.429688 98.261719 36.140625 96.527344 C 35.910156 94.796875 36.199219 92.660156 35.449219 92.199219 C 34.695312 91.734375 31.867188 90.410156 31.578125 90.8125 C 31.289062 91.160156 30.828125 92.3125 31.523438 94.738281 C 32.214844 97.164062 34.984375 101.953125 34.464844 103.339844 C 33.945312 104.726562 32.617188 106.113281 32.042969 103.746094 C 31.464844 101.378906 30.078125 94.277344 30.019531 92.140625 C 29.960938 90.003906 30.25 89.832031 29.039062 89.136719 C 27.828125 88.445312 26.441406 87.117188 26.210938 88.503906 C 25.980469 89.832031 27.597656 90.464844 27.25 91.101562 C 26.902344 91.792969 26.558594 92.082031 26.789062 92.660156 C 27.019531 93.179688 27.652344 93.8125 27.078125 94.796875 C 26.5 95.777344 25.34375 95.429688 25.285156 93.179688 C 25.285156 90.929688 25.574219 91.160156 24.652344 90.753906 C 23.726562 90.351562 22.6875 89.714844 22.285156 89.082031 C 21.878906 88.445312 21.304688 88.15625 20.839844 88.90625 C 20.320312 89.65625 19.457031 89.945312 19.167969 89.367188 C 18.820312 88.792969 19.28125 88.214844 19.398438 87.867188 Z M 19.398438 87.867188 "/>
<path style=" stroke:none;fill-rule:nonzero;fill:rgb(5.490196%,22.352941%,49.803922%);fill-opacity:1;" d="M 58.195312 36.023438 C 56.980469 36.660156 57.039062 39.429688 56.867188 41.507812 C 56.691406 43.585938 56.289062 49.417969 55.769531 49.707031 C 55.25 49.9375 54.84375 50.226562 54.5 48.207031 C 54.152344 46.1875 54.039062 43.820312 53.75 42.953125 C 53.460938 42.085938 53.75 41.625 54.269531 40.988281 C 54.730469 40.296875 55.019531 38.96875 53.632812 37.582031 C 52.246094 36.253906 52.074219 38.796875 51.152344 38.910156 C 50.285156 39.027344 46.878906 38.160156 46.472656 38.738281 C 46.070312 39.316406 46.53125 40.527344 47.398438 41.277344 C 48.265625 42.085938 49.878906 44.339844 49.707031 45.433594 C 49.535156 46.589844 48.4375 52.074219 47.570312 53.230469 C 46.707031 54.382812 46.53125 55.132812 47.050781 55.480469 C 47.050781 55.480469 49.304688 55.539062 49.996094 55.191406 C 50.6875 54.84375 50.6875 54.613281 50.6875 53.054688 C 50.6875 51.554688 51.265625 51.265625 51.382812 50.285156 C 51.554688 49.359375 51.785156 48.550781 52.304688 48.4375 C 52.882812 48.320312 53.285156 49.070312 53.460938 49.765625 C 53.632812 50.457031 54.09375 51.207031 54.613281 51.613281 C 55.078125 52.015625 55.882812 52.710938 55.363281 53.402344 C 54.84375 54.152344 53.863281 55.421875 54.210938 55.941406 C 54.613281 56.460938 55.710938 56.402344 56.578125 54.84375 C 57.441406 53.285156 56.230469 52.476562 57.039062 51.902344 C 57.789062 51.324219 58.886719 51.785156 58.714844 50.515625 C 58.539062 49.246094 58.078125 48.378906 58.945312 46.589844 C 59.867188 44.800781 60.617188 43.011719 59.347656 42.664062 C 58.078125 42.316406 57.5 42.375 57.5 41.335938 C 57.558594 40.296875 58.019531 37.757812 58.714844 38.277344 C 59.40625 38.796875 59.808594 40.125 62.753906 43.585938 C 65.699219 47.050781 70.316406 50.976562 70.144531 51.554688 C 69.972656 52.132812 67.949219 52.710938 67.085938 52.765625 C 66.160156 52.824219 65.640625 53.574219 66.335938 53.863281 C 67.027344 54.152344 72.222656 53.804688 73.203125 53.34375 C 74.1875 52.882812 74.242188 52.074219 72.625 50.6875 C 71.066406 49.304688 64.949219 42.953125 63.160156 40.644531 C 61.367188 38.335938 60.675781 37.351562 60.328125 36.601562 C 59.925781 35.851562 59.464844 35.390625 58.195312 36.023438 Z M 55.132812 57.269531 C 54.730469 57.558594 54.558594 58.195312 55.132812 58.714844 C 55.769531 59.234375 57.617188 61.082031 57.960938 62.175781 C 58.308594 63.273438 61.832031 65.238281 62.464844 62.984375 C 63.160156 60.734375 59.234375 58.945312 57.789062 57.847656 C 56.402344 56.691406 55.132812 57.269531 55.132812 57.269531 Z M 61.832031 50.804688 C 62.234375 49.535156 61.65625 49.070312 60.964844 49.476562 C 60.273438 49.878906 58.769531 52.074219 58.769531 52.074219 C 58.714844 52.246094 58.308594 52.824219 58.828125 53.460938 C 59.289062 54.039062 61.367188 52.074219 61.832031 50.804688 Z M 64.140625 50.34375 C 63.503906 50.285156 63.101562 50.804688 62.929688 51.785156 C 62.695312 52.765625 62.523438 53.054688 61.945312 53.230469 C 61.367188 53.402344 61.082031 53.863281 61.082031 53.863281 C 60.792969 54.269531 61.253906 54.671875 61.601562 54.960938 C 61.945312 55.25 62.351562 55.539062 61.945312 56 C 61.542969 56.460938 61.3125 56.867188 61.65625 57.386719 C 62.003906 57.90625 62.984375 56.867188 63.273438 56.460938 C 63.621094 56.117188 63.5625 56.347656 64.488281 57.15625 C 65.46875 57.960938 66.507812 58.886719 67.429688 57.90625 C 68.355469 56.980469 66.160156 54.84375 65.351562 54.09375 C 64.542969 53.34375 64.253906 52.710938 64.488281 51.84375 C 64.71875 50.976562 64.773438 50.34375 64.140625 50.34375 Z M 64.140625 50.34375 "/>
<path style=" stroke:none;fill-rule:nonzero;fill:rgb(5.490196%,22.352941%,49.803922%);fill-opacity:1;" d="M 101.839844 27.019531 C 101.144531 27.363281 100.742188 29.210938 100.511719 28.980469 C 100.28125 28.75 99.242188 23.84375 99.820312 22.226562 C 100.453125 20.609375 100.972656 19.398438 100.394531 18.820312 C 99.820312 18.242188 99.53125 17.550781 98.722656 17.898438 C 97.914062 18.1875 96.238281 19.976562 95.085938 20.898438 C 93.929688 21.765625 92.660156 22.632812 93.527344 23.265625 C 93.527344 23.265625 95.140625 24.363281 96.007812 23.4375 C 96.875 22.515625 96.988281 22.457031 97.164062 23.382812 C 97.277344 24.246094 97.972656 28.230469 97.394531 28.921875 C 96.816406 29.558594 95.835938 29.847656 94.96875 30.769531 C 94.160156 31.578125 94.277344 32.386719 95.257812 32.214844 C 96.238281 32.042969 97.277344 31.175781 97.507812 31.636719 C 97.738281 32.097656 98.316406 32.964844 97.796875 33.484375 C 97.277344 34.0625 96.585938 35.96875 96.816406 37.292969 C 96.988281 38.621094 99.183594 38.96875 100.28125 35.851562 C 101.378906 32.792969 101.03125 31.117188 101.722656 29.675781 C 102.417969 28.230469 102.53125 26.671875 101.839844 27.019531 Z M 113.730469 12.296875 C 113.097656 11.375 112.402344 10.679688 111.652344 11.140625 C 110.902344 11.605469 110.441406 12.355469 109.75 12.988281 C 109.054688 13.683594 108.824219 13.914062 108.304688 14.027344 C 107.785156 14.144531 107.324219 14.316406 106.746094 15.066406 C 106.167969 15.820312 105.128906 17.839844 104.550781 18.300781 C 103.976562 18.761719 102.53125 18.648438 102.242188 19.109375 C 101.953125 19.570312 102.242188 20.378906 102.472656 21.015625 C 102.472656 21.015625 103.050781 23.4375 103.226562 24.191406 C 103.398438 24.996094 103.800781 25.402344 104.609375 24.882812 C 105.417969 24.363281 105.417969 23.324219 105.128906 21.417969 C 104.839844 19.511719 105.417969 18.9375 106.34375 17.898438 C 107.265625 16.859375 107.902344 16.972656 108.535156 16.105469 C 109.171875 15.183594 110.902344 13.738281 111.019531 14.375 C 111.132812 15.011719 110.789062 16.972656 110.269531 18.878906 C 109.75 20.785156 109.285156 21.070312 109.285156 20.839844 C 109.230469 20.609375 109.230469 18.472656 108.476562 18.417969 C 107.785156 18.417969 108.191406 18.011719 107.4375 19.917969 C 106.746094 21.824219 106.167969 22.113281 106.167969 22.6875 C 106.226562 23.265625 107.09375 23.324219 106.976562 24.074219 C 106.863281 24.824219 106.976562 25.285156 106.746094 26.039062 C 106.515625 26.789062 106.34375 27.132812 107.035156 28 C 107.726562 28.867188 107.84375 29.675781 107.785156 30.25 C 107.726562 30.769531 107.207031 31.636719 107.671875 32.273438 C 108.132812 32.90625 108.59375 33.195312 108.765625 34.003906 C 108.882812 34.871094 108.882812 35.734375 108.421875 36.253906 C 107.957031 36.773438 107.4375 37.179688 108.421875 37.8125 C 109.402344 38.507812 110.558594 38.738281 112.058594 37.929688 C 113.558594 37.121094 113.730469 37.007812 114.425781 37.121094 C 115.117188 37.238281 115.984375 37.121094 115.867188 36.023438 C 115.808594 34.929688 115.289062 33.886719 114.019531 34.234375 C 112.75 34.582031 112.058594 35.042969 111.363281 35.160156 C 110.671875 35.273438 109.921875 34.640625 110.84375 33.3125 C 111.769531 31.984375 111.597656 31.867188 112.058594 31.289062 C 112.519531 30.714844 113.558594 29.039062 112.230469 29.039062 C 110.960938 29.039062 109.515625 29.90625 109.34375 29.730469 C 109.113281 29.5 108.652344 27.421875 109.113281 26.324219 C 109.574219 25.230469 109.691406 24.824219 110.441406 24.363281 C 111.191406 23.84375 111.769531 23.324219 112.402344 19.917969 C 113.039062 16.453125 112.921875 15.125 113.5 14.664062 C 114.019531 14.261719 114.367188 13.21875 113.730469 12.296875 Z M 113.730469 12.296875 "/>
<path style=" stroke:none;fill-rule:nonzero;fill:rgb(5.490196%,22.352941%,49.803922%);fill-opacity:1;" d="M 154.894531 20.4375 C 154.894531 20.4375 155.820312 23.785156 156.742188 24.015625 C 157.664062 24.246094 158.648438 24.015625 160.667969 23.265625 C 162.6875 22.457031 164.304688 22.632812 164.132812 23.382812 C 163.957031 24.132812 160.898438 26.152344 159.398438 27.421875 C 157.839844 28.75 154.894531 31.867188 153.796875 32.445312 C 152.699219 33.023438 147.621094 33.714844 146.523438 33.484375 C 145.425781 33.253906 143.636719 34.003906 144.042969 34.582031 C 144.445312 35.160156 145.832031 36.023438 146.351562 36.660156 C 146.871094 37.292969 147.332031 37.351562 149.238281 36.832031 C 151.140625 36.371094 154.835938 35.214844 156.105469 34.523438 C 157.378906 33.886719 158.707031 34.464844 160.089844 34.582031 C 161.535156 34.695312 162.976562 33.832031 163.4375 33.082031 C 163.902344 32.328125 163.382812 31.753906 162.515625 31.867188 C 161.648438 31.984375 160.4375 32.5625 160.148438 32.214844 C 159.859375 31.753906 160.957031 29.90625 163.265625 28.347656 C 165.574219 26.789062 167.480469 25.863281 167.941406 24.765625 C 168.347656 23.671875 168.289062 21.535156 167.132812 21.246094 C 165.980469 20.957031 161.589844 21.015625 160.148438 20.726562 C 158.707031 20.378906 154.605469 18.761719 154.894531 20.4375 Z M 154.894531 20.4375 "/>
<path style=" stroke:none;fill-rule:nonzero;fill:rgb(5.490196%,22.352941%,49.803922%);fill-opacity:1;" d="M 201.945312 51.035156 C 202.582031 51.382812 204.488281 52.074219 205.0625 51.265625 C 205.640625 50.457031 205.582031 49.707031 204.660156 49.589844 C 203.734375 49.476562 202.753906 49.1875 202.929688 48.785156 C 203.101562 48.378906 205.292969 46.648438 205.757812 46.417969 C 206.21875 46.128906 206.507812 45.722656 206.390625 44.453125 C 206.277344 43.183594 205.8125 41.855469 205.179688 41.625 C 204.542969 41.394531 204.023438 41.394531 203.5625 41.972656 C 203.160156 42.546875 200.675781 46.359375 199.984375 47.339844 C 199.289062 48.320312 199.234375 49.128906 197.730469 49.015625 C 196.289062 48.957031 194.730469 49.015625 193.804688 48.496094 C 192.882812 47.976562 191.324219 46.648438 190.917969 47.746094 C 190.917969 47.746094 190.113281 48.957031 190.863281 49.589844 C 191.613281 50.167969 193.230469 50.863281 194.382812 50.746094 C 195.539062 50.632812 196 50.746094 195.828125 51.265625 C 195.652344 51.726562 191.785156 53.402344 188.4375 53.980469 C 185.089844 54.558594 179.375 54.902344 178.910156 54.960938 C 178.449219 55.019531 178.160156 56.460938 181.625 56.289062 C 185.144531 56.117188 194.382812 55.191406 197.789062 53.054688 C 201.253906 50.917969 201.3125 50.6875 201.945312 51.035156 Z M 199.234375 61.601562 C 198.65625 60.328125 198.539062 56.808594 198.714844 55.828125 C 198.886719 54.789062 197.960938 54.5 197.960938 54.5 C 197.558594 54.210938 196.808594 54.5 196.402344 55.597656 C 196 56.636719 196.058594 61.253906 196.691406 62.695312 C 197.386719 64.140625 199.925781 65.292969 200.734375 65.46875 C 201.542969 65.582031 199.808594 62.8125 199.234375 61.601562 Z M 199.234375 61.601562 "/>
<path style=" stroke:none;fill-rule:nonzero;fill:rgb(5.490196%,22.352941%,49.803922%);fill-opacity:1;" d="M 235.777344 92.429688 C 236.007812 90.871094 232.140625 88.847656 231.273438 88.214844 C 230.410156 87.578125 229.832031 86.539062 229.832031 85.730469 C 229.773438 84.921875 230.695312 84.519531 231.390625 84.867188 C 232.023438 85.210938 233.292969 85.675781 234.507812 86.078125 C 235.660156 86.484375 237.046875 86.539062 237.566406 86.308594 C 238.085938 86.078125 238.375 84.289062 238.144531 83.421875 C 237.914062 82.558594 237.453125 82.210938 236.585938 82.269531 C 235.71875 82.324219 235.488281 83.019531 234.796875 83.710938 C 234.101562 84.402344 232.3125 83.828125 231.160156 83.652344 C 230.003906 83.480469 229.3125 83.941406 229.082031 83.882812 C 228.792969 83.828125 228.328125 82.210938 228.15625 81.863281 C 227.984375 81.515625 227.867188 81.34375 227.289062 81.285156 C 226.714844 81.285156 226.539062 80.882812 226.425781 80.421875 C 226.308594 79.957031 227.003906 79.207031 227.003906 78.863281 C 227.003906 78.457031 226.65625 77.707031 226.195312 77.648438 C 225.730469 77.589844 224.460938 80.132812 223.421875 81.804688 C 222.441406 83.480469 221.980469 82.960938 221.804688 83.078125 C 221.632812 83.191406 221.515625 82.730469 221.460938 82.5 C 221.402344 82.269531 222.152344 80.941406 222.152344 80.132812 C 222.152344 79.035156 221.515625 79.09375 221.515625 79.09375 C 220.710938 79.207031 220.191406 81.113281 219.554688 81.921875 C 218.917969 82.730469 218.285156 83.308594 218.917969 84 C 219.554688 84.691406 221.632812 84.117188 222.5 84.578125 C 223.421875 85.039062 223.539062 85.5 223.539062 85.789062 C 223.480469 86.078125 222.84375 85.90625 221.921875 85.960938 C 220.996094 86.019531 221.574219 86.539062 222.324219 86.828125 C 223.078125 87.117188 224.171875 87.636719 224.519531 88.273438 C 224.867188 88.847656 223.597656 88.734375 223.480469 89.195312 C 223.363281 89.65625 224.117188 89.542969 225.097656 89.65625 C 226.078125 89.773438 227.003906 90.292969 228.097656 90.003906 C 229.253906 89.714844 229.023438 89.023438 229.367188 88.734375 C 229.773438 88.386719 230.234375 89.023438 230.640625 89.425781 C 231.042969 89.832031 231.96875 90.121094 232.371094 90.929688 C 232.773438 91.679688 231.503906 91.734375 230.175781 91.449219 C 228.847656 91.214844 225.441406 90.929688 224.402344 90.929688 C 223.308594 90.929688 222.789062 90.640625 222.152344 89.773438 C 221.515625 88.90625 220.132812 87.925781 218.285156 86.65625 C 216.378906 85.441406 216.03125 85.675781 216.378906 86.367188 C 216.726562 87.058594 218.34375 88.5625 219.265625 89.136719 C 220.191406 89.714844 220.652344 89.773438 221.230469 90.582031 C 221.804688 91.449219 220.765625 91.503906 220.132812 91.273438 C 219.496094 91.042969 218.34375 91.042969 217.359375 90.753906 C 216.378906 90.410156 215.917969 89.832031 215.28125 89.945312 C 214.648438 90.121094 214.359375 89.886719 213.144531 88.792969 C 211.875 87.695312 209.683594 87.175781 208.527344 86.25 C 207.375 85.328125 207.316406 84.578125 206.679688 84.808594 C 206.046875 85.039062 206.21875 85.558594 206.796875 86.769531 C 207.375 87.984375 209.625 88.964844 211.242188 90.0625 C 212.859375 91.214844 212.683594 91.679688 212.453125 92.3125 C 212.222656 92.949219 209.453125 94.335938 208.238281 94.796875 C 207.027344 95.199219 206.507812 94.101562 205.929688 92.890625 C 205.351562 91.679688 204.488281 92.199219 204.773438 92.949219 C 205.0625 93.699219 205.699219 95.894531 206.101562 96.757812 C 206.507812 97.625 206.96875 97.625 208.933594 96.933594 C 210.894531 96.238281 212.339844 94.566406 212.972656 93.871094 C 213.609375 93.238281 213.898438 93.0625 214.53125 93.0625 C 215.167969 93.0625 216.03125 93.757812 216.265625 94.21875 C 216.496094 94.679688 215.339844 94.21875 214.878906 94.621094 C 214.417969 95.027344 215.050781 95.199219 215.859375 95.488281 C 216.726562 95.835938 218.167969 96.816406 218.746094 96.179688 C 219.324219 95.546875 218.746094 93.871094 217.765625 93.292969 C 216.785156 92.71875 216.148438 92.140625 216.378906 91.96875 C 216.609375 91.734375 216.550781 91.679688 217.304688 91.910156 C 218.113281 92.140625 221.230469 93.007812 222.730469 93.871094 C 224.230469 94.738281 224.691406 94.621094 225.210938 94.277344 C 225.730469 93.871094 225.210938 93.007812 225.328125 92.488281 C 225.5 91.96875 227.175781 92.371094 228.328125 92.890625 C 229.484375 93.410156 230.464844 93.351562 231.160156 93.292969 C 231.851562 93.179688 231.734375 93.46875 232.832031 93.640625 C 233.929688 93.699219 235.546875 94.046875 235.777344 92.429688 Z M 225.617188 82.039062 C 225.328125 81.75 225.386719 81.34375 226.136719 81.515625 C 226.136719 81.515625 226.539062 81.75 226.425781 81.980469 C 226.308594 82.210938 225.90625 82.382812 225.617188 82.039062 Z M 224.058594 84.117188 C 223.363281 83.769531 223.539062 83.421875 223.941406 83.25 C 224.347656 83.132812 224.980469 83.421875 225.039062 83.769531 C 225.039062 83.769531 224.75 84.460938 224.058594 84.117188 Z M 226.367188 84.921875 C 225.847656 84.347656 226.078125 84.058594 226.078125 84.058594 C 226.019531 83.652344 226.828125 84 227.058594 84.230469 C 227.289062 84.460938 227.636719 85.039062 227.464844 85.441406 C 227.347656 85.789062 226.886719 85.5 226.367188 84.921875 Z M 225.5 88.273438 C 225.269531 87.867188 225.90625 87.695312 226.484375 87.523438 C 227.058594 87.289062 227.636719 87.464844 227.578125 87.925781 C 227.578125 87.925781 227.578125 88.273438 227.003906 88.5625 C 226.367188 88.847656 225.730469 88.734375 225.5 88.273438 Z M 225.5 88.273438 "/>
<path style=" stroke:none;fill-rule:nonzero;fill:rgb(100%,100%,100%);fill-opacity:1;" d="M 118.234375 83.191406 C 119.332031 83.191406 120.140625 82.324219 120.140625 81.230469 C 120.140625 80.191406 119.273438 79.324219 118.175781 79.324219 C 117.136719 79.324219 116.273438 80.191406 116.273438 81.285156 C 116.273438 82.324219 117.136719 83.191406 118.234375 83.191406 Z M 125.164062 81.980469 C 126.203125 81.980469 127.066406 81.113281 127.066406 80.015625 C 127.066406 78.976562 126.203125 78.113281 125.105469 78.113281 C 124.007812 78.113281 123.199219 78.976562 123.199219 80.074219 C 123.257812 81.171875 124.125 82.039062 125.164062 81.980469 Z M 132.089844 83.078125 C 133.1875 83.078125 133.996094 82.210938 133.996094 81.113281 C 133.996094 80.015625 133.128906 79.207031 132.03125 79.207031 C 130.9375 79.207031 130.128906 80.074219 130.128906 81.171875 C 130.128906 82.210938 130.992188 83.078125 132.089844 83.078125 Z M 152.933594 88.734375 C 151.660156 87.984375 150.507812 86.828125 148.488281 83.710938 C 146.464844 80.59375 143.058594 80.304688 143.058594 80.304688 C 143.523438 77.878906 141.90625 74.878906 141.386719 73.261719 C 140.867188 71.644531 140.980469 70.953125 140.808594 69.335938 C 140.636719 67.71875 139.363281 68.414062 138.324219 68.757812 C 137.34375 69.164062 136.246094 69.566406 132.957031 69.914062 C 129.664062 70.261719 126.203125 73.953125 125.394531 74.472656 C 124.644531 75.050781 123.71875 73.78125 121.8125 72.222656 C 119.910156 70.664062 116.214844 69.738281 115.058594 69.625 C 113.960938 69.507812 113.15625 68.988281 111.132812 68.585938 C 109.113281 68.179688 109.515625 69.335938 109.574219 70.953125 C 109.632812 72.570312 109.054688 73.664062 108.132812 75.859375 C 107.265625 78.054688 107.035156 80.59375 107.035156 80.59375 C 104.496094 80.363281 102.1875 83.019531 101.378906 84.578125 C 100.570312 86.078125 99.472656 87.523438 97.507812 88.734375 C 95.546875 90.003906 95.375 92.023438 96.875 92.023438 C 98.316406 92.023438 98.203125 92.140625 103.339844 95.199219 C 108.476562 98.261719 112.117188 96.933594 112.117188 96.933594 C 112.980469 100.570312 116.792969 101.550781 116.792969 101.550781 C 116.792969 102.589844 119.273438 110.09375 125.394531 109.921875 C 131.511719 109.75 133.824219 101.261719 133.824219 101.261719 C 137.921875 99.875 138.613281 96.414062 138.613281 96.414062 C 144.734375 98.375 146.984375 94.507812 148.023438 93.757812 C 149.0625 92.949219 149.988281 92.773438 152.527344 91.96875 C 155.066406 91.101562 154.261719 89.542969 152.933594 88.734375 Z M 110.84375 76.207031 C 111.769531 74.707031 112 73.203125 111.828125 71.53125 C 111.828125 71.53125 115.925781 72.164062 117.601562 72.914062 C 119.273438 73.609375 121.640625 75.226562 122.679688 76.148438 C 123.71875 77.070312 124.757812 78.167969 126.722656 76.667969 C 128.683594 75.167969 131.167969 72.625 133.878906 72.453125 C 136.59375 72.339844 138.09375 72.28125 138.558594 71.300781 C 138.558594 71.300781 138.269531 73.664062 139.019531 75.167969 C 139.597656 76.378906 140.347656 79.035156 140.171875 80.304688 C 140.171875 80.304688 133.015625 80.074219 131.28125 88.214844 C 131.28125 88.214844 130.359375 88.214844 129.492188 88.273438 C 129.492188 88.273438 130.1875 86.425781 131.28125 85.039062 L 129.261719 83.480469 C 129.261719 83.480469 127.242188 85.90625 126.722656 89.367188 L 126.664062 83.363281 L 123.777344 83.363281 L 123.777344 89.136719 C 123.777344 89.136719 122.621094 84.75 120.832031 83.539062 L 118.929688 84.75 C 118.929688 84.75 120.371094 86.714844 120.71875 88.042969 C 120.71875 88.042969 119.734375 87.925781 119.214844 88.042969 C 119.214844 88.042969 116.90625 80.421875 109.863281 80.363281 C 109.921875 80.476562 109.921875 77.765625 110.84375 76.207031 Z M 112.058594 93.699219 C 109.285156 95.140625 105.476562 93.179688 104.4375 92.023438 C 103.398438 90.871094 99.992188 90.003906 99.992188 90.003906 C 101.089844 90.003906 102.589844 87.578125 103.226562 86.308594 C 103.859375 85.039062 105.824219 82.730469 110.210938 82.902344 C 114.597656 83.078125 116.617188 88.90625 116.617188 88.90625 C 112.691406 90.003906 112.058594 93.699219 112.058594 93.699219 Z M 125.277344 107.613281 C 123.027344 107.671875 120.371094 104.207031 119.96875 102.011719 C 119.96875 102.011719 123.429688 103.917969 124.757812 106.113281 C 124.816406 106.457031 125.453125 106.976562 125.914062 106.226562 C 126.375 105.476562 128.914062 101.839844 130.707031 101.839844 C 130.878906 101.78125 128.453125 107.496094 125.277344 107.613281 Z M 135.613281 95.894531 C 134.976562 98.375 132.726562 99.183594 130.300781 99.472656 C 127.644531 99.761719 126.027344 102.472656 125.566406 103.226562 C 125.566406 103.226562 124.355469 100.625 120.949219 99.875 C 117.542969 99.125 114.945312 97.972656 115.003906 94.796875 C 115.058594 91.621094 118.292969 90.582031 120.890625 91.390625 C 123.488281 92.199219 123.777344 93.351562 125.394531 93.351562 C 125.394531 93.351562 126.085938 93.410156 127.414062 92.199219 C 128.800781 90.984375 130.589844 90.410156 132.4375 90.8125 C 134.226562 91.160156 136.246094 93.410156 135.613281 95.894531 Z M 146.003906 92.023438 C 144.273438 93.351562 141.269531 94.910156 138.324219 93.527344 C 138.324219 93.527344 136.996094 89.714844 133.9375 88.5625 C 133.9375 88.5625 135.382812 83.597656 139.769531 82.902344 C 144.15625 82.210938 146.695312 85.15625 147.390625 86.539062 C 148.082031 87.925781 149.179688 89.542969 150.449219 89.886719 C 150.449219 89.945312 147.734375 90.695312 146.003906 92.023438 Z M 146.003906 92.023438 "/>
</g>
</svg>
